{"glyphs":{"0":{"ha":814,"x_min":46,"x_max":769,"o":"m 406 -14 q 141 121 235 -14 q 46 462 46 256 q 138 802 46 664 q 407 940 231 940 q 675 802 582 940 q 769 465 769 664 q 675 123 769 260 q 406 -14 581 -14 m 408 785 q 301 714 332 785 q 271 465 271 643 q 303 216 271 286 q 408 146 334 146 q 513 215 480 146 q 545 456 545 283 q 513 715 545 646 q 408 785 481 785 z "},"1":{"ha":814,"x_min":61,"x_max":811,"o":"m 84 561 l 84 751 q 397 940 324 822 l 555 940 l 555 170 l 811 170 l 811 0 l 61 0 l 61 170 l 342 170 l 342 699 q 84 561 176 599 z "},"2":{"ha":814,"x_min":44,"x_max":754,"o":"m 754 184 l 739 0 l 44 0 l 44 180 q 156 260 78 205 q 433 484 347 396 q 520 645 520 572 q 486 733 520 699 q 393 768 451 768 q 235 591 257 768 l 44 634 q 401 940 109 940 q 653 854 566 940 q 741 648 741 768 q 649 428 741 525 q 311 184 557 331 l 754 184 z "},"3":{"ha":814,"x_min":24,"x_max":750,"o":"m 270 559 l 368 559 q 481 594 451 559 q 511 668 511 629 q 478 746 511 712 q 386 781 445 781 q 244 662 273 781 l 52 692 q 167 870 76 800 q 392 940 258 940 q 627 873 532 940 q 722 692 722 807 q 564 485 722 541 q 750 265 750 435 q 655 64 750 143 q 392 -14 559 -14 q 137 67 231 -14 q 24 268 43 148 l 221 296 q 387 153 250 153 q 490 186 450 153 q 530 277 530 220 q 493 368 530 338 q 355 397 457 397 l 270 397 l 270 559 z "},"4":{"ha":814,"x_min":32,"x_max":783,"o":"m 653 940 l 653 376 l 783 376 l 783 214 l 653 214 l 653 0 l 437 0 l 437 214 l 32 214 l 32 376 l 406 940 l 653 940 m 195 376 l 447 376 l 447 689 q 448 733 447 707 l 450 771 l 195 376 z "},"5":{"ha":814,"x_min":52,"x_max":777,"o":"m 698 736 l 294 736 l 279 530 q 476 609 353 609 q 689 527 602 609 q 777 314 777 444 q 682 78 777 170 q 417 -14 587 -14 q 52 249 121 -14 l 255 279 q 410 157 286 157 q 517 199 477 157 q 557 298 557 241 q 515 401 557 358 q 412 444 473 444 q 279 372 326 444 l 102 401 l 138 926 l 722 926 l 698 736 z "},"6":{"ha":814,"x_min":54,"x_max":770,"o":"m 757 692 l 570 642 q 432 785 544 785 q 269 475 269 785 q 477 581 335 581 q 688 497 606 581 q 770 297 770 412 q 680 80 770 174 q 438 -14 589 -14 q 202 62 289 -14 q 85 245 116 139 q 54 450 54 351 q 150 802 54 663 q 435 940 246 940 q 654 868 571 940 q 757 692 736 797 m 419 141 q 517 181 478 141 q 557 293 557 220 q 514 395 557 357 q 420 433 472 433 q 322 392 365 433 q 280 286 280 351 q 319 182 280 224 q 419 141 359 141 z "},"7":{"ha":814,"x_min":79,"x_max":743,"o":"m 743 926 l 743 761 q 605 554 680 694 q 506 281 530 414 q 481 68 481 147 q 484 0 481 45 l 235 0 q 256 199 237 109 q 326 405 274 289 q 431 595 378 520 q 549 734 484 670 l 79 734 l 96 926 l 743 926 z "},"8":{"ha":814,"x_min":40,"x_max":774,"o":"m 603 500 q 774 272 774 429 q 676 66 774 147 q 393 -14 578 -14 q 131 60 222 -14 q 40 250 40 134 q 205 456 40 395 q 71 667 71 530 q 160 860 71 780 q 410 940 250 940 q 653 871 563 940 q 743 696 743 802 q 603 500 743 561 m 460 560 q 554 678 554 589 q 515 766 554 732 q 404 800 476 800 q 311 772 345 800 q 278 700 278 744 q 311 629 278 659 q 460 560 343 600 m 351 387 q 235 258 235 353 q 280 167 235 200 q 406 134 325 134 q 521 160 477 134 q 565 235 565 185 q 533 305 565 273 q 351 387 502 337 z "},"9":{"ha":814,"x_min":50,"x_max":756,"o":"m 261 245 q 384 148 290 148 q 493 200 448 148 q 542 444 539 252 q 335 348 463 348 q 131 427 212 348 q 50 631 50 505 q 141 854 50 769 q 389 940 233 940 q 584 889 501 940 q 712 727 667 838 q 756 476 756 615 q 661 127 756 268 q 374 -14 565 -14 q 71 211 130 -14 l 261 245 m 393 786 q 294 743 333 786 q 255 645 255 700 q 292 547 255 589 q 391 505 329 505 q 492 549 452 505 q 531 646 531 592 q 492 744 531 701 q 393 786 453 786 z "}," ":{"ha":347,"x_min":0,"x_max":0,"o":""},"!":{"ha":408,"x_min":74,"x_max":334,"o":"m 142 277 l 74 926 l 334 926 l 267 277 l 142 277 m 98 0 l 98 214 l 311 214 l 311 0 l 98 0 z "},"\"":{"ha":515,"x_min":52,"x_max":462,"o":"m 192 541 l 76 541 l 52 926 l 216 926 l 192 541 m 438 541 l 322 541 l 298 926 l 462 926 l 438 541 z "},"#":{"ha":814,"x_min":47,"x_max":768,"o":"m 728 420 l 704 286 l 573 286 l 523 0 l 386 0 l 436 286 l 330 286 l 279 0 l 145 0 l 195 286 l 47 286 l 71 420 l 219 420 l 237 525 l 92 525 l 115 659 l 261 659 l 308 926 l 443 926 l 396 659 l 503 659 l 549 926 l 686 926 l 639 659 l 768 659 l 744 525 l 615 525 l 597 420 l 728 420 m 479 525 l 372 525 l 354 420 l 460 420 l 479 525 z "},"$":{"ha":814,"x_min":33,"x_max":736,"o":"m 439 27 l 439 -102 l 330 -102 l 330 26 q 33 262 85 52 l 219 305 q 394 185 251 185 q 497 212 463 185 q 532 275 532 238 q 501 334 532 313 q 382 373 471 355 q 133 480 189 413 q 77 638 77 548 q 148 819 77 744 q 330 907 218 894 l 330 1015 l 439 1015 l 439 909 q 713 709 648 889 l 542 652 q 395 753 507 753 q 275 676 275 753 q 298 624 275 645 q 399 587 320 602 q 592 533 530 560 q 695 446 653 506 q 736 311 736 385 q 663 124 736 208 q 439 27 589 41 z "},"%":{"ha":958,"x_min":39,"x_max":918,"o":"m 230 456 q 89 525 138 456 q 39 694 39 594 q 89 864 39 795 q 231 932 138 932 q 373 864 323 932 q 422 695 422 795 q 372 525 422 593 q 230 456 322 456 m 231 849 q 178 815 193 849 q 163 696 163 782 q 178 577 163 611 q 231 543 193 543 q 283 576 267 543 q 298 691 298 610 q 283 815 298 781 q 231 849 269 849 m 169 0 l 682 926 l 785 926 l 271 0 l 169 0 m 726 -7 q 584 62 633 -7 q 534 231 534 131 q 584 401 534 332 q 726 469 633 469 q 868 400 819 469 q 918 232 918 332 q 868 61 918 130 q 726 -7 818 -7 m 727 386 q 675 356 692 386 q 659 233 659 327 q 674 113 659 147 q 726 79 690 79 q 779 114 763 79 q 794 227 794 148 q 779 352 794 317 q 727 386 764 386 z "},"&":{"ha":997,"x_min":39,"x_max":974,"o":"m 974 505 q 823 211 942 350 q 918 168 865 168 q 974 172 937 168 l 974 7 q 881 -6 924 -6 q 681 83 757 -6 q 391 -18 554 -18 q 126 71 214 -18 q 39 273 39 159 q 269 541 39 458 q 199 647 215 609 q 183 727 183 684 q 261 885 183 825 q 469 945 339 945 q 672 879 600 945 q 744 715 744 814 q 570 490 744 562 l 700 349 q 782 532 756 410 l 974 505 m 477 604 q 576 711 576 641 q 549 777 576 749 q 475 804 522 804 q 412 784 437 804 q 387 733 387 764 q 438 644 387 695 l 477 604 m 379 418 q 271 289 271 381 q 310 194 271 235 q 414 153 349 153 q 568 208 498 153 l 379 418 z "},"'":{"ha":269,"x_min":52,"x_max":216,"o":"m 192 541 l 76 541 l 52 926 l 216 926 l 192 541 z "},"(":{"ha":408,"x_min":31,"x_max":375,"o":"m 224 -231 q 31 345 31 45 q 228 926 31 660 l 375 926 q 216 349 216 663 q 372 -231 216 27 l 224 -231 z "},")":{"ha":408,"x_min":32,"x_max":377,"o":"m 183 926 q 377 350 377 648 q 180 -231 377 33 l 32 -231 q 191 346 191 30 q 35 926 191 667 l 183 926 z "},"*":{"ha":814,"x_min":100,"x_max":714,"o":"m 646 452 l 511 357 l 405 535 l 300 357 l 163 452 l 300 604 l 100 652 l 154 801 l 342 719 l 325 926 l 487 926 l 467 719 l 665 801 l 714 652 l 511 604 l 646 452 z "},"+":{"ha":814,"x_min":64,"x_max":751,"o":"m 751 542 l 751 393 l 481 393 l 481 115 l 334 115 l 334 393 l 64 393 l 64 542 l 334 542 l 334 821 l 481 821 l 481 542 l 751 542 z "},",":{"ha":357,"x_min":73,"x_max":283,"o":"m 283 210 l 283 20 l 148 -216 l 73 -216 l 178 0 l 73 0 l 73 210 l 283 210 z "},"-":{"ha":357,"x_min":16,"x_max":340,"o":"m 16 426 l 340 426 l 340 279 l 16 279 l 16 426 z "},".":{"ha":357,"x_min":74,"x_max":283,"o":"m 283 0 l 74 0 l 74 210 l 283 210 l 283 0 z "},"/":{"ha":743,"x_min":-91,"x_max":707,"o":"m 47 -231 l -91 -231 l 570 926 l 707 926 l 47 -231 z "},":":{"ha":357,"x_min":74,"x_max":283,"o":"m 283 479 l 74 479 l 74 685 l 283 685 l 283 479 m 283 1 l 74 1 l 74 210 l 283 210 l 283 1 z "},";":{"ha":357,"x_min":73,"x_max":283,"o":"m 283 685 l 283 481 l 73 481 l 73 685 l 283 685 m 283 208 l 283 18 l 148 -220 l 73 -220 l 178 -3 l 73 -3 l 73 208 l 283 208 z "},"<":{"ha":814,"x_min":93,"x_max":694,"o":"m 694 855 l 694 665 l 295 464 l 694 262 l 694 74 l 93 385 l 93 545 l 694 855 z "},"=":{"ha":814,"x_min":64,"x_max":751,"o":"m 751 662 l 751 514 l 64 514 l 64 662 l 751 662 m 751 408 l 751 259 l 64 259 l 64 408 l 751 408 z "},">":{"ha":814,"x_min":120,"x_max":722,"o":"m 120 74 l 120 264 l 519 465 l 120 667 l 120 855 l 722 545 l 722 384 l 120 74 z "},"?":{"ha":709,"x_min":18,"x_max":669,"o":"m 250 265 l 250 291 q 269 447 250 414 q 371 540 288 479 q 431 599 414 572 q 448 667 448 627 q 416 746 448 718 q 339 775 385 775 q 204 606 219 775 l 18 632 q 131 864 39 785 q 353 943 222 943 q 578 865 488 943 q 669 669 669 788 q 518 423 669 522 q 438 355 452 380 q 425 265 425 331 l 250 265 m 458 0 l 245 0 l 245 205 l 458 205 l 458 0 z "},"@":{"ha":1079,"x_min":54,"x_max":1025,"o":"m 776 696 l 739 391 q 735 338 735 360 q 762 308 735 308 q 855 370 809 308 q 901 525 901 431 q 802 752 901 662 q 559 842 703 842 q 297 732 404 842 q 190 459 190 622 q 290 197 190 309 q 572 85 390 85 q 686 96 621 85 q 862 163 751 107 l 907 52 q 572 -33 744 -33 q 306 27 420 -33 q 123 205 192 88 q 54 460 54 321 q 201 812 54 670 q 557 954 348 954 q 891 828 758 954 q 1025 528 1025 703 q 943 290 1025 389 q 749 192 861 192 q 633 251 672 192 q 507 189 581 189 q 368 259 426 189 q 309 443 309 329 q 375 633 309 559 q 532 707 440 707 q 640 667 591 707 l 648 696 l 776 696 m 517 320 q 595 364 559 320 q 630 479 630 408 q 604 547 630 517 q 541 576 578 576 q 472 538 499 576 q 445 438 445 500 q 464 354 445 388 q 517 320 484 320 z "},"A":{"ha":844,"x_min":0,"x_max":838,"o":"m 548 926 l 838 0 l 604 0 l 548 191 l 248 191 l 190 0 l 0 0 l 296 926 l 548 926 m 300 361 l 497 361 l 399 686 l 300 361 z "},"B":{"ha":905,"x_min":93,"x_max":859,"o":"m 93 926 l 524 926 q 699 897 640 926 q 795 816 757 869 q 833 687 833 763 q 666 481 833 533 q 810 395 762 460 q 859 255 859 331 q 780 76 859 151 q 524 0 701 0 l 93 0 l 93 926 m 309 762 l 309 559 l 473 559 q 587 595 564 559 q 610 663 610 631 q 591 724 610 699 q 549 756 572 749 q 458 762 526 762 l 309 762 m 309 395 l 309 172 l 476 172 q 597 201 562 172 q 632 285 632 231 q 598 362 632 330 q 486 395 564 395 l 309 395 z "},"C":{"ha":871,"x_min":49,"x_max":840,"o":"m 840 581 l 612 567 q 460 763 608 763 q 290 461 290 763 q 336 225 290 287 q 465 163 382 163 q 629 338 600 163 l 840 325 q 716 72 819 159 q 463 -14 612 -14 q 164 113 279 -14 q 49 463 49 239 q 160 806 49 673 q 464 940 271 940 q 840 581 798 940 z "},"D":{"ha":901,"x_min":93,"x_max":852,"o":"m 93 926 l 376 926 q 633 878 549 926 q 785 727 718 830 q 852 465 852 623 q 735 133 852 267 q 412 0 618 0 l 93 0 l 93 926 m 306 755 l 306 174 l 395 174 q 572 263 514 174 q 629 471 629 351 q 596 626 629 555 q 515 727 564 698 q 397 755 466 755 l 306 755 z "},"E":{"ha":791,"x_min":92,"x_max":754,"o":"m 754 749 l 313 749 l 313 559 l 660 559 l 660 385 l 313 385 l 313 183 l 754 183 l 754 0 l 92 0 l 92 926 l 754 926 l 754 749 z "},"F":{"ha":770,"x_min":93,"x_max":751,"o":"m 751 743 l 318 743 l 318 535 l 661 535 l 661 362 l 318 362 l 318 0 l 93 0 l 93 926 l 751 926 l 751 743 z "},"G":{"ha":892,"x_min":49,"x_max":814,"o":"m 814 495 l 814 0 l 715 0 q 684 106 704 52 q 431 -14 585 -14 q 150 115 250 -14 q 49 450 49 245 q 156 806 49 671 q 448 940 264 940 q 698 853 603 940 q 814 622 793 766 l 608 595 q 448 763 583 763 q 315 683 360 763 q 270 456 270 604 q 319 238 270 313 q 458 163 368 163 q 562 201 516 163 q 608 322 608 239 l 433 322 l 433 495 l 814 495 z "},"H":{"ha":901,"x_min":93,"x_max":808,"o":"m 808 926 l 808 0 l 595 0 l 595 382 l 306 382 l 306 0 l 93 0 l 93 926 l 306 926 l 306 565 l 595 565 l 595 926 l 808 926 z "},"I":{"ha":402,"x_min":93,"x_max":309,"o":"m 309 926 l 309 0 l 93 0 l 93 926 l 309 926 z "},"J":{"ha":529,"x_min":9,"x_max":446,"o":"m 446 926 l 446 265 q 378 55 446 124 q 156 -14 311 -14 q 9 0 88 -14 l 9 180 q 120 169 74 169 q 184 183 161 169 q 218 219 208 198 q 229 292 229 240 l 229 926 l 446 926 z "},"K":{"ha":876,"x_min":93,"x_max":859,"o":"m 306 926 l 306 490 l 596 926 l 804 926 l 581 595 l 859 0 l 620 0 l 436 401 l 306 212 l 306 0 l 93 0 l 93 926 l 306 926 z "},"L":{"ha":699,"x_min":93,"x_max":681,"o":"m 313 183 l 681 183 l 681 0 l 93 0 l 93 926 l 313 926 l 313 183 z "},"M":{"ha":1194,"x_min":92,"x_max":1101,"o":"m 502 0 l 274 755 l 274 0 l 92 0 l 92 926 l 430 926 l 592 372 l 763 926 l 1101 926 l 1101 0 l 883 0 l 883 755 l 650 0 l 502 0 z "},"N":{"ha":898,"x_min":93,"x_max":806,"o":"m 806 926 l 806 0 l 621 0 l 258 625 q 259 594 258 602 q 262 554 262 570 l 262 0 l 93 0 l 93 926 l 327 926 l 642 380 q 638 441 638 420 l 638 926 l 806 926 z "},"O":{"ha":888,"x_min":49,"x_max":840,"o":"m 441 -14 q 151 126 254 -14 q 49 466 49 267 q 153 804 49 669 q 448 940 256 940 q 741 795 642 940 q 840 464 840 650 q 738 124 840 262 q 441 -14 636 -14 m 447 763 q 276 463 276 763 q 447 163 276 163 q 612 463 612 163 q 447 763 612 763 z "},"P":{"ha":838,"x_min":92,"x_max":810,"o":"m 313 344 l 313 0 l 92 0 l 92 926 l 457 926 q 644 900 579 926 q 760 806 709 873 q 810 642 810 739 q 783 508 810 573 q 707 406 756 443 q 611 356 657 368 q 465 344 564 344 l 313 344 m 305 512 l 446 512 q 559 549 527 512 q 592 635 592 587 q 556 724 592 691 q 446 758 519 758 l 305 758 l 305 512 z "},"Q":{"ha":894,"x_min":49,"x_max":845,"o":"m 814 -182 q 736 -191 774 -191 q 570 -138 612 -191 q 522 -4 528 -85 q 434 -10 469 -10 q 154 127 258 -10 q 49 463 49 264 q 150 799 49 657 q 448 940 251 940 q 743 799 642 940 q 845 461 845 659 q 787 197 845 302 q 650 46 729 92 q 732 -25 650 -25 q 814 -18 755 -25 l 814 -182 m 447 763 q 276 463 276 763 q 446 162 276 162 q 618 459 618 162 q 447 763 618 763 z "},"R":{"ha":913,"x_min":93,"x_max":848,"o":"m 311 367 l 311 0 l 93 0 l 93 926 l 500 926 q 681 900 612 926 q 793 804 749 873 q 838 648 838 734 q 677 409 838 481 l 848 0 l 609 0 l 467 367 l 311 367 m 311 761 l 311 525 l 444 525 q 539 534 509 525 q 591 575 568 543 q 614 647 614 606 q 591 716 614 686 q 541 754 568 747 q 439 761 514 761 l 311 761 z "},"S":{"ha":806,"x_min":0,"x_max":758,"o":"m 732 722 l 548 661 q 390 770 511 770 q 261 687 261 770 q 285 631 261 654 q 394 591 309 608 q 602 533 536 562 q 712 439 667 504 q 758 294 758 374 q 661 77 758 169 q 374 -14 564 -14 q 132 51 232 -14 q 0 243 32 115 l 201 288 q 389 159 235 159 q 500 188 464 159 q 537 256 537 216 q 504 319 537 297 q 376 361 471 342 q 123 461 199 398 q 48 647 48 525 q 138 855 48 770 q 382 940 228 940 q 732 722 654 940 z "},"T":{"ha":680,"x_min":0,"x_max":680,"o":"m 680 926 l 680 743 l 450 743 l 450 0 l 231 0 l 231 743 l 0 743 l 0 926 l 680 926 z "},"U":{"ha":902,"x_min":83,"x_max":823,"o":"m 823 926 l 823 349 q 791 141 823 210 q 673 30 759 73 q 454 -14 587 -14 q 241 25 320 -14 q 123 137 162 64 q 83 349 83 210 l 83 926 l 319 926 l 319 349 q 331 239 319 275 q 381 183 344 204 q 474 163 419 163 q 573 183 535 163 q 624 237 612 203 q 637 349 637 271 l 637 926 l 823 926 z "},"V":{"ha":772,"x_min":-9,"x_max":781,"o":"m 781 926 l 502 0 l 269 0 l -9 926 l 221 926 l 406 264 l 598 926 l 781 926 z "},"W":{"ha":1213,"x_min":9,"x_max":1204,"o":"m 1204 926 l 970 0 l 758 0 l 606 612 l 459 0 l 248 0 l 9 926 l 231 926 l 358 361 q 366 331 359 357 q 373 302 368 321 l 524 926 l 724 926 l 880 302 q 894 361 885 320 l 1025 926 l 1204 926 z "},"X":{"ha":833,"x_min":2,"x_max":830,"o":"m 797 926 l 544 496 l 830 0 l 579 0 l 393 336 l 208 0 l 2 0 l 288 492 l 35 926 l 287 926 l 437 644 l 594 926 l 797 926 z "},"Y":{"ha":724,"x_min":-37,"x_max":762,"o":"m 762 926 l 471 390 l 471 0 l 254 0 l 254 390 l -37 926 l 214 926 l 391 574 l 567 926 l 762 926 z "},"Z":{"ha":803,"x_min":28,"x_max":775,"o":"m 760 766 l 292 177 l 775 177 l 775 0 l 28 0 l 28 157 l 494 751 l 59 751 l 59 926 l 760 926 l 760 766 z "},"[":{"ha":408,"x_min":74,"x_max":366,"o":"m 366 -147 l 366 -231 l 74 -231 l 74 926 l 366 926 l 366 839 l 231 839 l 231 -147 l 366 -147 z "},"\\":{"ha":743,"x_min":37,"x_max":835,"o":"m 697 -231 l 37 926 l 174 926 l 835 -231 l 697 -231 z "},"]":{"ha":408,"x_min":42,"x_max":334,"o":"m 42 842 l 42 926 l 334 926 l 334 -231 l 42 -231 l 42 -144 l 176 -144 l 176 842 l 42 842 z "},"^":{"ha":694,"x_min":6,"x_max":688,"o":"m 201 465 l 6 465 l 225 932 l 469 932 l 688 465 l 494 465 l 347 783 l 201 465 z "},"_":{"ha":694,"x_min":0,"x_max":694,"o":"m 0 -64 l 694 -64 l 694 -226 l 0 -226 l 0 -64 z "},"`":{"ha":694,"x_min":158,"x_max":490,"o":"m 210 1028 l 490 863 l 456 787 l 158 914 l 210 1028 z "},"a":{"ha":752,"x_min":42,"x_max":682,"o":"m 682 0 l 486 0 q 476 107 476 41 q 373 10 425 34 q 257 -14 322 -14 q 101 38 161 -14 q 42 178 42 90 q 77 297 42 243 q 188 382 111 351 q 467 428 264 413 l 467 467 q 368 567 467 567 q 249 467 261 567 l 62 485 q 173 650 81 602 q 382 699 265 699 q 513 683 452 699 q 610 634 575 667 q 656 565 644 602 q 669 439 669 529 l 669 128 q 682 0 669 39 m 467 328 q 255 200 255 307 q 277 138 255 164 q 341 112 300 112 q 431 156 395 112 q 467 266 467 201 l 467 328 z "},"b":{"ha":756,"x_min":83,"x_max":710,"o":"m 286 926 l 286 599 q 455 699 340 699 q 642 604 573 699 q 710 342 710 509 q 640 84 710 182 q 436 -14 569 -14 q 323 9 367 -14 q 236 105 280 33 q 191 0 217 85 l 83 0 l 83 926 l 286 926 m 286 271 q 316 163 286 199 q 388 126 346 126 q 471 171 438 126 q 503 343 503 215 q 470 526 503 489 q 393 564 436 564 q 315 522 344 564 q 286 402 286 479 l 286 271 z "},"c":{"ha":711,"x_min":44,"x_max":686,"o":"m 686 257 q 590 61 674 136 q 372 -14 505 -14 q 135 82 227 -14 q 44 338 44 178 q 137 599 44 499 q 387 699 231 699 q 594 624 512 699 q 686 435 677 549 l 497 425 q 390 548 488 548 q 270 351 270 548 q 303 185 270 220 q 385 150 337 150 q 497 269 479 150 l 686 257 z "},"d":{"ha":749,"x_min":46,"x_max":665,"o":"m 665 926 l 665 0 l 479 0 l 479 107 q 290 -14 410 -14 q 112 78 177 -14 q 46 335 46 171 q 112 603 46 506 q 301 699 177 699 q 469 613 410 699 l 469 926 l 665 926 m 469 398 q 372 559 469 559 q 255 332 255 559 q 364 129 255 129 q 438 165 406 129 q 469 270 469 202 l 469 398 z "},"e":{"ha":743,"x_min":44,"x_max":699,"o":"m 699 309 l 258 309 q 257 277 257 290 q 296 166 257 203 q 389 129 335 129 q 511 237 490 129 l 694 223 q 382 -14 617 -14 q 209 27 280 -14 q 91 146 137 68 q 44 335 44 225 q 137 599 44 498 q 377 699 231 699 q 604 606 509 699 q 699 309 699 513 m 257 426 l 500 426 q 385 567 491 567 q 257 426 271 567 z "},"f":{"ha":444,"x_min":18,"x_max":435,"o":"m 294 528 l 294 0 l 98 0 l 98 528 l 18 528 l 18 685 l 98 685 q 113 839 99 791 q 184 925 127 888 q 341 963 242 963 q 435 956 382 963 l 435 800 q 363 803 391 803 q 308 781 321 803 q 294 711 294 760 l 294 685 l 418 685 l 418 528 l 294 528 z "},"g":{"ha":768,"x_min":14,"x_max":768,"o":"m 768 669 q 714 676 736 676 q 635 616 647 676 q 690 486 690 559 q 609 332 690 389 q 376 274 528 274 q 270 284 321 274 q 235 232 235 264 q 264 185 235 197 q 405 168 294 174 q 623 149 563 160 q 723 93 682 137 q 764 -17 764 49 q 676 -176 764 -111 q 368 -241 589 -241 q 87 -196 159 -241 q 14 -82 14 -151 q 132 41 14 9 q 45 163 45 85 q 182 317 45 262 q 60 484 60 367 q 144 640 60 580 q 376 699 228 699 q 557 669 469 699 q 591 765 563 728 q 711 803 619 803 q 768 798 741 803 l 768 669 m 374 590 q 293 562 322 590 q 263 488 263 534 q 375 383 263 383 q 460 414 429 383 q 491 488 491 444 q 462 559 491 528 q 374 590 433 590 m 239 5 q 209 -12 227 5 q 190 -51 190 -28 q 249 -109 190 -97 q 387 -120 308 -120 q 533 -104 491 -120 q 574 -54 574 -89 q 539 -14 574 -28 q 353 1 505 1 l 313 0 q 262 2 275 0 q 239 5 248 5 z "},"h":{"ha":755,"x_min":83,"x_max":672,"o":"m 279 926 l 279 591 q 465 699 335 699 q 583 669 534 699 q 652 591 632 639 q 672 452 672 544 l 672 0 l 471 0 l 471 386 q 465 481 471 455 q 440 524 460 507 q 392 541 421 541 q 317 512 354 541 q 279 386 279 482 l 279 0 l 83 0 l 83 926 l 279 926 z "},"i":{"ha":368,"x_min":83,"x_max":286,"o":"m 286 685 l 286 0 l 83 0 l 83 685 l 286 685 m 286 945 l 286 743 l 83 743 l 83 945 l 286 945 z "},"j":{"ha":373,"x_min":-42,"x_max":290,"o":"m 290 685 l 290 37 q 288 -62 290 -17 q 264 -153 287 -107 q 191 -223 241 -199 q 68 -248 141 -248 q -42 -236 27 -248 l -42 -77 q 5 -81 -10 -81 q 64 -57 45 -81 q 83 37 83 -33 l 83 685 l 290 685 m 290 945 l 290 741 l 83 741 l 83 945 l 290 945 z "},"k":{"ha":754,"x_min":83,"x_max":759,"o":"m 536 453 l 759 0 l 536 0 l 393 311 l 274 175 l 274 0 l 83 0 l 83 926 l 274 926 l 274 371 l 304 408 q 336 450 323 434 l 536 685 l 732 685 l 536 453 z "},"l":{"ha":368,"x_min":83,"x_max":286,"o":"m 83 0 l 83 926 l 286 926 l 286 0 l 83 0 z "},"m":{"ha":1145,"x_min":83,"x_max":1061,"o":"m 1061 0 l 859 0 l 859 379 q 854 483 859 459 q 830 523 850 507 q 774 539 810 539 q 707 515 741 539 q 672 379 672 492 l 672 0 l 471 0 l 471 379 q 463 485 471 461 q 435 524 456 509 q 382 539 414 539 q 305 506 330 539 q 279 379 279 473 l 279 0 l 83 0 l 83 685 l 273 685 l 273 581 q 466 699 321 699 q 655 581 597 699 q 854 699 712 699 q 970 671 922 699 q 1040 599 1019 644 q 1061 445 1061 554 l 1061 0 z "},"n":{"ha":762,"x_min":83,"x_max":679,"o":"m 679 0 l 477 0 l 477 385 q 471 480 477 454 q 445 524 466 506 q 392 542 424 542 q 286 385 286 542 l 286 0 l 83 0 l 83 685 l 271 685 l 271 569 q 363 675 318 652 q 462 699 409 699 q 619 647 559 699 q 679 440 679 594 l 679 0 z "},"o":{"ha":743,"x_min":44,"x_max":700,"o":"m 368 699 q 612 597 524 699 q 700 340 700 494 q 609 87 700 189 q 366 -14 517 -14 q 132 86 220 -14 q 44 344 44 186 q 84 529 44 453 q 193 652 123 606 q 368 699 262 699 m 373 567 q 286 523 315 567 q 257 346 257 478 q 285 172 257 224 q 372 119 313 119 q 455 164 423 119 q 487 336 487 209 q 459 519 487 471 q 373 567 431 567 z "},"p":{"ha":749,"x_min":83,"x_max":703,"o":"m 83 -231 l 83 685 l 269 685 l 269 585 q 450 699 321 699 q 632 610 561 699 q 703 351 703 521 q 631 78 703 170 q 445 -14 559 -14 q 279 76 329 -14 l 279 -231 l 83 -231 m 279 300 q 288 199 279 227 q 326 150 297 172 q 387 127 354 127 q 461 170 429 127 q 494 357 494 212 q 387 559 494 559 q 313 524 346 559 q 279 401 279 488 l 279 300 z "},"q":{"ha":755,"x_min":46,"x_max":682,"o":"m 682 685 q 672 591 672 624 l 672 -231 l 475 -231 l 475 71 q 313 -14 412 -14 q 116 81 186 -14 q 46 342 46 176 q 120 604 46 509 q 328 699 195 699 q 521 591 458 699 q 572 685 554 635 l 682 685 m 475 420 q 445 524 475 486 q 372 562 414 562 q 293 524 326 562 q 259 339 259 485 q 288 170 259 214 q 365 127 317 127 q 442 170 409 127 q 475 282 475 214 l 475 420 z "},"r":{"ha":482,"x_min":83,"x_max":453,"o":"m 279 0 l 83 0 l 83 685 l 269 685 l 269 557 q 416 700 311 700 q 453 698 431 700 l 453 498 q 357 479 391 498 q 301 411 323 460 q 279 279 279 362 l 279 0 z "},"s":{"ha":657,"x_min":7,"x_max":625,"o":"m 596 519 l 449 480 q 315 573 423 573 q 214 511 214 573 q 232 472 214 487 q 330 448 251 458 q 503 412 447 432 q 592 343 559 391 q 625 224 625 295 q 545 52 625 119 q 320 -14 465 -14 q 7 189 58 -14 l 178 214 q 330 121 199 121 q 414 139 380 121 q 449 188 449 157 q 372 244 449 235 q 99 324 165 270 q 34 474 34 378 q 110 635 34 572 q 323 699 186 699 q 496 656 431 699 q 596 519 562 614 z "},"t":{"ha":488,"x_min":1,"x_max":468,"o":"m 311 528 l 311 238 q 327 165 311 184 q 404 147 343 147 q 468 150 431 147 l 468 0 q 341 -15 380 -15 q 162 34 215 -15 q 109 209 109 82 l 109 528 l 1 528 l 1 685 l 121 685 l 137 887 l 311 901 l 311 685 l 458 685 l 458 528 l 311 528 z "},"u":{"ha":752,"x_min":83,"x_max":669,"o":"m 669 685 l 669 0 l 481 0 l 481 117 q 279 -14 429 -14 q 161 15 202 -14 q 101 93 119 43 q 83 237 83 143 l 83 685 l 279 685 l 279 237 q 355 145 279 145 q 422 167 394 145 q 459 214 451 189 q 467 300 467 239 l 467 685 l 669 685 z "},"v":{"ha":627,"x_min":-5,"x_max":622,"o":"m 622 685 l 387 0 l 230 0 l -5 685 l 205 685 l 337 251 l 472 685 l 622 685 z "},"w":{"ha":1002,"x_min":7,"x_max":989,"o":"m 989 685 l 783 0 l 605 0 l 496 441 l 389 0 l 218 0 l 7 685 l 218 685 l 330 267 l 434 685 l 617 685 l 718 264 l 833 685 l 989 685 z "},"x":{"ha":686,"x_min":0,"x_max":686,"o":"m 652 685 l 455 368 l 686 0 l 455 0 l 313 236 l 173 0 l 0 0 l 226 368 l 31 685 l 262 685 l 371 500 l 479 685 l 652 685 z "},"y":{"ha":618,"x_min":-5,"x_max":614,"o":"m 614 685 l 399 28 q 338 -131 363 -82 q 265 -210 313 -180 q 132 -239 217 -239 q 35 -231 89 -239 l 35 -76 q 134 -85 88 -85 q 214 -63 193 -85 q 244 0 234 -41 l -5 685 l 209 685 l 340 277 l 467 685 l 614 685 z "},"z":{"ha":595,"x_min":28,"x_max":567,"o":"m 553 685 l 553 559 l 248 147 l 567 147 l 567 0 l 28 0 l 28 147 l 330 547 l 53 547 l 53 685 l 553 685 z "},"{":{"ha":408,"x_min":56,"x_max":384,"o":"m 218 347 q 302 185 302 304 l 302 -60 q 310 -133 302 -117 q 359 -149 319 -149 l 384 -149 l 384 -229 q 321 -231 362 -229 q 292 -232 298 -232 q 171 -190 209 -232 q 133 -47 133 -149 l 133 205 q 114 286 133 262 q 56 317 96 309 l 56 391 q 133 488 133 401 l 133 741 q 171 885 133 843 q 292 926 209 926 q 321 925 298 926 q 384 923 353 924 l 384 843 l 363 844 q 312 830 323 844 q 302 754 302 816 l 302 509 q 289 425 302 468 q 218 347 277 381 z "},"|":{"ha":694,"x_min":252,"x_max":444,"o":"m 252 926 l 444 926 l 444 -231 l 252 -231 l 252 926 z "},"}":{"ha":408,"x_min":56,"x_max":384,"o":"m 222 347 q 138 509 138 391 l 138 754 q 130 827 138 811 q 81 844 121 844 l 56 843 l 56 923 q 119 925 77 923 q 149 926 142 926 q 273 882 238 926 q 307 741 307 837 l 307 489 q 332 402 307 423 q 384 378 357 381 l 384 304 q 307 206 307 293 l 307 -47 q 269 -190 307 -149 q 148 -232 231 -232 q 119 -231 142 -232 q 56 -229 87 -229 l 56 -149 l 77 -149 q 128 -135 118 -149 q 138 -60 138 -121 l 138 186 q 151 271 138 227 q 222 347 164 314 z "},"~":{"ha":814,"x_min":69,"x_max":745,"o":"m 172 321 l 69 392 q 162 546 113 504 q 281 587 211 587 q 426 551 327 587 q 543 519 513 519 q 640 590 602 519 l 745 525 q 524 336 666 336 q 386 373 489 336 q 270 405 295 405 q 172 321 210 405 z "},"Ä":{"ha":844,"x_min":0,"x_max":838,"o":"m 548 926 l 838 0 l 604 0 l 548 191 l 248 191 l 190 0 l 0 0 l 296 926 l 548 926 m 300 361 l 497 361 l 399 686 l 300 361 m 519 1003 q 460 1027 482 1003 q 439 1081 439 1050 q 461 1136 439 1112 q 519 1160 484 1160 q 576 1139 552 1160 q 601 1082 601 1118 q 577 1024 601 1046 q 519 1003 553 1003 m 292 1003 q 234 1027 256 1003 q 212 1081 212 1050 q 235 1136 212 1112 q 292 1160 257 1160 q 349 1140 324 1160 q 374 1082 374 1119 q 350 1024 374 1046 q 292 1003 326 1003 z "},"Å":{"ha":844,"x_min":0,"x_max":838,"o":"m 548 926 l 838 0 l 604 0 l 548 191 l 248 191 l 190 0 l 0 0 l 296 926 l 548 926 m 300 361 l 497 361 l 399 686 l 300 361 m 418 983 q 327 1022 363 983 q 290 1110 290 1062 q 327 1198 290 1159 q 419 1238 363 1238 q 513 1200 475 1238 q 551 1112 551 1163 q 513 1021 551 1059 q 418 983 475 983 m 420 1059 q 459 1074 443 1059 q 475 1110 475 1089 q 459 1146 475 1131 q 421 1162 444 1162 q 382 1146 397 1162 q 366 1110 366 1131 q 382 1074 366 1089 q 420 1059 398 1059 z "},"Ç":{"ha":871,"x_min":49,"x_max":840,"o":"m 458 -14 l 439 -70 q 477 -66 461 -66 q 567 -99 530 -66 q 605 -180 605 -131 q 559 -269 605 -237 q 453 -302 514 -302 q 283 -256 363 -302 l 307 -198 q 415 -231 376 -231 q 463 -216 446 -231 q 480 -179 480 -201 q 458 -138 480 -153 q 401 -123 435 -123 q 347 -130 384 -123 l 384 -7 q 136 149 222 24 q 49 463 49 273 q 160 806 49 673 q 464 940 271 940 q 840 581 798 940 l 612 567 q 460 763 608 763 q 290 461 290 763 q 336 225 290 287 q 465 163 382 163 q 629 338 600 163 l 840 325 q 458 -14 791 -5 z "},"É":{"ha":791,"x_min":92,"x_max":754,"o":"m 754 749 l 313 749 l 313 559 l 660 559 l 660 385 l 313 385 l 313 183 l 754 183 l 754 0 l 92 0 l 92 926 l 754 926 l 754 749 m 596 1242 l 648 1128 l 349 1002 l 315 1078 l 596 1242 z "},"Ñ":{"ha":898,"x_min":93,"x_max":806,"o":"m 806 926 l 806 0 l 621 0 l 258 625 q 259 594 258 602 q 262 554 262 570 l 262 0 l 93 0 l 93 926 l 327 926 l 642 380 q 638 441 638 420 l 638 926 l 806 926 m 690 1116 q 540 1029 624 1029 q 431 1061 499 1029 q 377 1076 398 1076 q 290 1031 335 1076 l 232 1108 q 376 1182 300 1182 q 476 1155 419 1182 q 538 1135 517 1135 q 633 1192 585 1135 l 690 1116 z "},"Ö":{"ha":888,"x_min":49,"x_max":840,"o":"m 441 -14 q 151 126 254 -14 q 49 466 49 267 q 153 804 49 669 q 448 940 256 940 q 741 795 642 940 q 840 464 840 650 q 738 124 840 262 q 441 -14 636 -14 m 447 763 q 276 463 276 763 q 447 163 276 163 q 612 463 612 163 q 447 763 612 763 m 565 1025 q 507 1048 528 1025 q 485 1103 485 1072 q 508 1158 485 1134 q 566 1182 530 1182 q 623 1161 598 1182 q 647 1103 647 1140 q 623 1046 647 1067 q 565 1025 599 1025 m 338 1025 q 280 1048 302 1025 q 258 1103 258 1072 q 281 1158 258 1134 q 338 1182 303 1182 q 395 1161 370 1182 q 420 1103 420 1141 q 396 1046 420 1067 q 338 1025 372 1025 z "},"Ü":{"ha":902,"x_min":83,"x_max":823,"o":"m 823 926 l 823 349 q 791 141 823 210 q 673 30 759 73 q 454 -14 587 -14 q 241 25 320 -14 q 123 137 162 64 q 83 349 83 210 l 83 926 l 319 926 l 319 349 q 331 239 319 275 q 381 183 344 204 q 474 163 419 163 q 573 183 535 163 q 624 237 612 203 q 637 349 637 271 l 637 926 l 823 926 m 576 1027 q 517 1051 539 1027 q 496 1105 496 1075 q 518 1161 496 1137 q 576 1185 541 1185 q 633 1164 609 1185 q 658 1106 658 1143 q 634 1049 658 1070 q 576 1027 610 1027 m 349 1027 q 291 1051 313 1027 q 269 1105 269 1075 q 292 1161 269 1137 q 349 1185 314 1185 q 406 1164 381 1185 q 431 1106 431 1143 q 407 1049 431 1070 q 349 1027 383 1027 z "},"á":{"ha":752,"x_min":42,"x_max":682,"o":"m 682 0 l 486 0 q 476 107 476 41 q 373 10 425 34 q 257 -14 322 -14 q 101 38 161 -14 q 42 178 42 90 q 77 297 42 243 q 188 382 111 351 q 467 428 264 413 l 467 467 q 368 567 467 567 q 249 467 261 567 l 62 485 q 173 650 81 602 q 382 699 265 699 q 513 683 452 699 q 610 634 575 667 q 656 565 644 602 q 669 439 669 529 l 669 128 q 682 0 669 39 m 467 328 q 255 200 255 307 q 277 138 255 164 q 341 112 300 112 q 431 156 395 112 q 467 266 467 201 l 467 328 m 555 1028 l 607 914 l 309 787 l 275 863 l 555 1028 z "},"à":{"ha":752,"x_min":42,"x_max":682,"o":"m 682 0 l 486 0 q 476 107 476 41 q 373 10 425 34 q 257 -14 322 -14 q 101 38 161 -14 q 42 178 42 90 q 77 297 42 243 q 188 382 111 351 q 467 428 264 413 l 467 467 q 368 567 467 567 q 249 467 261 567 l 62 485 q 173 650 81 602 q 382 699 265 699 q 513 683 452 699 q 610 634 575 667 q 656 565 644 602 q 669 439 669 529 l 669 128 q 682 0 669 39 m 467 328 q 255 200 255 307 q 277 138 255 164 q 341 112 300 112 q 431 156 395 112 q 467 266 467 201 l 467 328 m 215 1028 l 496 863 l 462 787 l 163 914 l 215 1028 z "},"â":{"ha":752,"x_min":42,"x_max":682,"o":"m 682 0 l 486 0 q 476 107 476 41 q 373 10 425 34 q 257 -14 322 -14 q 101 38 161 -14 q 42 178 42 90 q 77 297 42 243 q 188 382 111 351 q 467 428 264 413 l 467 467 q 368 567 467 567 q 249 467 261 567 l 62 485 q 173 650 81 602 q 382 699 265 699 q 513 683 452 699 q 610 634 575 667 q 656 565 644 602 q 669 439 669 529 l 669 128 q 682 0 669 39 m 467 328 q 255 200 255 307 q 277 138 255 164 q 341 112 300 112 q 431 156 395 112 q 467 266 467 201 l 467 328 m 629 806 l 492 791 l 380 885 l 269 791 l 132 806 l 380 1019 l 629 806 z "},"ä":{"ha":752,"x_min":42,"x_max":682,"o":"m 682 0 l 486 0 q 476 107 476 41 q 373 10 425 34 q 257 -14 322 -14 q 101 38 161 -14 q 42 178 42 90 q 77 297 42 243 q 188 382 111 351 q 467 428 264 413 l 467 467 q 368 567 467 567 q 249 467 261 567 l 62 485 q 173 650 81 602 q 382 699 265 699 q 513 683 452 699 q 610 634 575 667 q 656 565 644 602 q 669 439 669 529 l 669 128 q 682 0 669 39 m 467 328 q 255 200 255 307 q 277 138 255 164 q 341 112 300 112 q 431 156 395 112 q 467 266 467 201 l 467 328 m 492 808 q 434 831 456 808 q 412 886 412 855 q 435 941 412 917 q 493 965 458 965 q 550 944 526 965 q 574 886 574 923 q 550 829 574 850 q 492 808 526 808 m 266 808 q 208 831 229 808 q 186 886 186 855 q 208 941 186 917 q 266 965 231 965 q 323 944 298 965 q 348 886 348 924 q 324 829 348 850 q 266 808 300 808 z "},"ã":{"ha":752,"x_min":42,"x_max":682,"o":"m 682 0 l 486 0 q 476 107 476 41 q 373 10 425 34 q 257 -14 322 -14 q 101 38 161 -14 q 42 178 42 90 q 77 297 42 243 q 188 382 111 351 q 467 428 264 413 l 467 467 q 368 567 467 567 q 249 467 261 567 l 62 485 q 173 650 81 602 q 382 699 265 699 q 513 683 452 699 q 610 634 575 667 q 656 565 644 602 q 669 439 669 529 l 669 128 q 682 0 669 39 m 467 328 q 255 200 255 307 q 277 138 255 164 q 341 112 300 112 q 431 156 395 112 q 467 266 467 201 l 467 328 m 614 894 q 464 806 548 806 q 355 838 423 806 q 301 853 322 853 q 214 809 259 853 l 156 886 q 300 960 224 960 q 400 932 343 960 q 462 913 441 913 q 557 969 509 913 l 614 894 z "},"å":{"ha":752,"x_min":42,"x_max":682,"o":"m 682 0 l 486 0 q 476 107 476 41 q 373 10 425 34 q 257 -14 322 -14 q 101 38 161 -14 q 42 178 42 90 q 77 297 42 243 q 188 382 111 351 q 467 428 264 413 l 467 467 q 368 567 467 567 q 249 467 261 567 l 62 485 q 173 650 81 602 q 382 699 265 699 q 513 683 452 699 q 610 634 575 667 q 656 565 644 602 q 669 439 669 529 l 669 128 q 682 0 669 39 m 467 328 q 255 200 255 307 q 277 138 255 164 q 341 112 300 112 q 431 156 395 112 q 467 266 467 201 l 467 328 m 378 771 q 287 811 323 771 q 250 899 250 850 q 287 987 250 947 q 379 1026 323 1026 q 473 989 435 1026 q 511 900 511 951 q 473 809 511 848 q 378 771 435 771 m 380 847 q 419 862 403 847 q 435 899 435 878 q 419 935 435 920 q 381 950 404 950 q 342 935 357 950 q 326 899 326 919 q 342 862 326 878 q 380 847 358 847 z "},"ç":{"ha":711,"x_min":44,"x_max":686,"o":"m 385 -14 l 366 -68 q 386 -66 379 -66 q 471 -96 437 -66 q 505 -168 505 -125 q 467 -250 505 -219 q 366 -280 429 -280 q 225 -240 296 -280 l 248 -182 q 340 -213 304 -213 q 389 -169 389 -213 q 367 -132 389 -145 q 316 -119 346 -119 q 280 -122 303 -119 l 319 -11 q 121 98 197 5 q 44 338 44 192 q 137 599 44 499 q 387 699 231 699 q 594 624 512 699 q 686 435 677 549 l 497 425 q 390 548 488 548 q 270 351 270 548 q 303 185 270 220 q 385 150 337 150 q 497 269 479 150 l 686 257 q 385 -14 652 4 z "},"é":{"ha":743,"x_min":44,"x_max":699,"o":"m 699 309 l 258 309 q 257 277 257 290 q 296 166 257 203 q 389 129 335 129 q 511 237 490 129 l 694 223 q 382 -14 617 -14 q 209 27 280 -14 q 91 146 137 68 q 44 335 44 225 q 137 599 44 498 q 377 699 231 699 q 604 606 509 699 q 699 309 699 513 m 257 426 l 500 426 q 385 567 491 567 q 257 426 271 567 m 555 1028 l 607 914 l 309 787 l 275 863 l 555 1028 z "},"è":{"ha":743,"x_min":44,"x_max":699,"o":"m 699 309 l 258 309 q 257 277 257 290 q 296 166 257 203 q 389 129 335 129 q 511 237 490 129 l 694 223 q 382 -14 617 -14 q 209 27 280 -14 q 91 146 137 68 q 44 335 44 225 q 137 599 44 498 q 377 699 231 699 q 604 606 509 699 q 699 309 699 513 m 257 426 l 500 426 q 385 567 491 567 q 257 426 271 567 m 229 1028 l 510 863 l 476 787 l 178 914 l 229 1028 z "},"ê":{"ha":743,"x_min":44,"x_max":699,"o":"m 699 309 l 258 309 q 257 277 257 290 q 296 166 257 203 q 389 129 335 129 q 511 237 490 129 l 694 223 q 382 -14 617 -14 q 209 27 280 -14 q 91 146 137 68 q 44 335 44 225 q 137 599 44 498 q 377 699 231 699 q 604 606 509 699 q 699 309 699 513 m 257 426 l 500 426 q 385 567 491 567 q 257 426 271 567 m 638 806 l 500 791 l 389 885 l 278 791 l 141 806 l 389 1019 l 638 806 z "},"ë":{"ha":743,"x_min":44,"x_max":699,"o":"m 699 309 l 258 309 q 257 277 257 290 q 296 166 257 203 q 389 129 335 129 q 511 237 490 129 l 694 223 q 382 -14 617 -14 q 209 27 280 -14 q 91 146 137 68 q 44 335 44 225 q 137 599 44 498 q 377 699 231 699 q 604 606 509 699 q 699 309 699 513 m 257 426 l 500 426 q 385 567 491 567 q 257 426 271 567 m 502 808 q 444 831 465 808 q 422 886 422 855 q 445 941 422 917 q 503 965 467 965 q 559 944 535 965 q 584 886 584 923 q 560 829 584 850 q 502 808 536 808 m 275 808 q 217 831 239 808 q 195 886 195 855 q 218 941 195 917 q 275 965 240 965 q 332 944 307 965 q 357 886 357 924 q 333 829 357 850 q 275 808 309 808 z "},"í":{"ha":368,"x_min":60,"x_max":393,"o":"m 286 685 l 286 0 l 83 0 l 83 685 l 286 685 m 341 1028 l 393 914 l 94 787 l 60 863 l 341 1028 z "},"ì":{"ha":368,"x_min":-24,"x_max":309,"o":"m 286 685 l 286 0 l 83 0 l 83 685 l 286 685 m 28 1028 l 309 863 l 275 787 l -24 914 l 28 1028 z "},"î":{"ha":368,"x_min":-64,"x_max":433,"o":"m 286 685 l 286 0 l 83 0 l 83 685 l 286 685 m 433 806 l 296 791 l 184 885 l 73 791 l -64 806 l 184 1019 l 433 806 z "},"ï":{"ha":368,"x_min":4,"x_max":393,"o":"m 288 685 l 288 0 l 85 0 l 85 685 l 288 685 m 311 808 q 252 832 274 808 q 231 886 231 856 q 253 942 231 918 q 311 966 276 966 q 368 945 344 966 q 393 887 393 924 q 369 830 393 851 q 311 808 345 808 m 84 808 q 26 832 47 808 q 4 886 4 856 q 26 942 4 918 q 84 966 49 966 q 141 945 116 966 q 166 887 166 924 q 142 830 166 851 q 84 808 118 808 z "},"ñ":{"ha":762,"x_min":83,"x_max":679,"o":"m 679 0 l 477 0 l 477 385 q 471 480 477 454 q 445 524 466 506 q 392 542 424 542 q 286 385 286 542 l 286 0 l 83 0 l 83 685 l 271 685 l 271 569 q 363 675 318 652 q 462 699 409 699 q 619 647 559 699 q 679 440 679 594 l 679 0 m 601 894 q 450 806 534 806 q 342 838 410 806 q 288 853 309 853 q 200 809 245 853 l 142 886 q 286 960 210 960 q 387 932 330 960 q 448 913 427 913 q 544 969 495 913 l 601 894 z "},"ó":{"ha":743,"x_min":44,"x_max":700,"o":"m 368 699 q 612 597 524 699 q 700 340 700 494 q 609 87 700 189 q 366 -14 517 -14 q 132 86 220 -14 q 44 344 44 186 q 84 529 44 453 q 193 652 123 606 q 368 699 262 699 m 373 567 q 286 523 315 567 q 257 346 257 478 q 285 172 257 224 q 372 119 313 119 q 455 164 423 119 q 487 336 487 209 q 459 519 487 471 q 373 567 431 567 m 542 1028 l 593 914 l 295 787 l 261 863 l 542 1028 z "},"ò":{"ha":743,"x_min":44,"x_max":700,"o":"m 368 699 q 612 597 524 699 q 700 340 700 494 q 609 87 700 189 q 366 -14 517 -14 q 132 86 220 -14 q 44 344 44 186 q 84 529 44 453 q 193 652 123 606 q 368 699 262 699 m 373 567 q 286 523 315 567 q 257 346 257 478 q 285 172 257 224 q 372 119 313 119 q 455 164 423 119 q 487 336 487 209 q 459 519 487 471 q 373 567 431 567 m 220 1028 l 501 863 l 467 787 l 169 914 l 220 1028 z "},"ô":{"ha":743,"x_min":44,"x_max":700,"o":"m 368 699 q 612 597 524 699 q 700 340 700 494 q 609 87 700 189 q 366 -14 517 -14 q 132 86 220 -14 q 44 344 44 186 q 84 529 44 453 q 193 652 123 606 q 368 699 262 699 m 373 567 q 286 523 315 567 q 257 346 257 478 q 285 172 257 224 q 372 119 313 119 q 455 164 423 119 q 487 336 487 209 q 459 519 487 471 q 373 567 431 567 m 625 806 l 488 791 l 376 885 l 265 791 l 128 806 l 376 1019 l 625 806 z "},"ö":{"ha":743,"x_min":44,"x_max":700,"o":"m 368 699 q 612 597 524 699 q 700 340 700 494 q 609 87 700 189 q 366 -14 517 -14 q 132 86 220 -14 q 44 344 44 186 q 84 529 44 453 q 193 652 123 606 q 368 699 262 699 m 373 567 q 286 523 315 567 q 257 346 257 478 q 285 172 257 224 q 372 119 313 119 q 455 164 423 119 q 487 336 487 209 q 459 519 487 471 q 373 567 431 567 m 488 808 q 430 831 452 808 q 408 886 408 855 q 431 941 408 917 q 489 965 454 965 q 546 944 522 965 q 570 886 570 923 q 546 829 570 850 q 488 808 522 808 m 262 808 q 203 831 225 808 q 182 886 182 855 q 204 941 182 917 q 262 965 227 965 q 319 944 294 965 q 344 886 344 924 q 320 829 344 850 q 262 808 296 808 z "},"õ":{"ha":743,"x_min":44,"x_max":700,"o":"m 368 699 q 612 597 524 699 q 700 340 700 494 q 609 87 700 189 q 366 -14 517 -14 q 132 86 220 -14 q 44 344 44 186 q 84 529 44 453 q 193 652 123 606 q 368 699 262 699 m 373 567 q 286 523 315 567 q 257 346 257 478 q 285 172 257 224 q 372 119 313 119 q 455 164 423 119 q 487 336 487 209 q 459 519 487 471 q 373 567 431 567 m 610 894 q 460 806 544 806 q 351 838 419 806 q 297 853 318 853 q 210 809 255 853 l 152 886 q 296 960 220 960 q 396 932 339 960 q 458 913 437 913 q 553 969 505 913 l 610 894 z "},"ú":{"ha":752,"x_min":83,"x_max":669,"o":"m 669 685 l 669 0 l 481 0 l 481 117 q 279 -14 429 -14 q 161 15 202 -14 q 101 93 119 43 q 83 237 83 143 l 83 685 l 279 685 l 279 237 q 355 145 279 145 q 422 167 394 145 q 459 214 451 189 q 467 300 467 239 l 467 685 l 669 685 m 551 1028 l 602 914 l 304 787 l 270 863 l 551 1028 z "},"ù":{"ha":752,"x_min":83,"x_max":669,"o":"m 669 685 l 669 0 l 481 0 l 481 117 q 279 -14 429 -14 q 161 15 202 -14 q 101 93 119 43 q 83 237 83 143 l 83 685 l 279 685 l 279 237 q 355 145 279 145 q 422 167 394 145 q 459 214 451 189 q 467 300 467 239 l 467 685 l 669 685 m 201 1028 l 482 863 l 448 787 l 150 914 l 201 1028 z "},"û":{"ha":752,"x_min":83,"x_max":669,"o":"m 669 685 l 669 0 l 481 0 l 481 117 q 279 -14 429 -14 q 161 15 202 -14 q 101 93 119 43 q 83 237 83 143 l 83 685 l 279 685 l 279 237 q 355 145 279 145 q 422 167 394 145 q 459 214 451 189 q 467 300 467 239 l 467 685 l 669 685 m 623 806 l 485 791 l 374 885 l 262 791 l 125 806 l 374 1019 l 623 806 z "},"ü":{"ha":752,"x_min":83,"x_max":669,"o":"m 669 685 l 669 0 l 481 0 l 481 117 q 279 -14 429 -14 q 161 15 202 -14 q 101 93 119 43 q 83 237 83 143 l 83 685 l 279 685 l 279 237 q 355 145 279 145 q 422 167 394 145 q 459 214 451 189 q 467 300 467 239 l 467 685 l 669 685 m 486 808 q 428 831 450 808 q 406 886 406 855 q 429 941 406 917 q 487 965 452 965 q 544 944 519 965 q 568 886 568 923 q 544 829 568 850 q 486 808 520 808 m 260 808 q 201 831 223 808 q 180 886 180 855 q 202 941 180 917 q 260 965 224 965 q 317 944 292 965 q 342 886 342 924 q 318 829 342 850 q 260 808 294 808 z "},"†":{"ha":814,"x_min":73,"x_max":743,"o":"m 73 525 l 73 684 l 313 684 l 313 926 l 503 926 l 503 684 l 743 684 l 743 525 l 503 525 l 503 -223 l 313 -223 l 313 525 l 73 525 z "},"°":{"ha":814,"x_min":214,"x_max":600,"o":"m 409 553 q 272 611 329 553 q 214 750 214 669 q 271 887 214 830 q 406 945 327 945 q 544 886 487 945 q 600 748 600 828 q 544 610 600 667 q 409 553 488 553 m 408 654 q 473 682 446 654 q 500 749 500 710 q 473 816 500 788 q 408 844 446 844 q 341 817 369 844 q 314 750 314 789 q 342 682 314 710 q 408 654 370 654 z "},"¢":{"ha":814,"x_min":113,"x_max":730,"o":"m 726 387 q 488 139 697 177 l 488 -37 l 378 -37 l 378 139 q 229 202 288 153 q 142 320 170 252 q 113 471 113 389 q 186 705 113 614 q 378 806 259 796 l 378 950 l 488 950 l 488 806 q 730 559 695 777 l 551 549 q 439 669 535 669 q 315 463 315 669 q 346 331 315 380 q 439 281 377 281 q 551 400 539 281 l 726 387 z "},"£":{"ha":814,"x_min":9,"x_max":788,"o":"m 75 565 l 182 565 q 172 663 172 627 q 253 867 172 794 q 466 940 334 940 q 734 764 670 940 l 560 695 q 468 784 538 784 q 408 760 435 784 q 381 677 381 735 q 394 565 381 648 l 546 565 l 546 422 l 410 422 q 388 280 410 332 q 304 173 366 229 l 443 173 q 600 302 563 173 l 788 246 q 451 0 723 0 l 9 0 l 9 173 l 70 173 q 179 219 144 173 q 214 328 214 264 q 203 422 214 362 l 75 422 l 75 565 z "},"§":{"ha":814,"x_min":80,"x_max":734,"o":"m 250 -9 q 427 -111 317 -111 q 524 -88 488 -111 q 559 -31 559 -65 q 526 35 559 5 q 354 115 492 65 q 210 177 256 151 q 135 250 164 203 q 106 357 106 296 q 198 562 106 475 q 131 708 131 616 q 208 873 131 807 q 422 940 284 940 q 717 770 639 940 l 572 730 q 422 814 538 814 q 336 793 365 814 q 308 743 308 772 q 339 691 308 710 q 509 618 370 671 q 625 563 585 589 q 692 493 666 537 q 718 389 718 448 q 632 201 718 283 q 734 17 734 137 q 648 -174 734 -102 q 418 -245 561 -245 q 209 -196 301 -245 q 80 -40 117 -146 l 250 -9 m 500 265 q 551 342 551 302 q 528 395 551 368 q 412 458 505 422 l 329 492 q 275 416 275 462 q 312 349 275 379 q 500 265 350 319 z "},"•":{"ha":926,"x_min":272,"x_max":654,"o":"m 654 472 q 598 335 654 393 q 463 278 542 278 q 327 335 382 278 q 272 472 272 393 q 328 609 272 552 q 463 666 384 666 q 598 609 542 666 q 654 472 654 552 z "},"¶":{"ha":814,"x_min":1,"x_max":793,"o":"m 793 926 l 793 840 l 682 840 l 682 -231 l 601 -231 l 601 840 l 518 840 l 518 -231 l 432 -231 l 432 452 l 300 452 q 135 469 191 452 q 39 543 78 486 q 1 689 1 600 q 27 812 1 762 q 97 890 53 863 q 179 921 141 917 q 371 926 216 925 l 793 926 m 432 535 l 432 842 l 396 842 q 275 832 312 842 q 214 787 237 823 q 191 687 191 751 q 215 589 191 623 q 274 545 238 555 q 393 535 311 535 l 432 535 z "},"ß":{"ha":867,"x_min":18,"x_max":836,"o":"m 18 481 l 18 633 l 88 633 q 192 906 88 812 q 460 1001 296 1001 q 666 937 589 1001 q 743 786 743 873 q 692 665 743 717 q 578 598 642 614 q 499 577 509 581 q 489 568 489 573 q 563 534 489 559 q 675 488 637 507 q 755 430 713 469 q 816 347 797 391 q 836 254 836 304 q 748 64 836 142 q 513 -14 661 -14 q 357 14 438 -14 l 410 151 q 532 125 485 125 q 614 151 583 125 q 646 212 646 176 q 613 277 646 252 q 479 347 581 303 q 399 388 427 370 q 354 439 372 407 q 335 511 335 471 q 410 665 335 592 q 539 767 539 694 q 507 829 539 806 q 432 852 474 852 q 353 827 385 852 q 310 764 321 802 q 299 645 299 726 l 299 -81 l 88 -81 l 88 481 l 18 481 z "},"®":{"ha":1074,"x_min":60,"x_max":1015,"o":"m 538 -15 q 199 126 338 -15 q 60 463 60 267 q 199 799 60 658 q 538 940 339 940 q 877 798 739 940 q 1015 463 1015 655 q 877 128 1015 271 q 538 -15 739 -15 m 926 463 q 813 742 926 625 q 540 859 700 859 q 263 743 378 859 q 149 463 149 627 q 263 183 149 300 q 538 67 378 67 q 811 183 697 67 q 926 463 926 299 m 454 406 l 454 185 l 309 185 l 309 741 l 559 741 q 723 694 670 741 q 776 572 776 648 q 677 429 776 473 l 785 185 l 625 185 l 536 406 l 454 406 m 454 639 l 454 504 l 529 504 q 607 522 586 504 q 629 574 629 540 q 616 613 629 596 q 587 635 603 631 q 526 639 572 639 l 454 639 z "},"©":{"ha":1074,"x_min":60,"x_max":1015,"o":"m 538 -15 q 199 126 338 -15 q 60 463 60 267 q 199 799 60 658 q 538 940 339 940 q 877 798 739 940 q 1015 463 1015 655 q 877 128 1015 271 q 538 -15 739 -15 m 926 463 q 813 742 926 625 q 540 859 700 859 q 263 743 378 859 q 149 463 149 627 q 263 183 149 300 q 538 67 378 67 q 811 183 697 67 q 926 463 926 299 m 790 534 l 645 526 q 547 644 642 644 q 439 456 439 644 q 468 321 439 359 q 549 282 496 282 q 656 388 638 282 l 790 380 q 712 229 778 281 q 549 177 646 177 q 356 254 429 177 q 284 463 284 331 q 356 669 284 589 q 550 749 427 749 q 790 534 764 749 z "},"™":{"ha":1199,"x_min":-5,"x_max":1144,"o":"m 439 926 l 439 814 l 291 814 l 291 398 l 143 398 l 143 814 l -5 814 l -5 926 l 439 926 m 753 398 l 617 792 l 617 398 l 490 398 l 490 926 l 713 926 l 814 625 l 920 926 l 1144 926 l 1144 398 l 996 398 l 996 799 l 854 398 l 753 398 z "},"´":{"ha":694,"x_min":204,"x_max":536,"o":"m 485 1028 l 536 914 l 238 787 l 204 863 l 485 1028 z "},"¨":{"ha":694,"x_min":153,"x_max":541,"o":"m 459 808 q 401 831 422 808 q 379 886 379 855 q 402 941 379 917 q 460 965 425 965 q 517 944 492 965 q 541 886 541 923 q 517 829 541 850 q 459 808 493 808 m 233 808 q 174 831 196 808 q 153 886 153 855 q 175 941 153 917 q 233 965 197 965 q 290 944 264 965 q 315 886 315 924 q 291 829 315 850 q 233 808 267 808 z "},"≠":{"ha":814,"x_min":106,"x_max":708,"o":"m 422 658 l 500 812 l 621 749 l 573 658 l 708 658 l 708 488 l 497 488 l 450 397 l 708 397 l 708 227 l 375 227 l 306 92 l 186 155 l 223 227 l 106 227 l 106 397 l 298 397 l 346 488 l 106 488 l 106 658 l 422 658 z "},"Æ":{"ha":1171,"x_min":-9,"x_max":1133,"o":"m 1133 751 l 709 751 l 709 561 l 1048 561 l 1048 387 l 709 387 l 709 183 l 1133 183 l 1133 0 l 492 0 l 492 214 l 275 214 l 178 0 l -9 0 l 414 926 l 1133 926 l 1133 751 m 340 368 l 492 368 l 492 702 l 340 368 z "},"Ø":{"ha":888,"x_min":49,"x_max":840,"o":"m 804 1001 l 713 833 q 840 463 840 679 q 738 124 840 262 q 433 -14 635 -14 q 262 24 339 -14 l 207 -75 l 84 -75 l 177 95 q 49 460 49 241 q 149 799 49 659 q 450 940 248 940 q 623 903 546 940 l 681 1001 l 804 1001 m 295 307 l 535 736 q 446 763 497 763 q 311 671 347 763 q 275 446 275 578 q 295 307 275 366 m 353 192 q 452 163 387 163 q 612 460 612 163 q 595 625 612 553 l 353 192 z "},"∞":{"ha":990,"x_min":36,"x_max":954,"o":"m 443 453 q 551 604 491 568 q 694 640 610 640 q 879 561 804 640 q 954 357 954 482 q 879 151 954 231 q 717 72 803 72 q 601 115 652 72 q 489 267 550 157 q 269 109 410 109 q 102 179 168 109 q 36 358 36 250 q 96 536 36 465 q 244 607 157 607 q 345 578 298 607 q 443 453 392 550 m 509 315 q 600 179 552 222 q 720 136 648 136 q 860 198 805 136 q 916 357 916 260 q 859 519 916 452 q 724 587 802 587 q 657 573 686 587 q 607 531 629 558 q 564 452 585 503 l 509 315 m 416 378 l 424 400 q 243 546 359 546 q 121 494 168 546 q 74 359 74 442 q 119 219 74 276 q 229 161 164 161 q 331 205 285 161 q 416 378 376 250 z "},"±":{"ha":814,"x_min":64,"x_max":751,"o":"m 751 542 l 751 393 l 481 393 l 481 142 l 334 142 l 334 393 l 64 393 l 64 542 l 334 542 l 334 821 l 481 821 l 481 542 l 751 542 m 751 79 l 751 -69 l 64 -69 l 64 79 l 751 79 z "},"≤":{"ha":814,"x_min":93,"x_max":694,"o":"m 694 931 l 694 753 l 296 570 l 694 389 l 694 210 l 93 491 l 93 651 l 694 931 m 694 171 l 694 0 l 93 0 l 93 171 l 694 171 z "},"≥":{"ha":814,"x_min":120,"x_max":722,"o":"m 120 210 l 120 389 l 519 571 l 120 753 l 120 931 l 722 650 l 722 490 l 120 210 m 120 0 l 120 171 l 722 171 l 722 0 l 120 0 z "},"¥":{"ha":815,"x_min":26,"x_max":789,"o":"m 608 593 l 760 593 l 760 472 l 542 472 l 497 380 l 760 380 l 760 259 l 497 259 l 497 0 l 317 0 l 317 259 l 56 259 l 56 380 l 317 380 l 273 472 l 56 472 l 56 593 l 208 593 l 26 926 l 260 926 l 437 574 l 612 926 l 789 926 l 608 593 z "},"µ":{"ha":814,"x_min":97,"x_max":718,"o":"m 97 -231 l 97 685 l 299 685 l 299 327 q 307 209 299 248 q 342 146 315 171 q 406 121 369 121 q 488 162 459 121 q 516 327 516 203 l 516 685 l 718 685 l 718 0 l 555 0 l 551 103 q 415 -14 513 -14 q 335 15 370 -14 q 299 79 300 45 l 299 -231 l 97 -231 z "},"∂":{"ha":686,"x_min":45,"x_max":675,"o":"m 200 760 l 170 760 q 427 965 258 965 q 605 879 536 965 q 675 624 675 793 q 563 180 675 381 q 273 -21 452 -21 q 106 41 168 -21 q 45 207 45 102 q 158 492 45 369 q 418 615 271 615 q 629 486 568 615 l 632 486 q 639 612 639 584 q 576 800 639 731 q 404 868 513 868 q 200 760 273 868 m 618 427 q 425 579 563 579 q 231 450 304 579 q 158 179 158 321 q 195 62 158 106 q 292 18 231 18 q 481 129 384 18 q 618 427 578 239 z "},"∑":{"ha":990,"x_min":20,"x_max":965,"o":"m 965 161 q 928 -1 943 77 q 905 -150 913 -79 q 836 -139 863 -142 q 799 -135 809 -135 l 100 -135 q 60 -137 86 -135 q 20 -139 33 -139 l 504 414 l 22 1044 q 106 1037 70 1040 q 167 1035 142 1035 l 857 1035 l 865 814 l 838 814 q 802 909 817 883 q 747 954 787 936 q 696 968 726 963 q 625 972 666 972 l 260 972 l 639 475 l 231 4 l 746 4 q 866 39 832 4 q 933 161 901 75 l 965 161 z "},"∏":{"ha":1143,"x_min":35,"x_max":1116,"o":"m 1116 -140 l 689 -140 l 689 -109 q 797 -81 770 -109 q 824 4 824 -53 l 824 966 l 326 966 l 326 4 q 353 -81 326 -53 q 461 -109 380 -109 l 461 -140 l 35 -140 l 35 -109 q 143 -81 117 -109 q 170 4 170 -53 l 170 873 q 137 977 170 942 q 37 1011 104 1011 l 37 1043 l 1113 1043 l 1113 1011 q 1014 977 1046 1011 q 981 873 981 942 l 981 4 q 1007 -81 981 -53 q 1116 -109 1033 -109 l 1116 -140 z "},"":{"ha":812,"x_min":25,"x_max":787,"o":"m 106 0 l 106 538 l 25 538 l 25 685 l 787 685 l 787 538 l 707 538 l 707 0 l 505 0 l 505 538 l 307 538 l 307 0 l 106 0 z "},"∫":{"ha":380,"x_min":7,"x_max":408,"o":"m 408 1194 q 388 1150 408 1167 q 337 1133 368 1133 q 296 1150 312 1133 q 267 1167 281 1167 q 248 1157 254 1167 q 241 1128 241 1147 q 255 954 241 1105 q 268 581 268 804 q 248 99 268 238 q 194 -92 227 -39 q 148 -134 176 -120 q 90 -149 120 -149 q 32 -125 57 -149 q 7 -67 7 -101 q 24 -23 7 -41 q 68 -5 41 -5 q 112 -27 91 -5 q 142 -50 134 -50 q 169 -19 159 -50 q 179 85 179 11 q 175 218 179 110 q 171 600 171 327 q 182 1033 171 926 q 210 1179 194 1139 q 257 1249 230 1226 q 314 1272 284 1272 q 380 1250 353 1272 q 408 1194 408 1228 z "},"ª":{"ha":494,"x_min":33,"x_max":446,"o":"m 446 523 l 309 523 q 302 571 302 557 q 173 515 256 515 q 72 547 111 515 q 33 632 33 578 q 81 732 33 691 q 296 784 130 774 l 296 803 q 241 857 296 857 q 175 798 180 857 l 44 810 q 255 945 64 945 q 367 923 323 945 q 424 873 411 901 q 436 786 436 845 l 436 603 q 446 523 436 551 m 296 715 q 180 646 180 703 q 225 598 180 598 q 276 623 256 598 q 296 684 296 648 l 296 715 z "},"º":{"ha":489,"x_min":34,"x_max":455,"o":"m 242 945 q 398 884 342 945 q 455 729 455 823 q 396 576 455 637 q 241 515 338 515 q 93 574 152 515 q 34 731 34 632 q 95 889 34 833 q 242 945 155 945 m 245 858 q 195 829 210 858 q 181 732 181 801 q 244 603 181 603 q 309 728 309 603 q 292 832 309 806 q 245 858 275 858 z "},"Ω":{"ha":1067,"x_min":47,"x_max":1021,"o":"m 1021 0 l 612 0 l 634 211 q 787 347 743 251 q 831 559 831 442 q 759 812 831 713 q 534 911 686 911 q 310 812 382 911 q 237 559 237 713 q 281 347 237 442 q 435 211 326 251 l 457 0 l 47 0 l 47 225 l 68 225 q 95 160 79 180 q 160 140 111 140 l 379 140 l 376 179 q 145 329 215 223 q 75 554 75 435 q 205 843 75 730 q 534 956 336 956 q 863 843 733 956 q 994 554 994 730 q 924 329 994 435 q 692 179 854 223 l 690 140 l 909 140 q 974 160 958 140 q 1001 225 990 180 l 1021 225 l 1021 0 z "},"æ":{"ha":1112,"x_min":41,"x_max":1067,"o":"m 1067 309 l 644 309 q 680 166 644 201 q 769 130 717 130 q 890 236 869 130 l 1067 221 q 765 -14 1005 -14 q 505 109 601 -14 q 251 -14 408 -14 q 98 41 155 -14 q 41 177 41 96 q 117 343 41 278 q 462 428 193 409 l 462 481 q 362 567 462 567 q 247 464 258 567 l 64 481 q 172 648 81 597 q 372 699 262 699 q 573 636 492 699 q 759 699 654 699 q 977 612 887 699 q 1067 309 1067 524 m 644 428 l 880 428 q 846 537 873 508 q 768 567 819 567 q 644 428 661 567 m 462 328 q 249 201 249 317 q 272 139 249 165 q 334 113 295 113 q 424 156 387 113 q 462 263 462 199 l 462 328 z "},"ø":{"ha":743,"x_min":44,"x_max":700,"o":"m 661 756 l 587 622 q 700 340 700 520 q 610 87 700 189 q 370 -14 519 -14 q 241 7 311 -14 l 191 -71 l 81 -71 l 155 63 q 44 340 44 167 q 127 594 44 490 q 368 699 210 699 q 503 675 455 699 l 551 756 l 661 756 m 263 251 l 429 549 q 372 567 414 567 q 286 524 315 567 q 256 372 256 481 q 263 251 256 321 m 312 138 q 370 118 339 118 q 486 330 486 118 q 479 441 486 390 l 312 138 z "},"¿":{"ha":708,"x_min":39,"x_max":689,"o":"m 264 694 l 476 694 l 476 490 l 264 490 l 264 694 m 458 429 l 458 408 q 438 263 458 299 q 337 167 418 227 q 277 107 294 135 q 260 39 260 80 q 292 -40 260 -11 q 369 -68 323 -68 q 503 101 488 -68 l 689 75 q 576 -158 667 -79 q 355 -236 486 -236 q 130 -159 221 -236 q 39 37 39 -81 q 190 284 39 185 q 269 350 254 326 q 284 429 284 374 l 458 429 z "},"¡":{"ha":408,"x_min":75,"x_max":334,"o":"m 311 694 l 311 481 l 97 481 l 97 694 l 311 694 m 267 418 l 334 -231 l 75 -231 l 142 418 l 267 418 z "},"¬":{"ha":814,"x_min":106,"x_max":708,"o":"m 517 0 l 517 204 l 106 204 l 106 376 l 708 376 l 708 0 l 517 0 z "},"√":{"ha":762,"x_min":14,"x_max":715,"o":"m 715 1267 l 507 -53 l 170 644 l 36 579 l 14 625 l 216 725 l 490 165 l 667 1274 l 715 1267 z "},"ƒ":{"ha":814,"x_min":42,"x_max":723,"o":"m 260 725 l 340 725 q 423 934 363 866 q 619 1002 484 1002 q 723 993 668 1002 l 696 840 q 640 846 667 846 q 568 825 589 846 q 536 725 547 804 l 659 725 l 632 567 l 509 567 l 420 58 q 371 -95 401 -45 q 277 -173 341 -144 q 133 -201 214 -201 q 42 -195 103 -201 l 70 -37 q 129 -43 109 -43 q 185 -31 166 -43 q 213 -4 205 -20 q 229 58 220 12 l 313 567 l 229 567 l 260 725 z "},"≈":{"ha":814,"x_min":69,"x_max":745,"o":"m 172 473 l 69 541 q 163 696 114 655 q 281 736 212 736 q 426 701 326 736 q 542 669 513 669 q 640 738 602 669 l 745 675 q 524 486 665 486 q 386 522 488 486 q 270 555 296 555 q 172 473 210 555 m 172 184 l 69 252 q 164 408 115 367 q 281 448 213 448 q 426 411 326 448 q 543 379 513 379 q 640 448 602 379 l 745 385 q 524 197 665 197 q 386 233 488 197 q 271 265 295 265 q 172 184 210 265 z "},"∆":{"ha":850,"x_min":8,"x_max":844,"o":"m 453 956 l 844 0 l 8 0 l 453 956 m 403 718 l 100 68 l 672 68 l 403 718 z "},"«":{"ha":473,"x_min":46,"x_max":418,"o":"m 347 162 l 230 357 l 347 555 l 418 555 l 347 357 l 418 162 l 347 162 m 161 162 l 46 357 l 161 555 l 230 555 l 161 357 l 230 162 l 161 162 z "},"»":{"ha":473,"x_min":56,"x_max":427,"o":"m 127 162 l 56 162 l 127 357 l 56 555 l 127 555 l 243 357 l 127 162 m 312 162 l 243 162 l 312 357 l 243 555 l 312 555 l 427 357 l 312 162 z "},"…":{"ha":1101,"x_min":79,"x_max":1022,"o":"m 288 0 l 79 0 l 79 210 l 288 210 l 288 0 m 656 0 l 446 0 l 446 210 l 656 210 l 656 0 m 1022 0 l 813 0 l 813 210 l 1022 210 l 1022 0 z "}," ":{"ha":347,"x_min":0,"x_max":0,"o":""},"À":{"ha":844,"x_min":0,"x_max":838,"o":"m 548 926 l 838 0 l 604 0 l 548 191 l 248 191 l 190 0 l 0 0 l 296 926 l 548 926 m 300 361 l 497 361 l 399 686 l 300 361 m 250 1245 l 531 1080 l 497 1004 l 199 1131 l 250 1245 z "},"Ã":{"ha":844,"x_min":0,"x_max":838,"o":"m 548 926 l 838 0 l 604 0 l 548 191 l 248 191 l 190 0 l 0 0 l 296 926 l 548 926 m 300 361 l 497 361 l 399 686 l 300 361 m 650 1116 q 499 1029 583 1029 q 391 1061 458 1029 q 336 1076 357 1076 q 249 1031 294 1076 l 191 1108 q 335 1182 259 1182 q 435 1155 378 1182 q 497 1135 476 1135 q 593 1192 544 1135 l 650 1116 z "},"Õ":{"ha":888,"x_min":49,"x_max":840,"o":"m 441 -14 q 151 126 254 -14 q 49 466 49 267 q 153 804 49 669 q 448 940 256 940 q 741 795 642 940 q 840 464 840 650 q 738 124 840 262 q 441 -14 636 -14 m 447 763 q 276 463 276 763 q 447 163 276 163 q 612 463 612 163 q 447 763 612 763 m 685 1116 q 534 1029 618 1029 q 426 1061 494 1029 q 372 1076 393 1076 q 284 1031 330 1076 l 227 1108 q 370 1182 294 1182 q 471 1155 414 1182 q 532 1135 511 1135 q 628 1192 579 1135 l 685 1116 z "},"Œ":{"ha":1291,"x_min":49,"x_max":1255,"o":"m 1255 751 l 817 751 l 817 560 l 1166 560 l 1166 387 l 817 387 l 817 183 l 1255 183 l 1255 0 l 595 0 q 473 -14 533 -14 q 153 130 257 -14 q 49 460 49 273 q 156 797 49 654 q 475 940 263 940 q 595 926 534 940 l 1255 926 l 1255 751 m 595 696 q 470 763 553 763 q 328 679 367 763 q 290 463 290 594 q 463 163 290 163 q 595 234 551 163 l 595 696 z "},"œ":{"ha":1166,"x_min":44,"x_max":1123,"o":"m 1123 309 l 686 309 q 817 132 686 132 q 939 237 922 132 l 1123 222 q 1020 51 1101 115 q 813 -14 938 -14 q 596 55 692 -14 q 378 -14 501 -14 q 135 86 227 -14 q 44 345 44 186 q 139 604 44 508 q 380 699 233 699 q 596 628 503 699 q 806 699 700 699 q 989 645 911 699 q 1095 513 1067 591 q 1123 309 1123 435 m 687 428 l 930 428 q 812 570 920 570 q 687 428 701 570 m 382 567 q 290 514 318 567 q 262 344 262 460 q 293 168 262 218 q 383 119 324 119 q 470 169 441 119 q 500 339 500 218 q 472 514 500 461 q 382 567 444 567 z "},"–":{"ha":814,"x_min":110,"x_max":705,"o":"m 110 426 l 705 426 l 705 279 l 110 279 l 110 426 z "},"—":{"ha":926,"x_min":-28,"x_max":954,"o":"m -28 426 l 954 426 l 954 278 l -28 278 l -28 426 z "},"“":{"ha":608,"x_min":79,"x_max":530,"o":"m 79 547 l 79 738 l 193 926 l 266 926 l 173 738 l 266 738 l 266 547 l 79 547 m 347 547 l 347 738 l 458 926 l 530 926 l 433 738 l 530 738 l 530 547 l 347 547 z "},"”":{"ha":608,"x_min":79,"x_max":530,"o":"m 530 926 l 530 735 l 414 547 l 342 547 l 435 735 l 342 735 l 342 926 l 530 926 m 262 926 l 262 735 l 151 547 l 79 547 l 175 735 l 79 735 l 79 926 l 262 926 z "},"‘":{"ha":357,"x_min":80,"x_max":277,"o":"m 277 926 l 183 742 l 277 742 l 277 548 l 80 548 l 80 718 l 202 926 l 277 926 z "},"’":{"ha":357,"x_min":80,"x_max":277,"o":"m 80 548 l 174 732 l 80 732 l 80 926 l 277 926 l 277 757 l 155 548 l 80 548 z "},"÷":{"ha":814,"x_min":64,"x_max":751,"o":"m 499 707 q 472 642 499 669 q 406 614 444 614 q 341 642 368 614 q 314 707 314 669 q 341 772 314 745 q 407 800 368 800 q 472 772 445 800 q 499 707 499 745 m 751 542 l 751 393 l 64 393 l 64 542 l 751 542 m 499 227 q 472 161 499 188 q 406 134 444 134 q 341 161 368 134 q 314 227 314 188 q 341 292 314 264 q 407 319 368 319 q 472 292 445 319 q 499 227 499 264 z "},"◊":{"ha":686,"x_min":31,"x_max":652,"o":"m 652 517 l 383 0 l 300 0 l 31 517 l 300 1035 l 383 1035 l 652 517 m 569 517 l 342 960 l 115 517 l 342 75 l 569 517 z "},"ÿ":{"ha":618,"x_min":-5,"x_max":614,"o":"m 614 685 l 399 28 q 338 -131 363 -82 q 265 -210 313 -180 q 132 -239 217 -239 q 35 -231 89 -239 l 35 -76 q 134 -85 88 -85 q 214 -63 193 -85 q 244 0 234 -41 l -5 685 l 209 685 l 340 277 l 467 685 l 614 685 m 426 808 q 368 831 389 808 q 346 886 346 855 q 369 941 346 917 q 427 965 391 965 q 484 944 459 965 q 508 886 508 923 q 484 829 508 850 q 426 808 460 808 m 199 808 q 141 831 163 808 q 119 886 119 855 q 142 941 119 917 q 199 965 164 965 q 256 944 231 965 q 281 886 281 924 q 257 829 281 850 q 199 808 233 808 z "},"Ÿ":{"ha":724,"x_min":-37,"x_max":762,"o":"m 762 926 l 471 390 l 471 0 l 254 0 l 254 390 l -37 926 l 214 926 l 391 574 l 567 926 l 762 926 m 484 1025 q 425 1048 447 1025 q 404 1103 404 1072 q 426 1158 404 1134 q 484 1182 449 1182 q 541 1161 517 1182 q 566 1103 566 1140 q 542 1046 566 1067 q 484 1025 517 1025 m 257 1025 q 199 1048 220 1025 q 177 1103 177 1072 q 199 1158 177 1134 q 257 1182 222 1182 q 314 1161 289 1182 q 339 1103 339 1141 q 315 1046 339 1067 q 257 1025 291 1025 z "},"∕":{"ha":148,"x_min":-236,"x_max":385,"o":"m -236 0 l 277 926 l 385 926 l -129 0 l -236 0 z "},"€":{"ha":814,"x_min":21,"x_max":804,"o":"m 804 289 q 693 59 773 132 q 456 -14 612 -14 q 85 314 150 -14 l 21 314 l 21 418 l 72 418 l 71 463 q 72 498 71 488 l 21 498 l 21 604 l 83 604 q 209 854 113 768 q 457 940 305 940 q 683 863 586 940 q 802 654 781 785 l 574 639 q 535 727 568 692 q 453 762 502 762 q 307 604 334 762 l 463 604 l 463 498 l 297 498 l 297 461 q 298 418 297 431 l 463 418 l 463 314 l 311 314 q 458 163 345 163 q 581 301 552 163 l 804 289 z "},"‹":{"ha":286,"x_min":46,"x_max":230,"o":"m 161 162 l 46 357 l 161 555 l 230 555 l 161 357 l 230 162 l 161 162 z "},"›":{"ha":286,"x_min":56,"x_max":239,"o":"m 124 162 l 56 162 l 124 357 l 56 555 l 124 555 l 239 357 l 124 162 z "},"ﬁ":{"ha":779,"x_min":18,"x_max":695,"o":"m 294 528 l 294 0 l 98 0 l 98 528 l 18 528 l 18 685 l 98 685 q 113 839 99 791 q 184 925 127 888 q 341 963 242 963 q 435 956 382 963 l 435 800 q 363 803 391 803 q 308 781 321 803 q 294 711 294 760 l 294 685 l 418 685 l 418 528 l 294 528 m 695 685 l 695 0 l 493 0 l 493 685 l 695 685 m 695 945 l 695 743 l 493 743 l 493 945 l 695 945 z "},"ﬂ":{"ha":779,"x_min":18,"x_max":695,"o":"m 294 528 l 294 0 l 98 0 l 98 528 l 18 528 l 18 685 l 98 685 q 113 839 99 791 q 184 925 127 888 q 341 963 242 963 q 435 956 382 963 l 435 800 q 363 803 391 803 q 308 781 321 803 q 294 711 294 760 l 294 685 l 418 685 l 418 528 l 294 528 m 493 0 l 493 926 l 695 926 l 695 0 l 493 0 z "},"‡":{"ha":814,"x_min":73,"x_max":743,"o":"m 73 525 l 73 684 l 313 684 l 313 926 l 503 926 l 503 684 l 743 684 l 743 525 l 503 525 l 503 186 l 743 186 l 743 28 l 503 28 l 503 -223 l 313 -223 l 313 28 l 73 28 l 73 186 l 313 186 l 313 525 l 73 525 z "},"∙":{"ha":210,"x_min":0,"x_max":210,"o":"m 210 249 l 0 249 l 0 454 l 210 454 l 210 249 z "},"‚":{"ha":357,"x_min":80,"x_max":277,"o":"m 80 -184 l 174 0 l 80 0 l 80 193 l 277 193 l 277 24 l 155 -184 l 80 -184 z "},"„":{"ha":608,"x_min":79,"x_max":530,"o":"m 530 191 l 530 0 l 414 -188 l 342 -188 l 435 0 l 342 0 l 342 191 l 530 191 m 262 191 l 262 0 l 151 -188 l 79 -188 l 175 0 l 79 0 l 79 191 l 262 191 z "},"‰":{"ha":1411,"x_min":39,"x_max":1372,"o":"m 230 456 q 89 525 138 456 q 39 694 39 594 q 89 864 39 795 q 231 932 138 932 q 373 864 323 932 q 422 695 422 795 q 372 525 422 593 q 230 456 322 456 m 231 849 q 178 815 193 849 q 163 696 163 782 q 178 577 163 611 q 231 543 193 543 q 283 576 267 543 q 298 691 298 610 q 283 815 298 781 q 231 849 269 849 m 169 0 l 682 926 l 785 926 l 271 0 l 169 0 m 726 -7 q 584 62 633 -7 q 534 231 534 131 q 584 401 534 332 q 726 469 633 469 q 868 400 819 469 q 918 232 918 332 q 868 61 918 130 q 726 -7 818 -7 m 727 386 q 675 356 692 386 q 659 233 659 327 q 674 113 659 147 q 726 79 690 79 q 779 114 763 79 q 794 227 794 148 q 779 352 794 317 q 727 386 764 386 m 1179 -7 q 1037 62 1086 -7 q 987 231 987 131 q 1037 401 987 332 q 1179 469 1086 469 q 1322 400 1272 469 q 1372 232 1372 332 q 1322 61 1372 130 q 1179 -7 1272 -7 m 1180 386 q 1129 357 1146 386 q 1112 233 1112 328 q 1127 114 1112 149 q 1180 79 1143 79 q 1232 113 1217 79 q 1248 229 1248 147 q 1231 356 1248 326 q 1180 386 1213 386 z "},"Â":{"ha":844,"x_min":0,"x_max":838,"o":"m 548 926 l 838 0 l 604 0 l 548 191 l 248 191 l 190 0 l 0 0 l 296 926 l 548 926 m 300 361 l 497 361 l 399 686 l 300 361 m 669 1023 l 532 1008 l 420 1102 l 309 1008 l 172 1023 l 420 1236 l 669 1023 z "},"Ê":{"ha":791,"x_min":92,"x_max":754,"o":"m 754 749 l 313 749 l 313 559 l 660 559 l 660 385 l 313 385 l 313 183 l 754 183 l 754 0 l 92 0 l 92 926 l 754 926 l 754 749 m 669 1023 l 532 1008 l 420 1102 l 309 1008 l 172 1023 l 420 1236 l 669 1023 z "},"Á":{"ha":844,"x_min":0,"x_max":838,"o":"m 548 926 l 838 0 l 604 0 l 548 191 l 248 191 l 190 0 l 0 0 l 296 926 l 548 926 m 300 361 l 497 361 l 399 686 l 300 361 m 593 1245 l 645 1131 l 347 1004 l 313 1080 l 593 1245 z "},"Ë":{"ha":791,"x_min":92,"x_max":754,"o":"m 754 749 l 313 749 l 313 559 l 660 559 l 660 385 l 313 385 l 313 183 l 754 183 l 754 0 l 92 0 l 92 926 l 754 926 l 754 749 m 535 1027 q 477 1051 498 1027 q 455 1105 455 1075 q 478 1161 455 1137 q 536 1185 500 1185 q 593 1164 568 1185 q 617 1106 617 1143 q 593 1049 617 1070 q 535 1027 569 1027 m 309 1027 q 250 1051 272 1027 q 229 1105 229 1075 q 251 1161 229 1137 q 309 1185 273 1185 q 366 1164 340 1185 q 391 1106 391 1143 q 367 1049 391 1070 q 309 1027 342 1027 z "},"È":{"ha":791,"x_min":92,"x_max":754,"o":"m 754 749 l 313 749 l 313 559 l 660 559 l 660 385 l 313 385 l 313 183 l 754 183 l 754 0 l 92 0 l 92 926 l 754 926 l 754 749 m 253 1245 l 534 1080 l 500 1004 l 201 1131 l 253 1245 z "},"Í":{"ha":402,"x_min":87,"x_max":420,"o":"m 309 926 l 309 0 l 93 0 l 93 926 l 309 926 m 368 1245 l 420 1131 l 121 1004 l 87 1080 l 368 1245 z "},"Î":{"ha":401,"x_min":-50,"x_max":447,"o":"m 309 926 l 309 0 l 93 0 l 93 926 l 309 926 m 447 1025 l 309 1011 l 198 1105 l 87 1011 l -50 1025 l 198 1238 l 447 1025 z "},"Ï":{"ha":402,"x_min":12,"x_max":400,"o":"m 307 926 l 307 0 l 91 0 l 91 926 l 307 926 m 318 1025 q 260 1049 281 1025 q 238 1103 238 1073 q 261 1159 238 1135 q 319 1183 283 1183 q 376 1162 351 1183 q 400 1104 400 1141 q 376 1047 400 1068 q 318 1025 352 1025 m 92 1025 q 33 1049 55 1025 q 12 1103 12 1073 q 34 1159 12 1135 q 92 1183 56 1183 q 149 1162 123 1183 q 174 1104 174 1141 q 150 1047 174 1068 q 92 1025 125 1025 z "},"Ì":{"ha":402,"x_min":-18,"x_max":314,"o":"m 309 926 l 309 0 l 93 0 l 93 926 l 309 926 m 33 1245 l 314 1080 l 280 1004 l -18 1131 l 33 1245 z "},"Ó":{"ha":888,"x_min":49,"x_max":840,"o":"m 441 -14 q 151 126 254 -14 q 49 466 49 267 q 153 804 49 669 q 448 940 256 940 q 741 795 642 940 q 840 464 840 650 q 738 124 840 262 q 441 -14 636 -14 m 447 763 q 276 463 276 763 q 447 163 276 163 q 612 463 612 163 q 447 763 612 763 m 618 1245 l 669 1131 l 371 1004 l 337 1080 l 618 1245 z "},"Ô":{"ha":888,"x_min":49,"x_max":840,"o":"m 441 -14 q 151 126 254 -14 q 49 466 49 267 q 153 804 49 669 q 448 940 256 940 q 741 795 642 940 q 840 464 840 650 q 738 124 840 262 q 441 -14 636 -14 m 447 763 q 276 463 276 763 q 447 163 276 163 q 612 463 612 163 q 447 763 612 763 m 702 1023 l 564 1008 l 453 1102 l 342 1008 l 205 1023 l 453 1236 l 702 1023 z "},"Ò":{"ha":888,"x_min":49,"x_max":840,"o":"m 441 -14 q 151 126 254 -14 q 49 466 49 267 q 153 804 49 669 q 448 940 256 940 q 741 795 642 940 q 840 464 840 650 q 738 124 840 262 q 441 -14 636 -14 m 447 763 q 276 463 276 763 q 447 163 276 163 q 612 463 612 163 q 447 763 612 763 m 299 1242 l 580 1078 l 546 1002 l 248 1128 l 299 1242 z "},"Ú":{"ha":902,"x_min":83,"x_max":823,"o":"m 823 926 l 823 349 q 791 141 823 210 q 673 30 759 73 q 454 -14 587 -14 q 241 25 320 -14 q 123 137 162 64 q 83 349 83 210 l 83 926 l 319 926 l 319 349 q 331 239 319 275 q 381 183 344 204 q 474 163 419 163 q 573 183 535 163 q 624 237 612 203 q 637 349 637 271 l 637 926 l 823 926 m 634 1245 l 686 1131 l 387 1004 l 353 1080 l 634 1245 z "},"Û":{"ha":902,"x_min":83,"x_max":823,"o":"m 823 926 l 823 349 q 791 141 823 210 q 673 30 759 73 q 454 -14 587 -14 q 241 25 320 -14 q 123 137 162 64 q 83 349 83 210 l 83 926 l 319 926 l 319 349 q 331 239 319 275 q 381 183 344 204 q 474 163 419 163 q 573 183 535 163 q 624 237 612 203 q 637 349 637 271 l 637 926 l 823 926 m 713 1023 l 575 1008 l 464 1102 l 353 1008 l 216 1023 l 464 1236 l 713 1023 z "},"Ù":{"ha":902,"x_min":83,"x_max":823,"o":"m 823 926 l 823 349 q 791 141 823 210 q 673 30 759 73 q 454 -14 587 -14 q 241 25 320 -14 q 123 137 162 64 q 83 349 83 210 l 83 926 l 319 926 l 319 349 q 331 239 319 275 q 381 183 344 204 q 474 163 419 163 q 573 183 535 163 q 624 237 612 203 q 637 349 637 271 l 637 926 l 823 926 m 294 1242 l 574 1078 l 541 1002 l 242 1128 l 294 1242 z "},"ı":{"ha":368,"x_min":83,"x_max":286,"o":"m 286 685 l 286 0 l 83 0 l 83 685 l 286 685 z "},"ˆ":{"ha":694,"x_min":99,"x_max":596,"o":"m 596 806 l 458 791 l 347 885 l 236 791 l 99 806 l 347 1019 l 596 806 z "},"˜":{"ha":694,"x_min":118,"x_max":576,"o":"m 576 894 q 426 806 510 806 q 317 838 385 806 q 263 853 284 853 q 176 809 221 853 l 118 886 q 262 960 186 960 q 362 932 305 960 q 424 913 403 913 q 519 969 471 913 l 576 894 z "},"ˉ":{"ha":694,"x_min":139,"x_max":555,"o":"m 555 930 l 555 833 l 139 833 l 139 930 l 555 930 z "},"˘":{"ha":694,"x_min":131,"x_max":563,"o":"m 131 996 l 237 996 q 346 907 248 907 q 456 996 446 907 l 563 996 q 493 852 551 904 q 344 801 435 801 q 198 849 258 801 q 131 996 139 897 z "},"˙":{"ha":694,"x_min":266,"x_max":428,"o":"m 346 808 q 288 831 309 808 q 266 886 266 855 q 288 941 266 917 q 346 965 311 965 q 403 944 378 965 q 428 886 428 924 q 404 829 428 850 q 346 808 380 808 z "},"˚":{"ha":694,"x_min":217,"x_max":478,"o":"m 345 771 q 253 811 290 771 q 217 899 217 850 q 253 987 217 947 q 346 1026 290 1026 q 440 989 402 1026 q 478 900 478 951 q 440 809 478 848 q 345 771 401 771 m 347 847 q 386 862 370 847 q 402 899 402 878 q 386 935 402 920 q 348 950 370 950 q 309 935 324 950 q 293 899 293 919 q 309 862 293 878 q 347 847 325 847 z "},"¸":{"ha":694,"x_min":210,"x_max":488,"o":"m 374 0 l 351 -68 q 370 -66 363 -66 q 455 -96 422 -66 q 488 -168 488 -125 q 451 -250 488 -219 q 351 -280 414 -280 q 210 -240 280 -280 l 232 -182 q 324 -213 288 -213 q 373 -169 373 -213 q 351 -132 373 -145 q 300 -119 330 -119 q 264 -122 288 -119 l 307 0 l 374 0 z "},"˝":{"ha":694,"x_min":175,"x_max":697,"o":"m 391 1028 l 456 932 l 218 787 l 175 854 l 391 1028 m 632 1028 l 697 932 l 459 787 l 416 854 l 632 1028 z "},"˛":{"ha":694,"x_min":414,"x_max":677,"o":"m 627 0 q 534 -108 534 -54 q 554 -154 534 -136 q 610 -171 574 -171 q 663 -158 626 -171 l 677 -214 q 560 -238 627 -238 q 454 -209 493 -238 q 414 -131 414 -179 q 534 0 414 -50 l 627 0 z "},"ˇ":{"ha":694,"x_min":99,"x_max":596,"o":"m 99 996 l 236 1009 l 348 916 l 458 1009 l 596 996 l 348 783 l 99 996 z "},"Ł":{"ha":699,"x_min":9,"x_max":681,"o":"m 9 383 l 93 466 l 93 926 l 312 926 l 312 610 l 498 785 l 498 618 l 312 444 l 312 183 l 681 183 l 681 0 l 93 0 l 93 299 l 9 216 l 9 383 z "},"ł":{"ha":387,"x_min":9,"x_max":378,"o":"m 378 559 l 295 480 l 295 0 l 93 0 l 93 353 l 9 275 l 9 404 l 93 483 l 93 926 l 295 926 l 295 610 l 378 689 l 378 559 z "},"Š":{"ha":806,"x_min":0,"x_max":758,"o":"m 732 722 l 548 661 q 390 770 511 770 q 261 687 261 770 q 285 631 261 654 q 394 591 309 608 q 602 533 536 562 q 712 439 667 504 q 758 294 758 374 q 661 77 758 169 q 374 -14 564 -14 q 132 51 232 -14 q 0 243 32 115 l 201 288 q 389 159 235 159 q 500 188 464 159 q 537 256 537 216 q 504 319 537 297 q 376 361 471 342 q 123 461 199 398 q 48 647 48 525 q 138 855 48 770 q 382 940 228 940 q 732 722 654 940 m 151 1215 l 288 1229 l 399 1136 l 510 1229 l 648 1215 l 399 1002 l 151 1215 z "},"š":{"ha":657,"x_min":7,"x_max":625,"o":"m 596 519 l 449 480 q 315 573 423 573 q 214 511 214 573 q 232 472 214 487 q 330 448 251 458 q 503 412 447 432 q 592 343 559 391 q 625 224 625 295 q 545 52 625 119 q 320 -14 465 -14 q 7 189 58 -14 l 178 214 q 330 121 199 121 q 414 139 380 121 q 449 188 449 157 q 372 244 449 235 q 99 324 165 270 q 34 474 34 378 q 110 635 34 572 q 323 699 186 699 q 496 656 431 699 q 596 519 562 614 m 77 996 l 214 1009 l 326 916 l 437 1009 l 574 996 l 326 783 l 77 996 z "},"Ž":{"ha":803,"x_min":28,"x_max":775,"o":"m 760 766 l 292 177 l 775 177 l 775 0 l 28 0 l 28 157 l 494 751 l 59 751 l 59 926 l 760 926 l 760 766 m 161 1210 l 298 1223 l 410 1131 l 521 1223 l 659 1210 l 410 997 l 161 1210 z "},"ž":{"ha":595,"x_min":28,"x_max":567,"o":"m 553 685 l 553 559 l 248 147 l 567 147 l 567 0 l 28 0 l 28 147 l 330 547 l 53 547 l 53 685 l 553 685 m 58 996 l 195 1009 l 307 916 l 418 1009 l 555 996 l 307 783 l 58 996 z "},"¦":{"ha":694,"x_min":252,"x_max":444,"o":"m 252 926 l 444 926 l 444 442 l 252 442 l 252 926 m 252 213 l 444 213 l 444 -231 l 252 -231 l 252 213 z "},"Ð":{"ha":901,"x_min":9,"x_max":852,"o":"m 93 926 l 375 926 q 633 878 548 926 q 785 727 718 831 q 852 465 852 624 q 735 134 852 267 q 411 0 618 0 l 93 0 l 93 406 l 9 406 l 9 545 l 93 545 l 93 926 m 306 545 l 467 545 l 467 406 l 306 406 l 306 174 l 395 174 q 571 263 514 174 q 629 471 629 352 q 575 666 629 577 q 397 755 521 755 l 306 755 l 306 545 z "},"ð":{"ha":743,"x_min":44,"x_max":701,"o":"m 222 796 l 332 853 q 212 904 296 877 l 245 978 q 437 904 351 956 l 562 966 l 613 906 l 503 850 q 639 654 578 783 q 701 382 701 526 q 609 84 701 182 q 375 -14 517 -14 q 131 89 218 -14 q 44 334 44 192 q 133 582 44 479 q 341 684 222 684 q 474 611 422 684 q 389 795 451 734 l 266 734 l 222 796 m 376 551 q 258 350 258 551 q 291 162 258 205 q 376 119 325 119 q 454 161 423 119 q 486 341 486 203 q 376 551 486 551 z "},"Ý":{"ha":724,"x_min":-37,"x_max":762,"o":"m 762 926 l 471 390 l 471 0 l 254 0 l 254 390 l -37 926 l 214 926 l 391 574 l 567 926 l 762 926 m 542 1242 l 593 1128 l 295 1002 l 261 1078 l 542 1242 z "},"ý":{"ha":618,"x_min":-5,"x_max":614,"o":"m 614 685 l 399 28 q 338 -131 363 -82 q 265 -210 313 -180 q 132 -239 217 -239 q 35 -231 89 -239 l 35 -76 q 134 -85 88 -85 q 214 -63 193 -85 q 244 0 234 -41 l -5 685 l 209 685 l 340 277 l 467 685 l 614 685 m 494 1028 l 545 914 l 247 787 l 213 863 l 494 1028 z "},"Þ":{"ha":847,"x_min":92,"x_max":810,"o":"m 92 926 l 313 926 l 313 801 l 457 801 q 644 774 579 801 q 760 681 709 748 q 810 517 810 614 q 767 350 810 420 q 657 249 724 279 q 465 218 590 218 l 313 218 l 313 0 l 92 0 l 92 926 m 305 387 l 446 387 q 560 425 528 387 q 592 510 592 463 q 561 595 592 557 q 446 633 530 633 l 305 633 l 305 387 z "},"þ":{"ha":749,"x_min":83,"x_max":703,"o":"m 83 -231 l 83 926 l 279 926 l 279 599 q 452 699 338 699 q 634 606 566 699 q 703 351 703 513 q 631 78 703 170 q 445 -14 559 -14 q 279 76 329 -14 l 279 -231 l 83 -231 m 279 300 q 288 199 279 227 q 326 150 297 172 q 387 127 354 127 q 461 170 429 127 q 494 357 494 212 q 387 559 494 559 q 313 524 346 559 q 279 401 279 488 l 279 300 z "},"−":{"ha":814,"x_min":64,"x_max":751,"o":"m 751 542 l 751 393 l 64 393 l 64 542 l 751 542 z "},"×":{"ha":814,"x_min":106,"x_max":709,"o":"m 598 763 l 703 658 l 512 467 l 709 271 l 606 166 l 408 363 l 218 173 l 113 277 l 303 468 l 106 666 l 210 770 l 408 572 l 598 763 z "},"¹":{"ha":537,"x_min":25,"x_max":481,"o":"m 25 699 l 25 822 q 228 935 182 864 l 335 935 l 335 479 l 481 479 l 481 370 l 28 370 l 28 479 l 190 479 l 190 779 q 25 699 93 725 z "},"²":{"ha":537,"x_min":31,"x_max":496,"o":"m 496 489 l 485 370 l 31 370 l 31 484 q 105 533 55 500 q 282 664 227 613 q 336 755 336 715 q 315 805 336 786 q 259 824 294 824 q 162 719 172 824 l 31 745 q 265 935 73 935 q 430 883 372 935 q 487 758 487 831 q 426 623 487 682 q 224 489 364 565 l 496 489 z "},"³":{"ha":537,"x_min":18,"x_max":492,"o":"m 176 709 l 243 709 q 330 770 330 709 q 310 812 330 793 q 254 831 290 831 q 167 760 184 831 l 35 780 q 111 891 51 848 q 258 935 171 935 q 412 894 350 935 q 475 783 475 853 q 385 662 475 696 q 492 531 492 631 q 430 410 492 457 q 258 362 368 362 q 91 412 153 362 q 18 537 30 462 l 153 555 q 255 469 170 469 q 318 488 294 469 q 342 538 342 507 q 320 589 342 573 q 235 605 297 605 l 176 605 l 176 709 z "},"½":{"ha":1222,"x_min":17,"x_max":1206,"o":"m 17 699 l 17 822 q 220 935 174 864 l 327 935 l 327 479 l 473 479 l 473 370 l 20 370 l 20 479 l 182 479 l 182 779 q 17 699 85 725 m 301 0 l 814 926 l 922 926 l 408 0 l 301 0 m 1206 117 l 1196 -1 l 742 -1 l 742 112 q 816 161 766 129 q 992 292 938 241 q 1047 384 1047 343 q 1026 433 1047 414 q 970 452 1005 452 q 873 347 883 452 l 741 374 q 976 563 783 563 q 1140 511 1083 563 q 1198 386 1198 460 q 1136 252 1198 310 q 935 117 1075 193 l 1206 117 z "},"¼":{"ha":1222,"x_min":14,"x_max":1225,"o":"m 14 699 l 14 822 q 217 935 171 864 l 324 935 l 324 479 l 470 479 l 470 370 l 18 370 l 18 479 l 179 479 l 179 779 q 14 699 82 725 m 304 0 l 817 926 l 924 926 l 411 0 l 304 0 m 1142 563 l 1142 230 l 1225 230 l 1225 125 l 1142 125 l 1142 -1 l 1001 -1 l 1001 125 l 734 125 l 734 227 l 976 563 l 1142 563 m 846 224 l 1006 224 l 1006 452 l 846 224 z "},"¾":{"ha":1222,"x_min":18,"x_max":1196,"o":"m 176 709 l 243 709 q 330 770 330 709 q 310 812 330 793 q 254 831 290 831 q 167 760 184 831 l 35 780 q 111 891 51 848 q 258 935 171 935 q 412 894 350 935 q 475 783 475 853 q 385 662 475 696 q 492 531 492 631 q 430 410 492 457 q 258 362 368 362 q 91 412 153 362 q 18 537 30 462 l 153 555 q 255 469 170 469 q 318 488 294 469 q 342 538 342 507 q 320 589 342 573 q 235 605 297 605 l 176 605 l 176 709 m 328 0 l 841 926 l 949 926 l 435 0 l 328 0 m 1112 563 l 1112 230 l 1196 230 l 1196 125 l 1112 125 l 1112 -1 l 971 -1 l 971 125 l 705 125 l 705 227 l 946 563 l 1112 563 m 817 224 l 976 224 l 976 452 l 817 224 z "},"₣":{"ha":770,"x_min":7,"x_max":751,"o":"m 317 256 l 474 256 l 474 117 l 317 117 l 317 0 l 93 0 l 93 117 l 7 117 l 7 256 l 93 256 l 93 926 l 751 926 l 751 743 l 317 743 l 317 535 l 661 535 l 661 362 l 317 362 l 317 256 z "},"Ğ":{"ha":892,"x_min":49,"x_max":814,"o":"m 814 495 l 814 0 l 715 0 q 684 106 704 52 q 431 -14 585 -14 q 150 115 250 -14 q 49 450 49 245 q 156 806 49 671 q 448 940 264 940 q 698 853 603 940 q 814 622 793 766 l 608 595 q 448 763 583 763 q 315 683 360 763 q 270 456 270 604 q 319 238 270 313 q 458 163 368 163 q 562 201 516 163 q 608 322 608 239 l 433 322 l 433 495 l 814 495 m 248 1204 l 354 1204 q 463 1116 365 1116 q 573 1204 563 1116 l 680 1204 q 610 1061 668 1113 q 460 1010 552 1010 q 315 1058 374 1010 q 248 1204 256 1105 z "},"ğ":{"ha":768,"x_min":14,"x_max":768,"o":"m 768 669 q 714 676 736 676 q 635 616 647 676 q 690 486 690 559 q 609 332 690 389 q 376 274 528 274 q 270 284 321 274 q 235 232 235 264 q 264 185 235 197 q 405 168 294 174 q 623 149 563 160 q 723 93 682 137 q 764 -17 764 49 q 676 -176 764 -111 q 368 -241 589 -241 q 87 -196 159 -241 q 14 -82 14 -151 q 132 41 14 9 q 45 163 45 85 q 182 317 45 262 q 60 484 60 367 q 144 640 60 580 q 376 699 228 699 q 557 669 469 699 q 591 765 563 728 q 711 803 619 803 q 768 798 741 803 l 768 669 m 374 590 q 293 562 322 590 q 263 488 263 534 q 375 383 263 383 q 460 414 429 383 q 491 488 491 444 q 462 559 491 528 q 374 590 433 590 m 239 5 q 209 -12 227 5 q 190 -51 190 -28 q 249 -109 190 -97 q 387 -120 308 -120 q 533 -104 491 -120 q 574 -54 574 -89 q 539 -14 574 -28 q 353 1 505 1 l 313 0 q 262 2 275 0 q 239 5 248 5 m 169 996 l 275 996 q 384 907 286 907 q 494 996 484 907 l 601 996 q 531 852 589 904 q 382 801 473 801 q 236 849 296 801 q 169 996 177 897 z "},"İ":{"ha":402,"x_min":93,"x_max":309,"o":"m 309 926 l 309 0 l 93 0 l 93 926 l 309 926 m 199 1025 q 141 1048 163 1025 q 119 1103 119 1072 q 142 1158 119 1134 q 199 1182 164 1182 q 256 1161 231 1182 q 281 1103 281 1141 q 257 1046 281 1067 q 199 1025 233 1025 z "},"Ş":{"ha":806,"x_min":0,"x_max":758,"o":"m 383 -14 l 365 -70 q 402 -66 387 -66 q 492 -99 455 -66 q 530 -180 530 -131 q 485 -269 530 -237 q 379 -302 439 -302 q 209 -256 289 -302 l 233 -198 q 340 -231 302 -231 q 388 -216 371 -231 q 406 -179 406 -201 q 383 -138 406 -153 q 326 -123 361 -123 q 273 -130 309 -123 l 309 -9 q 121 59 210 -2 q 0 243 31 119 l 201 288 q 389 159 235 159 q 500 188 464 159 q 537 256 537 216 q 504 319 537 297 q 376 361 471 342 q 123 461 199 398 q 48 647 48 525 q 138 855 48 770 q 382 940 228 940 q 732 722 654 940 l 548 661 q 390 770 511 770 q 261 687 261 770 q 285 631 261 654 q 394 591 309 608 q 602 533 536 562 q 712 439 667 504 q 758 294 758 374 q 659 75 758 165 q 383 -14 560 -14 z "},"ş":{"ha":657,"x_min":7,"x_max":625,"o":"m 323 -14 l 304 -68 q 323 -66 317 -66 q 409 -96 375 -66 q 442 -168 442 -125 q 405 -250 442 -219 q 304 -280 367 -280 q 163 -240 233 -280 l 185 -182 q 277 -213 241 -213 q 326 -169 326 -213 q 305 -132 326 -145 q 254 -119 283 -119 q 218 -122 241 -119 l 257 -11 q 7 189 52 14 l 178 214 q 330 121 199 121 q 414 139 380 121 q 449 188 449 157 q 372 244 449 235 q 99 324 165 270 q 34 474 34 378 q 110 635 34 572 q 323 699 186 699 q 496 656 431 699 q 596 519 562 614 l 449 480 q 315 573 423 573 q 214 511 214 573 q 232 472 214 487 q 330 448 251 458 q 503 412 447 432 q 592 343 559 391 q 625 224 625 295 q 551 57 625 125 q 323 -14 477 -10 z "},"Ć":{"ha":871,"x_min":49,"x_max":840,"o":"m 840 581 l 612 567 q 460 763 608 763 q 290 461 290 763 q 336 225 290 287 q 465 163 382 163 q 629 338 600 163 l 840 325 q 716 72 819 159 q 463 -14 612 -14 q 164 113 279 -14 q 49 463 49 239 q 160 806 49 673 q 464 940 271 940 q 840 581 798 940 m 640 1242 l 691 1128 l 393 1002 l 359 1078 l 640 1242 z "},"ć":{"ha":711,"x_min":44,"x_max":686,"o":"m 686 257 q 590 61 674 136 q 372 -14 505 -14 q 135 82 227 -14 q 44 338 44 178 q 137 599 44 499 q 387 699 231 699 q 594 624 512 699 q 686 435 677 549 l 497 425 q 390 548 488 548 q 270 351 270 548 q 303 185 270 220 q 385 150 337 150 q 497 269 479 150 l 686 257 m 553 1028 l 605 914 l 307 787 l 273 863 l 553 1028 z "},"Č":{"ha":871,"x_min":49,"x_max":840,"o":"m 840 581 l 612 567 q 460 763 608 763 q 290 461 290 763 q 336 225 290 287 q 465 163 382 163 q 629 338 600 163 l 840 325 q 716 72 819 159 q 463 -14 612 -14 q 164 113 279 -14 q 49 463 49 239 q 160 806 49 673 q 464 940 271 940 q 840 581 798 940 m 227 1213 l 363 1226 l 475 1133 l 586 1226 l 724 1213 l 475 1000 l 227 1213 z "},"č":{"ha":711,"x_min":44,"x_max":686,"o":"m 686 257 q 590 61 674 136 q 372 -14 505 -14 q 135 82 227 -14 q 44 338 44 178 q 137 599 44 499 q 387 699 231 699 q 594 624 512 699 q 686 435 677 549 l 497 425 q 390 548 488 548 q 270 351 270 548 q 303 185 270 220 q 385 150 337 150 q 497 269 479 150 l 686 257 m 135 996 l 272 1009 l 384 916 l 494 1009 l 632 996 l 384 783 l 135 996 z "},"đ":{"ha":749,"x_min":46,"x_max":744,"o":"m 665 0 l 479 0 l 479 107 q 290 -14 410 -14 q 111 78 176 -14 q 46 334 46 171 q 113 604 46 513 q 299 694 180 694 q 469 604 419 694 l 469 753 l 298 753 l 298 844 l 469 844 l 469 926 l 665 926 l 665 844 l 744 844 l 744 753 l 665 753 l 665 0 m 469 398 q 372 559 469 559 q 255 332 255 559 q 364 129 255 129 q 438 165 406 129 q 469 270 469 202 l 469 398 z "},"­":{"ha":357,"x_min":16,"x_max":340,"o":"m 16 426 l 340 426 l 340 279 l 16 279 l 16 426 z "},"¯":{"ha":694,"x_min":0,"x_max":694,"o":"m 0 1241 l 694 1241 l 694 1079 l 0 1079 l 0 1241 z "},"·":{"ha":210,"x_min":0,"x_max":210,"o":"m 210 249 l 0 249 l 0 454 l 210 454 l 210 249 z "},"Ā":{"ha":844,"x_min":0,"x_max":838,"o":"m 548 926 l 838 0 l 604 0 l 548 191 l 248 191 l 190 0 l 0 0 l 296 926 l 548 926 m 300 361 l 497 361 l 399 686 l 300 361 m 626 1147 l 626 1050 l 210 1050 l 210 1147 l 626 1147 z "},"ā":{"ha":752,"x_min":42,"x_max":682,"o":"m 682 0 l 486 0 q 476 107 476 41 q 373 10 425 34 q 257 -14 322 -14 q 101 38 161 -14 q 42 178 42 90 q 77 297 42 243 q 188 382 111 351 q 467 428 264 413 l 467 467 q 368 567 467 567 q 249 467 261 567 l 62 485 q 173 650 81 602 q 382 699 265 699 q 513 683 452 699 q 610 634 575 667 q 656 565 644 602 q 669 439 669 529 l 669 128 q 682 0 669 39 m 467 328 q 255 200 255 307 q 277 138 255 164 q 341 112 300 112 q 431 156 395 112 q 467 266 467 201 l 467 328 m 589 930 l 589 833 l 172 833 l 172 930 l 589 930 z "},"Ă":{"ha":844,"x_min":0,"x_max":838,"o":"m 548 926 l 838 0 l 604 0 l 548 191 l 248 191 l 190 0 l 0 0 l 296 926 l 548 926 m 300 361 l 497 361 l 399 686 l 300 361 m 204 1204 l 311 1204 q 419 1116 321 1116 q 530 1204 519 1116 l 636 1204 q 567 1061 625 1113 q 417 1010 509 1010 q 272 1058 331 1010 q 204 1204 212 1105 z "},"ă":{"ha":752,"x_min":42,"x_max":682,"o":"m 682 0 l 486 0 q 476 107 476 41 q 373 10 425 34 q 257 -14 322 -14 q 101 38 161 -14 q 42 178 42 90 q 77 297 42 243 q 188 382 111 351 q 467 428 264 413 l 467 467 q 368 567 467 567 q 249 467 261 567 l 62 485 q 173 650 81 602 q 382 699 265 699 q 513 683 452 699 q 610 634 575 667 q 656 565 644 602 q 669 439 669 529 l 669 128 q 682 0 669 39 m 467 328 q 255 200 255 307 q 277 138 255 164 q 341 112 300 112 q 431 156 395 112 q 467 266 467 201 l 467 328 m 169 996 l 275 996 q 384 907 286 907 q 494 996 484 907 l 601 996 q 531 852 589 904 q 382 801 473 801 q 236 849 296 801 q 169 996 177 897 z "},"Ą":{"ha":844,"x_min":0,"x_max":897,"o":"m 838 0 q 743 -115 743 -47 q 823 -177 743 -177 q 883 -164 850 -177 l 897 -225 q 776 -252 840 -252 q 657 -220 701 -252 q 614 -136 614 -189 q 739 0 614 -47 l 604 0 l 548 191 l 248 191 l 190 0 l 0 0 l 296 926 l 548 926 l 838 0 m 300 361 l 497 361 l 399 686 l 300 361 z "},"ą":{"ha":752,"x_min":41,"x_max":732,"o":"m 248 467 l 62 485 q 172 650 80 602 q 381 699 264 699 q 513 683 451 699 q 609 634 574 667 q 656 565 644 602 q 668 439 668 529 l 668 128 q 681 0 668 40 q 588 -108 588 -54 q 608 -154 588 -136 q 664 -171 629 -171 q 718 -158 680 -171 l 732 -214 q 614 -238 682 -238 q 508 -209 547 -238 q 469 -131 469 -179 q 588 0 469 -50 l 485 0 q 475 107 475 41 q 373 10 424 34 q 256 -14 321 -14 q 101 38 160 -14 q 41 178 41 90 q 76 297 41 243 q 187 382 111 351 q 467 428 264 413 l 467 467 q 367 567 467 567 q 248 467 260 567 m 467 328 q 254 200 254 307 q 277 138 254 164 q 340 112 299 112 q 430 156 394 112 q 467 266 467 201 l 467 328 z "},"Ĉ":{"ha":871,"x_min":49,"x_max":840,"o":"m 840 581 l 612 567 q 460 763 608 763 q 290 461 290 763 q 336 225 290 287 q 465 163 382 163 q 629 338 600 163 l 840 325 q 716 72 819 159 q 463 -14 612 -14 q 164 113 279 -14 q 49 463 49 239 q 160 806 49 673 q 464 940 271 940 q 840 581 798 940 m 718 1023 l 581 1008 l 469 1102 l 358 1008 l 221 1023 l 469 1236 l 718 1023 z "},"ĉ":{"ha":711,"x_min":44,"x_max":686,"o":"m 686 257 q 590 61 674 136 q 372 -14 505 -14 q 135 82 227 -14 q 44 338 44 178 q 137 599 44 499 q 387 699 231 699 q 594 624 512 699 q 686 435 677 549 l 497 425 q 390 548 488 548 q 270 351 270 548 q 303 185 270 220 q 385 150 337 150 q 497 269 479 150 l 686 257 m 632 806 l 494 791 l 383 885 l 272 791 l 135 806 l 383 1019 l 632 806 z "},"Ċ":{"ha":871,"x_min":49,"x_max":840,"o":"m 840 581 l 612 567 q 460 763 608 763 q 290 461 290 763 q 336 225 290 287 q 465 163 382 163 q 629 338 600 163 l 840 325 q 716 72 819 159 q 463 -14 612 -14 q 164 113 279 -14 q 49 463 49 239 q 160 806 49 673 q 464 940 271 940 q 840 581 798 940 m 471 1025 q 412 1048 434 1025 q 391 1103 391 1072 q 413 1158 391 1134 q 471 1182 435 1182 q 528 1161 503 1182 q 553 1103 553 1141 q 529 1046 553 1067 q 471 1025 505 1025 z "},"ċ":{"ha":711,"x_min":44,"x_max":686,"o":"m 686 257 q 590 61 674 136 q 372 -14 505 -14 q 135 82 227 -14 q 44 338 44 178 q 137 599 44 499 q 387 699 231 699 q 594 624 512 699 q 686 435 677 549 l 497 425 q 390 548 488 548 q 270 351 270 548 q 303 185 270 220 q 385 150 337 150 q 497 269 479 150 l 686 257 m 382 808 q 324 831 346 808 q 302 886 302 855 q 325 941 302 917 q 382 965 347 965 q 439 944 414 965 q 465 886 465 924 q 440 829 465 850 q 382 808 416 808 z "},"Ď":{"ha":901,"x_min":93,"x_max":852,"o":"m 93 926 l 376 926 q 633 878 549 926 q 785 727 718 830 q 852 465 852 623 q 735 133 852 267 q 412 0 618 0 l 93 0 l 93 926 m 306 755 l 306 174 l 395 174 q 572 263 514 174 q 629 471 629 351 q 596 626 629 555 q 515 727 564 698 q 397 755 466 755 l 306 755 m 164 1215 l 301 1229 l 413 1136 l 524 1229 l 661 1215 l 413 1002 l 164 1215 z "},"ď":{"ha":907,"x_min":46,"x_max":916,"o":"m 665 926 l 665 0 l 479 0 l 479 107 q 290 -14 410 -14 q 112 78 177 -14 q 46 335 46 171 q 112 603 46 506 q 301 699 177 699 q 469 613 410 699 l 469 926 l 665 926 m 469 398 q 372 559 469 559 q 255 332 255 559 q 364 129 255 129 q 438 165 406 129 q 469 270 469 202 l 469 398 m 916 926 l 792 652 l 721 652 l 758 926 l 916 926 z "},"Đ":{"ha":901,"x_min":9,"x_max":852,"o":"m 93 926 l 375 926 q 633 878 548 926 q 785 727 718 831 q 852 465 852 624 q 735 134 852 267 q 411 0 618 0 l 93 0 l 93 406 l 9 406 l 9 545 l 93 545 l 93 926 m 306 545 l 467 545 l 467 406 l 306 406 l 306 174 l 395 174 q 571 263 514 174 q 629 471 629 352 q 575 666 629 577 q 397 755 521 755 l 306 755 l 306 545 z "},"Ē":{"ha":791,"x_min":92,"x_max":754,"o":"m 754 749 l 313 749 l 313 559 l 660 559 l 660 385 l 313 385 l 313 183 l 754 183 l 754 0 l 92 0 l 92 926 l 754 926 l 754 749 m 629 1147 l 629 1050 l 212 1050 l 212 1147 l 629 1147 z "},"ē":{"ha":743,"x_min":44,"x_max":699,"o":"m 699 309 l 258 309 q 257 277 257 290 q 296 166 257 203 q 389 129 335 129 q 511 237 490 129 l 694 223 q 382 -14 617 -14 q 209 27 280 -14 q 91 146 137 68 q 44 335 44 225 q 137 599 44 498 q 377 699 231 699 q 604 606 509 699 q 699 309 699 513 m 257 426 l 500 426 q 385 567 491 567 q 257 426 271 567 m 598 930 l 598 833 l 182 833 l 182 930 l 598 930 z "},"Ĕ":{"ha":791,"x_min":92,"x_max":754,"o":"m 754 749 l 313 749 l 313 559 l 660 559 l 660 385 l 313 385 l 313 183 l 754 183 l 754 0 l 92 0 l 92 926 l 754 926 l 754 749 m 207 1204 l 313 1204 q 422 1116 324 1116 q 532 1204 522 1116 l 639 1204 q 569 1061 627 1113 q 420 1010 511 1010 q 274 1058 334 1010 q 207 1204 215 1105 z "},"ĕ":{"ha":743,"x_min":44,"x_max":699,"o":"m 699 309 l 258 309 q 257 277 257 290 q 296 166 257 203 q 389 129 335 129 q 511 237 490 129 l 694 223 q 382 -14 617 -14 q 209 27 280 -14 q 91 146 137 68 q 44 335 44 225 q 137 599 44 498 q 377 699 231 699 q 604 606 509 699 q 699 309 699 513 m 257 426 l 500 426 q 385 567 491 567 q 257 426 271 567 m 176 996 l 283 996 q 391 907 294 907 q 502 996 492 907 l 608 996 q 539 852 597 904 q 389 801 481 801 q 244 849 303 801 q 176 996 184 897 z "},"Ė":{"ha":791,"x_min":92,"x_max":754,"o":"m 754 749 l 313 749 l 313 559 l 660 559 l 660 385 l 313 385 l 313 183 l 754 183 l 754 0 l 92 0 l 92 926 l 754 926 l 754 749 m 422 1025 q 363 1048 385 1025 q 342 1103 342 1072 q 364 1158 342 1134 q 422 1182 387 1182 q 479 1161 454 1182 q 504 1103 504 1141 q 480 1046 504 1067 q 422 1025 456 1025 z "},"ė":{"ha":743,"x_min":44,"x_max":699,"o":"m 699 309 l 258 309 q 257 277 257 290 q 296 166 257 203 q 389 129 335 129 q 511 237 490 129 l 694 223 q 382 -14 617 -14 q 209 27 280 -14 q 91 146 137 68 q 44 335 44 225 q 137 599 44 498 q 377 699 231 699 q 604 606 509 699 q 699 309 699 513 m 257 426 l 500 426 q 385 567 491 567 q 257 426 271 567 m 384 808 q 326 831 347 808 q 304 886 304 855 q 326 941 304 917 q 384 965 349 965 q 441 944 416 965 q 466 886 466 924 q 442 829 466 850 q 384 808 418 808 z "},"Ę":{"ha":791,"x_min":92,"x_max":814,"o":"m 754 0 q 659 -115 659 -47 q 741 -177 659 -177 q 800 -164 768 -177 l 814 -225 q 693 -252 756 -252 q 575 -220 618 -252 q 532 -136 532 -189 q 656 0 532 -47 l 92 0 l 92 926 l 754 926 l 754 749 l 313 749 l 313 559 l 660 559 l 660 385 l 313 385 l 313 183 l 754 183 l 754 0 z "},"ę":{"ha":743,"x_min":44,"x_max":699,"o":"m 618 -153 l 632 -209 q 515 -233 584 -233 q 408 -203 446 -233 q 370 -126 370 -174 q 387 -68 370 -94 q 467 -5 404 -43 q 382 -14 422 -14 q 135 85 227 -14 q 44 335 44 184 q 137 599 44 498 q 377 699 231 699 q 604 606 509 699 q 699 309 699 513 l 258 309 q 257 277 257 290 q 296 166 257 203 q 389 129 335 129 q 511 237 490 129 l 694 223 q 580 43 665 123 q 489 -103 489 -41 q 566 -166 489 -166 q 618 -153 581 -166 m 257 426 l 500 426 q 385 567 491 567 q 257 426 271 567 z "},"Ě":{"ha":791,"x_min":92,"x_max":754,"o":"m 754 749 l 313 749 l 313 559 l 660 559 l 660 385 l 313 385 l 313 183 l 754 183 l 754 0 l 92 0 l 92 926 l 754 926 l 754 749 m 175 1213 l 312 1226 l 424 1133 l 534 1226 l 672 1213 l 424 1000 l 175 1213 z "},"ě":{"ha":743,"x_min":44,"x_max":699,"o":"m 699 309 l 258 309 q 257 277 257 290 q 296 166 257 203 q 389 129 335 129 q 511 237 490 129 l 694 223 q 382 -14 617 -14 q 209 27 280 -14 q 91 146 137 68 q 44 335 44 225 q 137 599 44 498 q 377 699 231 699 q 604 606 509 699 q 699 309 699 513 m 257 426 l 500 426 q 385 567 491 567 q 257 426 271 567 m 141 996 l 278 1009 l 390 916 l 500 1009 l 638 996 l 390 783 l 141 996 z "},"Ĝ":{"ha":892,"x_min":49,"x_max":814,"o":"m 814 495 l 814 0 l 715 0 q 684 106 704 52 q 431 -14 585 -14 q 150 115 250 -14 q 49 450 49 245 q 156 806 49 671 q 448 940 264 940 q 698 853 603 940 q 814 622 793 766 l 608 595 q 448 763 583 763 q 315 683 360 763 q 270 456 270 604 q 319 238 270 313 q 458 163 368 163 q 562 201 516 163 q 608 322 608 239 l 433 322 l 433 495 l 814 495 m 713 1023 l 575 1008 l 464 1102 l 353 1008 l 216 1023 l 464 1236 l 713 1023 z "},"ĝ":{"ha":768,"x_min":14,"x_max":768,"o":"m 768 669 q 714 676 736 676 q 635 616 647 676 q 690 486 690 559 q 609 332 690 389 q 376 274 528 274 q 270 284 321 274 q 235 232 235 264 q 264 185 235 197 q 405 168 294 174 q 623 149 563 160 q 723 93 682 137 q 764 -17 764 49 q 676 -176 764 -111 q 368 -241 589 -241 q 87 -196 159 -241 q 14 -82 14 -151 q 132 41 14 9 q 45 163 45 85 q 182 317 45 262 q 60 484 60 367 q 144 640 60 580 q 376 699 228 699 q 557 669 469 699 q 591 765 563 728 q 711 803 619 803 q 768 798 741 803 l 768 669 m 374 590 q 293 562 322 590 q 263 488 263 534 q 375 383 263 383 q 460 414 429 383 q 491 488 491 444 q 462 559 491 528 q 374 590 433 590 m 239 5 q 209 -12 227 5 q 190 -51 190 -28 q 249 -109 190 -97 q 387 -120 308 -120 q 533 -104 491 -120 q 574 -54 574 -89 q 539 -14 574 -28 q 353 1 505 1 l 313 0 q 262 2 275 0 q 239 5 248 5 m 612 819 l 475 805 l 363 899 l 252 805 l 115 819 l 363 1032 l 612 819 z "},"Ġ":{"ha":892,"x_min":49,"x_max":814,"o":"m 814 495 l 814 0 l 715 0 q 684 106 704 52 q 431 -14 585 -14 q 150 115 250 -14 q 49 450 49 245 q 156 806 49 671 q 448 940 264 940 q 698 853 603 940 q 814 622 793 766 l 608 595 q 448 763 583 763 q 315 683 360 763 q 270 456 270 604 q 319 238 270 313 q 458 163 368 163 q 562 201 516 163 q 608 322 608 239 l 433 322 l 433 495 l 814 495 m 457 1025 q 399 1048 420 1025 q 377 1103 377 1072 q 399 1158 377 1134 q 457 1182 422 1182 q 514 1161 489 1182 q 539 1103 539 1141 q 515 1046 539 1067 q 457 1025 491 1025 z "},"ġ":{"ha":768,"x_min":14,"x_max":768,"o":"m 768 669 q 714 676 736 676 q 635 616 647 676 q 690 486 690 559 q 609 332 690 389 q 376 274 528 274 q 270 284 321 274 q 235 232 235 264 q 264 185 235 197 q 405 168 294 174 q 623 149 563 160 q 723 93 682 137 q 764 -17 764 49 q 676 -176 764 -111 q 368 -241 589 -241 q 87 -196 159 -241 q 14 -82 14 -151 q 132 41 14 9 q 45 163 45 85 q 182 317 45 262 q 60 484 60 367 q 144 640 60 580 q 376 699 228 699 q 557 669 469 699 q 591 765 563 728 q 711 803 619 803 q 768 798 741 803 l 768 669 m 374 590 q 293 562 322 590 q 263 488 263 534 q 375 383 263 383 q 460 414 429 383 q 491 488 491 444 q 462 559 491 528 q 374 590 433 590 m 239 5 q 209 -12 227 5 q 190 -51 190 -28 q 249 -109 190 -97 q 387 -120 308 -120 q 533 -104 491 -120 q 574 -54 574 -89 q 539 -14 574 -28 q 353 1 505 1 l 313 0 q 262 2 275 0 q 239 5 248 5 m 384 808 q 326 831 347 808 q 304 886 304 855 q 326 941 304 917 q 384 965 349 965 q 441 944 416 965 q 466 886 466 924 q 442 829 466 850 q 384 808 418 808 z "},"Ģ":{"ha":892,"x_min":49,"x_max":814,"o":"m 814 495 l 814 0 l 715 0 q 684 106 704 52 q 431 -14 585 -14 q 150 115 250 -14 q 49 450 49 245 q 156 806 49 671 q 448 940 264 940 q 698 853 603 940 q 814 622 793 766 l 608 595 q 448 763 583 763 q 315 683 360 763 q 270 456 270 604 q 319 238 270 313 q 458 163 368 163 q 562 201 516 163 q 608 322 608 239 l 433 322 l 433 495 l 814 495 m 533 -74 l 410 -334 l 338 -334 l 376 -74 l 533 -74 z "},"ģ":{"ha":768,"x_min":14,"x_max":768,"o":"m 768 669 q 714 676 736 676 q 635 616 647 676 q 690 486 690 559 q 609 332 690 389 q 376 274 528 274 q 270 284 321 274 q 235 232 235 264 q 264 185 235 197 q 405 168 294 174 q 623 149 563 160 q 723 93 682 137 q 764 -17 764 49 q 676 -176 764 -111 q 368 -241 589 -241 q 87 -196 159 -241 q 14 -82 14 -151 q 132 41 14 9 q 45 163 45 85 q 182 317 45 262 q 60 484 60 367 q 144 640 60 580 q 376 699 228 699 q 557 669 469 699 q 591 765 563 728 q 711 803 619 803 q 768 798 741 803 l 768 669 m 374 590 q 293 562 322 590 q 263 488 263 534 q 375 383 263 383 q 460 414 429 383 q 491 488 491 444 q 462 559 491 528 q 374 590 433 590 m 239 5 q 209 -12 227 5 q 190 -51 190 -28 q 249 -109 190 -97 q 387 -120 308 -120 q 533 -104 491 -120 q 574 -54 574 -89 q 539 -14 574 -28 q 353 1 505 1 l 313 0 q 262 2 275 0 q 239 5 248 5 m 299 790 l 423 1063 l 494 1063 l 457 790 l 299 790 z "},"Ĥ":{"ha":901,"x_min":93,"x_max":808,"o":"m 808 926 l 808 0 l 595 0 l 595 382 l 306 382 l 306 0 l 93 0 l 93 926 l 306 926 l 306 565 l 595 565 l 595 926 l 808 926 m 699 1023 l 562 1008 l 450 1102 l 339 1008 l 202 1023 l 450 1236 l 699 1023 z "},"ĥ":{"ha":755,"x_min":-58,"x_max":672,"o":"m 279 926 l 279 591 q 465 699 335 699 q 583 669 534 699 q 652 591 632 639 q 672 452 672 544 l 672 0 l 471 0 l 471 386 q 465 481 471 455 q 440 524 460 507 q 392 541 421 541 q 317 512 354 541 q 279 386 279 482 l 279 0 l 83 0 l 83 926 l 279 926 m 439 1023 l 301 1008 l 190 1102 l 79 1008 l -58 1023 l 190 1236 l 439 1023 z "},"Ħ":{"ha":901,"x_min":9,"x_max":892,"o":"m 892 819 l 892 680 l 808 680 l 808 0 l 595 0 l 595 382 l 306 382 l 306 0 l 93 0 l 93 680 l 9 680 l 9 819 l 93 819 l 93 926 l 306 926 l 306 819 l 595 819 l 595 926 l 808 926 l 808 819 l 892 819 m 306 680 l 306 565 l 595 565 l 595 680 l 306 680 z "},"ħ":{"ha":755,"x_min":5,"x_max":672,"o":"m 5 753 l 5 844 l 83 844 l 83 926 l 279 926 l 279 844 l 456 844 l 456 753 l 279 753 l 279 582 q 469 694 333 694 q 586 667 538 694 q 652 591 633 639 q 672 452 672 543 l 672 0 l 471 0 l 471 386 q 465 481 471 455 q 440 524 460 507 q 392 541 421 541 q 317 512 354 541 q 279 386 279 482 l 279 0 l 83 0 l 83 753 l 5 753 z "},"Ĩ":{"ha":402,"x_min":-28,"x_max":430,"o":"m 309 926 l 309 0 l 93 0 l 93 926 l 309 926 m 430 1116 q 279 1029 363 1029 q 171 1061 239 1029 q 117 1076 138 1076 q 29 1031 75 1076 l -28 1108 q 115 1182 39 1182 q 216 1155 159 1182 q 277 1135 256 1135 q 373 1192 324 1135 l 430 1116 z "},"ĩ":{"ha":368,"x_min":-45,"x_max":414,"o":"m 286 685 l 286 0 l 83 0 l 83 685 l 286 685 m 414 894 q 263 806 347 806 q 155 838 222 806 q 100 853 121 853 q 13 809 58 853 l -45 886 q 99 960 23 960 q 199 932 142 960 q 261 913 240 913 q 357 969 308 913 l 414 894 z "},"Ī":{"ha":402,"x_min":1,"x_max":417,"o":"m 309 926 l 309 0 l 93 0 l 93 926 l 309 926 m 417 1147 l 417 1050 l 1 1050 l 1 1147 l 417 1147 z "},"ī":{"ha":368,"x_min":-18,"x_max":398,"o":"m 286 685 l 286 0 l 83 0 l 83 685 l 286 685 m 398 930 l 398 833 l -18 833 l -18 930 l 398 930 z "},"Ĭ":{"ha":402,"x_min":-21,"x_max":411,"o":"m 309 926 l 309 0 l 93 0 l 93 926 l 309 926 m -21 1204 l 85 1204 q 194 1116 96 1116 q 304 1204 294 1116 l 411 1204 q 341 1061 399 1113 q 192 1010 283 1010 q 46 1058 106 1010 q -21 1204 -13 1105 z "},"ĭ":{"ha":368,"x_min":-32,"x_max":400,"o":"m 286 685 l 286 0 l 83 0 l 83 685 l 286 685 m -32 996 l 75 996 q 183 907 85 907 q 294 996 283 907 l 400 996 q 331 852 389 904 q 181 801 273 801 q 36 849 95 801 q -32 996 -24 897 z "},"Į":{"ha":402,"x_min":93,"x_max":360,"o":"m 309 0 q 224 -115 224 -58 q 244 -160 224 -143 q 294 -177 264 -177 q 346 -164 312 -177 l 360 -225 q 253 -252 301 -252 q 140 -221 184 -252 q 96 -136 96 -191 q 216 0 96 -54 l 93 0 l 93 926 l 309 926 l 309 0 z "},"į":{"ha":368,"x_min":82,"x_max":331,"o":"m 286 945 l 286 743 l 83 743 l 83 945 l 286 945 m 286 0 q 201 -111 201 -51 q 222 -153 201 -136 q 268 -171 242 -171 q 317 -158 280 -171 l 331 -214 q 222 -238 284 -238 q 119 -207 157 -238 q 82 -131 82 -176 q 101 -69 82 -98 q 197 0 120 -40 l 83 0 l 83 685 l 286 685 l 286 0 z "},"Ĳ":{"ha":922,"x_min":93,"x_max":836,"o":"m 309 926 l 309 0 l 93 0 l 93 926 l 309 926 m 836 926 l 836 265 q 769 55 836 124 q 547 -14 701 -14 q 400 0 479 -14 l 400 180 q 511 169 465 169 q 575 183 551 169 q 609 219 598 198 q 620 292 620 240 l 620 926 l 836 926 z "},"ĳ":{"ha":741,"x_min":83,"x_max":659,"o":"m 286 685 l 286 0 l 83 0 l 83 685 l 286 685 m 286 945 l 286 743 l 83 743 l 83 945 l 286 945 m 659 685 l 659 37 q 657 -62 659 -17 q 633 -153 656 -107 q 560 -223 610 -199 q 437 -248 510 -248 q 327 -236 396 -248 l 327 -77 q 374 -81 359 -81 q 433 -57 414 -81 q 452 37 452 -33 l 452 685 l 659 685 m 659 945 l 659 741 l 452 741 l 452 945 l 659 945 z "},"Ĵ":{"ha":529,"x_min":9,"x_max":591,"o":"m 446 926 l 446 265 q 378 55 446 124 q 156 -14 311 -14 q 9 0 88 -14 l 9 180 q 120 169 74 169 q 184 183 161 169 q 218 219 208 198 q 229 292 229 240 l 229 926 l 446 926 m 591 1023 l 453 1008 l 342 1102 l 231 1008 l 94 1023 l 342 1236 l 591 1023 z "},"ĵ":{"ha":373,"x_min":-64,"x_max":433,"o":"m 290 685 l 290 37 q 289 -62 290 -17 q 264 -153 288 -107 q 191 -223 241 -199 q 68 -248 141 -248 q -42 -236 27 -248 l -42 -77 q 5 -81 -9 -81 q 64 -57 45 -81 q 83 37 83 -33 l 83 685 l 290 685 m 433 806 l 295 791 l 184 885 l 73 791 l -64 806 l 184 1019 l 433 806 z "},"Ķ":{"ha":876,"x_min":93,"x_max":859,"o":"m 306 926 l 306 490 l 596 926 l 804 926 l 581 595 l 859 0 l 620 0 l 436 401 l 306 212 l 306 0 l 93 0 l 93 926 l 306 926 m 545 -74 l 422 -334 l 351 -334 l 388 -74 l 545 -74 z "},"ķ":{"ha":754,"x_min":83,"x_max":759,"o":"m 536 453 l 759 0 l 536 0 l 393 311 l 274 175 l 274 0 l 83 0 l 83 926 l 274 926 l 274 371 l 304 408 q 336 450 323 434 l 536 685 l 732 685 l 536 453 m 486 -74 l 362 -334 l 291 -334 l 328 -74 l 486 -74 z "},"ĸ":{"ha":754,"x_min":83,"x_max":759,"o":"m 536 453 l 759 0 l 536 0 l 393 311 l 274 175 l 274 0 l 83 0 l 83 685 l 274 685 l 274 371 l 304 408 q 336 450 323 434 l 536 685 l 732 685 l 536 453 z "},"Ĺ":{"ha":699,"x_min":93,"x_max":681,"o":"m 313 183 l 681 183 l 681 0 l 93 0 l 93 926 l 313 926 l 313 183 m 374 1245 l 425 1131 l 127 1004 l 93 1080 l 374 1245 z "},"ĺ":{"ha":368,"x_min":74,"x_max":406,"o":"m 83 0 l 83 926 l 286 926 l 286 0 l 83 0 m 355 1242 l 406 1128 l 108 1002 l 74 1078 l 355 1242 z "},"Ļ":{"ha":699,"x_min":93,"x_max":681,"o":"m 313 183 l 681 183 l 681 0 l 93 0 l 93 926 l 313 926 l 313 183 m 470 -74 l 347 -334 l 275 -334 l 313 -74 l 470 -74 z "},"ļ":{"ha":368,"x_min":68,"x_max":286,"o":"m 83 0 l 83 926 l 286 926 l 286 0 l 83 0 m 262 -74 l 139 -334 l 68 -334 l 105 -74 l 262 -74 z "},"Ľ":{"ha":699,"x_min":93,"x_max":681,"o":"m 313 183 l 681 183 l 681 0 l 93 0 l 93 926 l 313 926 l 313 183 m 621 926 l 496 652 l 425 652 l 463 926 l 621 926 z "},"ľ":{"ha":526,"x_min":83,"x_max":536,"o":"m 83 0 l 83 926 l 286 926 l 286 0 l 83 0 m 536 926 l 412 652 l 341 652 l 378 926 l 536 926 z "},"Ŀ":{"ha":699,"x_min":93,"x_max":681,"o":"m 313 183 l 681 183 l 681 0 l 93 0 l 93 926 l 313 926 l 313 183 m 655 374 l 446 374 l 446 579 l 655 579 l 655 374 z "},"ŀ":{"ha":578,"x_min":83,"x_max":578,"o":"m 83 0 l 83 926 l 286 926 l 286 0 l 83 0 m 578 374 l 369 374 l 369 579 l 578 579 l 578 374 z "},"Ń":{"ha":898,"x_min":93,"x_max":806,"o":"m 806 926 l 806 0 l 621 0 l 258 625 q 259 594 258 602 q 262 554 262 570 l 262 0 l 93 0 l 93 926 l 327 926 l 642 380 q 638 441 638 420 l 638 926 l 806 926 m 623 1242 l 675 1128 l 376 1002 l 342 1078 l 623 1242 z "},"ń":{"ha":762,"x_min":83,"x_max":679,"o":"m 679 0 l 477 0 l 477 385 q 471 480 477 454 q 445 524 466 506 q 392 542 424 542 q 286 385 286 542 l 286 0 l 83 0 l 83 685 l 271 685 l 271 569 q 363 675 318 652 q 462 699 409 699 q 619 647 559 699 q 679 440 679 594 l 679 0 m 547 1028 l 598 914 l 300 787 l 266 863 l 547 1028 z "},"Ņ":{"ha":898,"x_min":93,"x_max":806,"o":"m 806 926 l 806 0 l 621 0 l 258 625 q 259 594 258 602 q 262 554 262 570 l 262 0 l 93 0 l 93 926 l 327 926 l 642 380 q 638 441 638 420 l 638 926 l 806 926 m 537 -74 l 414 -334 l 342 -334 l 380 -74 l 537 -74 z "},"ņ":{"ha":762,"x_min":83,"x_max":679,"o":"m 679 0 l 477 0 l 477 385 q 471 480 477 454 q 445 524 466 506 q 392 542 424 542 q 286 385 286 542 l 286 0 l 83 0 l 83 685 l 271 685 l 271 569 q 363 675 318 652 q 462 699 409 699 q 619 647 559 699 q 679 440 679 594 l 679 0 m 469 -74 l 346 -334 l 275 -334 l 312 -74 l 469 -74 z "},"Ň":{"ha":898,"x_min":93,"x_max":806,"o":"m 806 926 l 806 0 l 621 0 l 258 625 q 259 594 258 602 q 262 554 262 570 l 262 0 l 93 0 l 93 926 l 327 926 l 642 380 q 638 441 638 420 l 638 926 l 806 926 m 227 1213 l 363 1226 l 475 1133 l 586 1226 l 724 1213 l 475 1000 l 227 1213 z "},"ň":{"ha":762,"x_min":83,"x_max":679,"o":"m 679 0 l 477 0 l 477 385 q 471 480 477 454 q 445 524 466 506 q 392 542 424 542 q 286 385 286 542 l 286 0 l 83 0 l 83 685 l 271 685 l 271 569 q 363 675 318 652 q 462 699 409 699 q 619 647 559 699 q 679 440 679 594 l 679 0 m 123 996 l 260 1009 l 372 916 l 483 1009 l 621 996 l 372 783 l 123 996 z "},"ŉ":{"ha":1006,"x_min":79,"x_max":922,"o":"m 922 0 l 720 0 l 720 385 q 715 480 720 454 q 688 524 709 506 q 635 542 667 542 q 529 385 529 542 l 529 0 l 327 0 l 327 685 l 515 685 l 515 569 q 607 675 562 652 q 705 699 652 699 q 863 647 803 699 q 922 440 922 594 l 922 0 m 79 548 l 173 732 l 79 732 l 79 926 l 276 926 l 276 757 l 154 548 l 79 548 z "},"Ŋ":{"ha":901,"x_min":93,"x_max":808,"o":"m 93 926 l 302 926 l 302 769 q 415 908 359 876 q 554 940 471 940 q 695 900 637 940 q 781 797 754 861 q 808 594 808 733 l 808 137 q 803 -40 808 9 q 769 -140 798 -90 q 686 -219 740 -191 q 553 -248 633 -248 q 427 -232 504 -248 l 427 -68 q 490 -73 470 -73 q 570 -41 545 -73 q 595 86 595 -9 l 595 543 q 588 670 595 636 q 548 730 580 705 q 466 755 517 755 q 352 705 397 755 q 306 543 306 656 l 306 0 l 93 0 l 93 926 z "},"ŋ":{"ha":762,"x_min":83,"x_max":679,"o":"m 352 -236 l 352 -77 q 399 -81 384 -81 q 459 -55 441 -81 q 477 37 477 -28 l 477 385 q 471 480 477 454 q 445 524 466 506 q 392 542 424 542 q 286 385 286 542 l 286 0 l 83 0 l 83 685 l 271 685 l 271 569 q 363 675 318 652 q 462 699 409 699 q 619 647 559 699 q 679 440 679 594 l 679 37 q 674 -94 679 -58 q 646 -166 669 -130 q 575 -225 622 -203 q 458 -248 528 -248 q 352 -236 418 -248 z "},"Ō":{"ha":888,"x_min":49,"x_max":840,"o":"m 441 -14 q 151 126 254 -14 q 49 466 49 267 q 153 804 49 669 q 448 940 256 940 q 741 795 642 940 q 840 464 840 650 q 738 124 840 262 q 441 -14 636 -14 m 447 763 q 276 463 276 763 q 447 163 276 163 q 612 463 612 163 q 447 763 612 763 m 661 1147 l 661 1050 l 245 1050 l 245 1147 l 661 1147 z "},"ō":{"ha":743,"x_min":44,"x_max":700,"o":"m 368 699 q 612 597 524 699 q 700 340 700 494 q 609 87 700 189 q 366 -14 517 -14 q 132 86 220 -14 q 44 344 44 186 q 84 529 44 453 q 193 652 123 606 q 368 699 262 699 m 373 567 q 286 523 315 567 q 257 346 257 478 q 285 172 257 224 q 372 119 313 119 q 455 164 423 119 q 487 336 487 209 q 459 519 487 471 q 373 567 431 567 m 585 930 l 585 833 l 168 833 l 168 930 l 585 930 z "},"Ŏ":{"ha":888,"x_min":49,"x_max":840,"o":"m 441 -14 q 151 126 254 -14 q 49 466 49 267 q 153 804 49 669 q 448 940 256 940 q 741 795 642 940 q 840 464 840 650 q 738 124 840 262 q 441 -14 636 -14 m 447 763 q 276 463 276 763 q 447 163 276 163 q 612 463 612 163 q 447 763 612 763 m 229 1204 l 335 1204 q 444 1116 346 1116 q 554 1204 544 1116 l 661 1204 q 591 1061 649 1113 q 441 1010 533 1010 q 296 1058 355 1010 q 229 1204 237 1105 z "},"ŏ":{"ha":743,"x_min":44,"x_max":700,"o":"m 368 699 q 612 597 524 699 q 700 340 700 494 q 609 87 700 189 q 366 -14 517 -14 q 132 86 220 -14 q 44 344 44 186 q 84 529 44 453 q 193 652 123 606 q 368 699 262 699 m 373 567 q 286 523 315 567 q 257 346 257 478 q 285 172 257 224 q 372 119 313 119 q 455 164 423 119 q 487 336 487 209 q 459 519 487 471 q 373 567 431 567 m 156 996 l 262 996 q 371 907 273 907 q 481 996 471 907 l 588 996 q 518 852 576 904 q 369 801 460 801 q 223 849 283 801 q 156 996 164 897 z "},"Ő":{"ha":888,"x_min":49,"x_max":840,"o":"m 441 -14 q 151 126 254 -14 q 49 466 49 267 q 153 804 49 669 q 448 940 256 940 q 741 795 642 940 q 840 464 840 650 q 738 124 840 262 q 441 -14 636 -14 m 447 763 q 276 463 276 763 q 447 163 276 163 q 612 463 612 163 q 447 763 612 763 m 477 1245 l 543 1149 l 304 1004 l 262 1071 l 477 1245 m 719 1245 l 784 1149 l 546 1004 l 503 1071 l 719 1245 z "},"ő":{"ha":744,"x_min":44,"x_max":713,"o":"m 368 699 q 612 597 524 699 q 700 340 700 494 q 609 87 700 189 q 366 -14 517 -14 q 132 86 220 -14 q 44 344 44 186 q 84 529 44 453 q 193 652 123 606 q 368 699 262 699 m 373 567 q 286 523 315 567 q 257 346 257 478 q 285 172 257 224 q 372 119 313 119 q 455 164 423 119 q 487 336 487 209 q 459 519 487 471 q 373 567 431 567 m 406 1028 l 472 932 l 233 787 l 191 854 l 406 1028 m 648 1028 l 713 932 l 475 787 l 431 854 l 648 1028 z "},"Ŕ":{"ha":913,"x_min":93,"x_max":848,"o":"m 311 367 l 311 0 l 93 0 l 93 926 l 500 926 q 681 900 612 926 q 793 804 749 873 q 838 648 838 734 q 677 409 838 481 l 848 0 l 609 0 l 467 367 l 311 367 m 311 761 l 311 525 l 444 525 q 539 534 509 525 q 591 575 568 543 q 614 647 614 606 q 591 716 614 686 q 541 754 568 747 q 439 761 514 761 l 311 761 m 602 1245 l 653 1131 l 355 1004 l 321 1080 l 602 1245 z "},"ŕ":{"ha":482,"x_min":83,"x_max":505,"o":"m 279 0 l 83 0 l 83 685 l 269 685 l 269 557 q 416 700 311 700 q 453 698 431 700 l 453 498 q 357 479 391 498 q 301 411 323 460 q 279 279 279 362 l 279 0 m 453 1028 l 505 914 l 206 787 l 172 863 l 453 1028 z "},"Ŗ":{"ha":913,"x_min":93,"x_max":848,"o":"m 311 367 l 311 0 l 93 0 l 93 926 l 500 926 q 681 900 612 926 q 793 804 749 873 q 838 648 838 734 q 677 409 838 481 l 848 0 l 609 0 l 467 367 l 311 367 m 311 761 l 311 525 l 444 525 q 539 534 509 525 q 591 575 568 543 q 614 647 614 606 q 591 716 614 686 q 541 754 568 747 q 439 761 514 761 l 311 761 m 545 -74 l 421 -334 l 350 -334 l 387 -74 l 545 -74 z "},"ŗ":{"ha":482,"x_min":68,"x_max":453,"o":"m 279 0 l 83 0 l 83 685 l 269 685 l 269 557 q 416 700 311 700 q 453 698 431 700 l 453 498 q 357 479 391 498 q 301 411 323 460 q 279 279 279 362 l 279 0 m 263 -74 l 140 -334 l 68 -334 l 106 -74 l 263 -74 z "},"Ř":{"ha":913,"x_min":93,"x_max":848,"o":"m 311 367 l 311 0 l 93 0 l 93 926 l 500 926 q 681 900 612 926 q 793 804 749 873 q 838 648 838 734 q 677 409 838 481 l 848 0 l 609 0 l 467 367 l 311 367 m 311 761 l 311 525 l 444 525 q 539 534 509 525 q 591 575 568 543 q 614 647 614 606 q 591 716 614 686 q 541 754 568 747 q 439 761 514 761 l 311 761 m 186 1218 l 323 1232 l 435 1139 l 545 1232 l 683 1218 l 435 1005 l 186 1218 z "},"ř":{"ha":482,"x_min":25,"x_max":522,"o":"m 279 0 l 83 0 l 83 685 l 269 685 l 269 557 q 416 700 311 700 q 453 698 431 700 l 453 498 q 357 479 391 498 q 301 411 323 460 q 279 279 279 362 l 279 0 m 25 996 l 162 1009 l 274 916 l 385 1009 l 522 996 l 274 783 l 25 996 z "},"Ś":{"ha":806,"x_min":0,"x_max":758,"o":"m 732 722 l 548 661 q 390 770 511 770 q 261 687 261 770 q 285 631 261 654 q 394 591 309 608 q 602 533 536 562 q 712 439 667 504 q 758 294 758 374 q 661 77 758 169 q 374 -14 564 -14 q 132 51 232 -14 q 0 243 32 115 l 201 288 q 389 159 235 159 q 500 188 464 159 q 537 256 537 216 q 504 319 537 297 q 376 361 471 342 q 123 461 199 398 q 48 647 48 525 q 138 855 48 770 q 382 940 228 940 q 732 722 654 940 m 566 1248 l 618 1134 l 319 1007 l 286 1083 l 566 1248 z "},"ś":{"ha":657,"x_min":7,"x_max":625,"o":"m 596 519 l 449 480 q 315 573 423 573 q 214 511 214 573 q 232 472 214 487 q 330 448 251 458 q 503 412 447 432 q 592 343 559 391 q 625 224 625 295 q 545 52 625 119 q 320 -14 465 -14 q 7 189 58 -14 l 178 214 q 330 121 199 121 q 414 139 380 121 q 449 188 449 157 q 372 244 449 235 q 99 324 165 270 q 34 474 34 378 q 110 635 34 572 q 323 699 186 699 q 496 656 431 699 q 596 519 562 614 m 496 1028 l 547 914 l 249 787 l 215 863 l 496 1028 z "},"Ŝ":{"ha":806,"x_min":0,"x_max":758,"o":"m 732 722 l 548 661 q 390 770 511 770 q 261 687 261 770 q 285 631 261 654 q 394 591 309 608 q 602 533 536 562 q 712 439 667 504 q 758 294 758 374 q 661 77 758 169 q 374 -14 564 -14 q 132 51 232 -14 q 0 243 32 115 l 201 288 q 389 159 235 159 q 500 188 464 159 q 537 256 537 216 q 504 319 537 297 q 376 361 471 342 q 123 461 199 398 q 48 647 48 525 q 138 855 48 770 q 382 940 228 940 q 732 722 654 940 m 645 1025 l 507 1011 l 396 1105 l 285 1011 l 148 1025 l 396 1238 l 645 1025 z "},"ŝ":{"ha":657,"x_min":7,"x_max":625,"o":"m 596 519 l 449 480 q 315 573 423 573 q 214 511 214 573 q 232 472 214 487 q 330 448 251 458 q 503 412 447 432 q 592 343 559 391 q 625 224 625 295 q 545 52 625 119 q 320 -14 465 -14 q 7 189 58 -14 l 178 214 q 330 121 199 121 q 414 139 380 121 q 449 188 449 157 q 372 244 449 235 q 99 324 165 270 q 34 474 34 378 q 110 635 34 572 q 323 699 186 699 q 496 656 431 699 q 596 519 562 614 m 574 806 l 437 791 l 326 885 l 214 791 l 77 806 l 326 1019 l 574 806 z "},"Ţ":{"ha":680,"x_min":0,"x_max":680,"o":"m 680 926 l 680 743 l 450 743 l 450 0 l 231 0 l 231 743 l 0 743 l 0 926 l 680 926 m 428 -74 l 304 -334 l 233 -334 l 271 -74 l 428 -74 z "},"ţ":{"ha":488,"x_min":1,"x_max":468,"o":"m 311 528 l 311 238 q 327 165 311 184 q 404 147 343 147 q 468 150 431 147 l 468 0 q 341 -15 380 -15 q 162 34 215 -15 q 109 209 109 82 l 109 528 l 1 528 l 1 685 l 121 685 l 137 887 l 311 901 l 311 685 l 458 685 l 458 528 l 311 528 m 364 -74 l 241 -334 l 170 -334 l 207 -74 l 364 -74 z "},"Ť":{"ha":680,"x_min":0,"x_max":680,"o":"m 680 926 l 680 743 l 450 743 l 450 0 l 231 0 l 231 743 l 0 743 l 0 926 l 680 926 m 91 1215 l 228 1229 l 340 1136 l 450 1229 l 588 1215 l 340 1002 l 91 1215 z "},"ť":{"ha":570,"x_min":1,"x_max":581,"o":"m 311 528 l 311 238 q 327 165 311 184 q 404 147 343 147 q 468 150 431 147 l 468 0 q 341 -15 380 -15 q 162 34 215 -15 q 109 209 109 82 l 109 528 l 1 528 l 1 685 l 121 685 l 137 887 l 311 901 l 311 685 l 458 685 l 458 528 l 311 528 m 581 1033 l 456 760 l 385 760 l 422 1033 l 581 1033 z "},"Ŧ":{"ha":680,"x_min":0,"x_max":680,"o":"m 64 468 l 64 607 l 231 607 l 231 743 l 0 743 l 0 926 l 680 926 l 680 743 l 450 743 l 450 607 l 616 607 l 616 468 l 450 468 l 450 0 l 231 0 l 231 468 l 64 468 z "},"ŧ":{"ha":488,"x_min":1,"x_max":468,"o":"m 449 428 l 449 336 l 311 336 l 311 238 q 327 165 311 184 q 404 147 343 147 q 468 150 431 147 l 468 0 q 341 -15 380 -15 q 162 34 215 -15 q 109 209 109 82 l 109 336 l 10 336 l 10 428 l 109 428 l 109 528 l 1 528 l 1 685 l 121 685 l 137 887 l 311 901 l 311 685 l 458 685 l 458 528 l 311 528 l 311 428 l 449 428 z "},"Ũ":{"ha":902,"x_min":83,"x_max":823,"o":"m 823 926 l 823 349 q 791 141 823 210 q 673 30 759 73 q 454 -14 587 -14 q 241 25 320 -14 q 123 137 162 64 q 83 349 83 210 l 83 926 l 319 926 l 319 349 q 331 239 319 275 q 381 183 344 204 q 474 163 419 163 q 573 183 535 163 q 624 237 612 203 q 637 349 637 271 l 637 926 l 823 926 m 704 1116 q 553 1029 637 1029 q 445 1061 513 1029 q 391 1076 412 1076 q 303 1031 349 1076 l 245 1108 q 389 1182 313 1182 q 490 1155 433 1182 q 551 1135 530 1135 q 647 1192 598 1135 l 704 1116 z "},"ũ":{"ha":752,"x_min":83,"x_max":669,"o":"m 669 685 l 669 0 l 481 0 l 481 117 q 279 -14 429 -14 q 161 15 202 -14 q 101 93 119 43 q 83 237 83 143 l 83 685 l 279 685 l 279 237 q 355 145 279 145 q 422 167 394 145 q 459 214 451 189 q 467 300 467 239 l 467 685 l 669 685 m 608 894 q 458 806 542 806 q 349 838 417 806 q 295 853 316 853 q 208 809 253 853 l 150 886 q 294 960 218 960 q 394 932 337 960 q 456 913 435 913 q 551 969 503 913 l 608 894 z "},"Ū":{"ha":902,"x_min":83,"x_max":823,"o":"m 823 926 l 823 349 q 791 141 823 210 q 673 30 759 73 q 454 -14 587 -14 q 241 25 320 -14 q 123 137 162 64 q 83 349 83 210 l 83 926 l 319 926 l 319 349 q 331 239 319 275 q 381 183 344 204 q 474 163 419 163 q 573 183 535 163 q 624 237 612 203 q 637 349 637 271 l 637 926 l 823 926 m 659 1147 l 659 1050 l 242 1050 l 242 1147 l 659 1147 z "},"ū":{"ha":752,"x_min":83,"x_max":669,"o":"m 669 685 l 669 0 l 481 0 l 481 117 q 279 -14 429 -14 q 161 15 202 -14 q 101 93 119 43 q 83 237 83 143 l 83 685 l 279 685 l 279 237 q 355 145 279 145 q 422 167 394 145 q 459 214 451 189 q 467 300 467 239 l 467 685 l 669 685 m 582 930 l 582 833 l 165 833 l 165 930 l 582 930 z "},"Ŭ":{"ha":902,"x_min":83,"x_max":823,"o":"m 823 926 l 823 349 q 791 141 823 210 q 673 30 759 73 q 454 -14 587 -14 q 241 25 320 -14 q 123 137 162 64 q 83 349 83 210 l 83 926 l 319 926 l 319 349 q 331 239 319 275 q 381 183 344 204 q 474 163 419 163 q 573 183 535 163 q 624 237 612 203 q 637 349 637 271 l 637 926 l 823 926 m 256 1204 l 362 1204 q 471 1116 373 1116 q 581 1204 571 1116 l 688 1204 q 618 1061 676 1113 q 469 1010 560 1010 q 323 1058 382 1010 q 256 1204 264 1105 z "},"ŭ":{"ha":752,"x_min":83,"x_max":669,"o":"m 669 685 l 669 0 l 481 0 l 481 117 q 279 -14 429 -14 q 161 15 202 -14 q 101 93 119 43 q 83 237 83 143 l 83 685 l 279 685 l 279 237 q 355 145 279 145 q 422 167 394 145 q 459 214 451 189 q 467 300 467 239 l 467 685 l 669 685 m 158 996 l 264 996 q 373 907 275 907 q 484 996 473 907 l 590 996 q 520 852 578 904 q 371 801 463 801 q 225 849 285 801 q 158 996 166 897 z "},"Ů":{"ha":902,"x_min":83,"x_max":823,"o":"m 823 926 l 823 349 q 791 141 823 210 q 673 30 759 73 q 454 -14 587 -14 q 241 25 320 -14 q 123 137 162 64 q 83 349 83 210 l 83 926 l 319 926 l 319 349 q 331 239 319 275 q 381 183 344 204 q 474 163 419 163 q 573 183 535 163 q 624 237 612 203 q 637 349 637 271 l 637 926 l 823 926 m 459 980 q 367 1020 404 980 q 331 1107 331 1059 q 367 1196 331 1156 q 460 1235 404 1235 q 554 1198 516 1235 q 592 1109 592 1160 q 554 1018 592 1057 q 459 980 515 980 m 461 1056 q 500 1071 484 1056 q 516 1107 516 1086 q 500 1144 516 1128 q 462 1159 484 1159 q 422 1143 438 1159 q 407 1107 407 1128 q 423 1071 407 1086 q 461 1056 439 1056 z "},"ů":{"ha":752,"x_min":83,"x_max":669,"o":"m 669 685 l 669 0 l 481 0 l 481 117 q 279 -14 429 -14 q 161 15 202 -14 q 101 93 119 43 q 83 237 83 143 l 83 685 l 279 685 l 279 237 q 355 145 279 145 q 422 167 394 145 q 459 214 451 189 q 467 300 467 239 l 467 685 l 669 685 m 372 771 q 280 811 316 771 q 243 899 243 850 q 280 987 243 947 q 372 1026 316 1026 q 467 989 429 1026 q 505 900 505 951 q 466 809 505 848 q 372 771 428 771 m 374 847 q 412 862 396 847 q 429 899 429 878 q 413 935 429 920 q 374 950 397 950 q 335 935 351 950 q 319 899 319 919 q 335 862 319 878 q 374 847 351 847 z "},"Ű":{"ha":902,"x_min":83,"x_max":823,"o":"m 823 926 l 823 349 q 791 141 823 210 q 673 30 759 73 q 454 -14 587 -14 q 241 25 320 -14 q 123 137 162 64 q 83 349 83 210 l 83 926 l 319 926 l 319 349 q 331 239 319 275 q 381 183 344 204 q 474 163 419 163 q 573 183 535 163 q 624 237 612 203 q 637 349 637 271 l 637 926 l 823 926 m 494 1245 l 559 1149 l 321 1004 l 278 1071 l 494 1245 m 735 1245 l 800 1149 l 562 1004 l 519 1071 l 735 1245 z "},"ű":{"ha":752,"x_min":83,"x_max":717,"o":"m 669 685 l 669 0 l 481 0 l 481 117 q 279 -14 429 -14 q 161 15 202 -14 q 101 93 119 43 q 83 237 83 143 l 83 685 l 279 685 l 279 237 q 355 145 279 145 q 422 167 394 145 q 459 214 451 189 q 467 300 467 239 l 467 685 l 669 685 m 410 1028 l 476 932 l 237 787 l 195 854 l 410 1028 m 652 1028 l 717 932 l 479 787 l 435 854 l 652 1028 z "},"Ų":{"ha":902,"x_min":83,"x_max":823,"o":"m 732 -160 l 747 -220 q 626 -247 689 -247 q 508 -216 551 -247 q 465 -130 465 -184 q 481 -72 465 -100 q 569 -3 498 -43 q 454 -14 506 -14 q 241 25 320 -14 q 123 137 162 64 q 83 349 83 210 l 83 926 l 319 926 l 319 349 q 331 239 319 275 q 381 183 344 204 q 474 163 419 163 q 573 183 535 163 q 624 237 612 203 q 637 349 637 271 l 637 926 l 823 926 l 823 349 q 794 148 823 201 q 688 34 766 95 q 592 -104 592 -42 q 673 -172 592 -172 q 732 -160 701 -172 z "},"ų":{"ha":752,"x_min":83,"x_max":719,"o":"m 669 0 q 576 -108 576 -54 q 652 -171 576 -171 q 705 -158 668 -171 l 719 -214 q 602 -238 670 -238 q 495 -208 533 -238 q 456 -131 456 -178 q 576 0 456 -50 l 481 0 l 481 117 q 279 -14 429 -14 q 161 15 202 -14 q 101 93 119 43 q 83 237 83 143 l 83 685 l 279 685 l 279 237 q 355 145 279 145 q 422 167 394 145 q 459 214 451 189 q 467 300 467 239 l 467 685 l 669 685 l 669 0 z "},"Ŵ":{"ha":1213,"x_min":9,"x_max":1204,"o":"m 1204 926 l 970 0 l 758 0 l 606 612 l 459 0 l 248 0 l 9 926 l 231 926 l 358 361 q 366 331 359 357 q 373 302 368 321 l 524 926 l 724 926 l 880 302 q 894 361 885 320 l 1025 926 l 1204 926 m 878 1023 l 741 1008 l 629 1102 l 518 1008 l 381 1023 l 629 1236 l 878 1023 z "},"ŵ":{"ha":1002,"x_min":7,"x_max":989,"o":"m 989 685 l 783 0 l 605 0 l 496 441 l 389 0 l 218 0 l 7 685 l 218 685 l 330 267 l 434 685 l 617 685 l 718 264 l 833 685 l 989 685 m 766 806 l 628 791 l 517 885 l 406 791 l 269 806 l 517 1019 l 766 806 z "},"Ŷ":{"ha":724,"x_min":-37,"x_max":762,"o":"m 762 926 l 471 390 l 471 0 l 254 0 l 254 390 l -37 926 l 214 926 l 391 574 l 567 926 l 762 926 m 621 1023 l 483 1008 l 372 1102 l 260 1008 l 123 1023 l 372 1236 l 621 1023 z "},"ŷ":{"ha":618,"x_min":-5,"x_max":614,"o":"m 614 685 l 399 28 q 338 -131 363 -82 q 265 -210 313 -180 q 132 -239 217 -239 q 35 -231 89 -239 l 35 -76 q 134 -85 88 -85 q 214 -63 193 -85 q 244 0 234 -41 l -5 685 l 209 685 l 340 277 l 467 685 l 614 685 m 563 806 l 425 791 l 314 885 l 203 791 l 66 806 l 314 1019 l 563 806 z "},"Ź":{"ha":803,"x_min":28,"x_max":775,"o":"m 760 766 l 292 177 l 775 177 l 775 0 l 28 0 l 28 157 l 494 751 l 59 751 l 59 926 l 760 926 l 760 766 m 577 1245 l 629 1131 l 330 1004 l 296 1080 l 577 1245 z "},"ź":{"ha":595,"x_min":28,"x_max":567,"o":"m 553 685 l 553 559 l 248 147 l 567 147 l 567 0 l 28 0 l 28 147 l 330 547 l 53 547 l 53 685 l 553 685 m 481 1028 l 533 914 l 235 787 l 201 863 l 481 1028 z "},"Ż":{"ha":803,"x_min":28,"x_max":775,"o":"m 760 766 l 292 177 l 775 177 l 775 0 l 28 0 l 28 157 l 494 751 l 59 751 l 59 926 l 760 926 l 760 766 m 408 1025 q 350 1048 372 1025 q 328 1103 328 1072 q 351 1158 328 1134 q 408 1182 373 1182 q 465 1161 440 1182 q 490 1103 490 1141 q 466 1046 490 1067 q 408 1025 442 1025 z "},"ż":{"ha":595,"x_min":28,"x_max":567,"o":"m 553 685 l 553 559 l 248 147 l 567 147 l 567 0 l 28 0 l 28 147 l 330 547 l 53 547 l 53 685 l 553 685 m 305 808 q 247 831 269 808 q 225 886 225 855 q 248 941 225 917 q 305 965 270 965 q 362 944 337 965 q 387 886 387 924 q 363 829 387 850 q 305 808 339 808 z "},"ſ":{"ha":814,"x_min":283,"x_max":621,"o":"m 479 0 l 283 0 l 283 685 q 299 842 283 792 q 373 927 315 891 q 526 963 430 963 q 621 956 568 963 l 621 800 q 549 803 577 803 q 493 781 507 803 q 479 711 479 760 l 479 0 z "},"Ǻ":{"ha":844,"x_min":0,"x_max":838,"o":"m 530 1319 l 575 1201 l 273 1097 l 239 1178 l 530 1319 m 545 924 l 838 0 l 604 0 l 548 191 l 248 191 l 190 0 l 0 0 l 298 924 q 283 980 283 951 q 323 1071 283 1033 q 421 1109 363 1109 q 519 1071 479 1109 q 559 980 559 1033 q 545 924 559 951 m 421 921 q 464 939 446 921 q 481 980 481 956 q 462 1025 481 1010 q 421 1040 444 1040 q 379 1023 397 1040 q 361 982 361 1007 q 379 938 361 956 q 421 921 397 921 m 300 361 l 497 361 l 399 709 l 300 361 z "},"ǻ":{"ha":752,"x_min":42,"x_max":682,"o":"m 682 0 l 486 0 q 476 107 476 41 q 373 10 425 34 q 257 -14 322 -14 q 101 38 161 -14 q 42 178 42 90 q 77 297 42 243 q 188 382 111 351 q 467 428 264 413 l 467 467 q 368 567 467 567 q 249 467 261 567 l 62 485 q 173 650 81 602 q 382 699 265 699 q 513 683 452 699 q 610 634 575 667 q 656 565 644 602 q 669 439 669 529 l 669 128 q 682 0 669 39 m 467 328 q 255 200 255 307 q 277 138 255 164 q 341 112 300 112 q 431 156 395 112 q 467 266 467 201 l 467 328 m 392 743 q 300 783 336 743 q 264 871 264 823 q 300 959 264 920 q 393 998 336 998 q 487 961 449 998 q 525 872 525 924 q 487 782 525 820 q 392 743 448 743 m 394 819 q 433 834 416 819 q 449 871 449 850 q 433 907 449 892 q 395 922 417 922 q 355 907 371 922 q 340 871 340 891 q 356 834 340 850 q 394 819 372 819 m 481 1232 l 533 1118 l 235 991 l 201 1067 l 481 1232 z "},"Ǽ":{"ha":1171,"x_min":-9,"x_max":1133,"o":"m 1133 751 l 709 751 l 709 561 l 1048 561 l 1048 387 l 709 387 l 709 183 l 1133 183 l 1133 0 l 492 0 l 492 214 l 275 214 l 178 0 l -9 0 l 414 926 l 1133 926 l 1133 751 m 340 368 l 492 368 l 492 702 l 340 368 m 903 1245 l 954 1131 l 656 1004 l 622 1080 l 903 1245 z "},"ǽ":{"ha":1112,"x_min":41,"x_max":1067,"o":"m 1067 309 l 644 309 q 680 166 644 201 q 769 130 717 130 q 890 236 869 130 l 1067 221 q 765 -14 1005 -14 q 505 109 601 -14 q 251 -14 408 -14 q 98 41 155 -14 q 41 177 41 96 q 117 343 41 278 q 462 428 193 409 l 462 481 q 362 567 462 567 q 247 464 258 567 l 64 481 q 172 648 81 597 q 372 699 262 699 q 573 636 492 699 q 759 699 654 699 q 977 612 887 699 q 1067 309 1067 524 m 644 428 l 880 428 q 846 537 873 508 q 768 567 819 567 q 644 428 661 567 m 462 328 q 249 201 249 317 q 272 139 249 165 q 334 113 295 113 q 424 156 387 113 q 462 263 462 199 l 462 328 m 692 1028 l 744 914 l 446 787 l 412 863 l 692 1028 z "},"Ǿ":{"ha":888,"x_min":49,"x_max":840,"o":"m 804 1001 l 713 833 q 840 463 840 679 q 738 124 840 262 q 433 -14 635 -14 q 262 24 339 -14 l 207 -75 l 84 -75 l 177 95 q 49 460 49 241 q 149 799 49 659 q 450 940 248 940 q 623 903 546 940 l 681 1001 l 804 1001 m 295 307 l 535 736 q 446 763 497 763 q 311 671 347 763 q 275 446 275 578 q 295 307 275 366 m 353 192 q 452 163 387 163 q 612 460 612 163 q 595 625 612 553 l 353 192 m 555 1245 l 607 1131 l 309 1004 l 275 1080 l 555 1245 z "},"ǿ":{"ha":743,"x_min":44,"x_max":700,"o":"m 661 756 l 587 622 q 700 340 700 520 q 610 87 700 189 q 370 -14 519 -14 q 241 7 311 -14 l 191 -71 l 81 -71 l 155 63 q 44 340 44 167 q 127 594 44 490 q 368 699 210 699 q 503 675 455 699 l 551 756 l 661 756 m 263 251 l 429 549 q 372 567 414 567 q 286 524 315 567 q 256 372 256 481 q 263 251 256 321 m 312 138 q 370 118 339 118 q 486 330 486 118 q 479 441 486 390 l 312 138 m 482 1028 l 534 914 l 235 787 l 201 863 l 482 1028 z "},"΄":{"ha":694,"x_min":-150,"x_max":133,"o":"m 23 1000 l 133 926 l -84 685 l -150 738 l 23 1000 z "},"΅":{"ha":694,"x_min":153,"x_max":541,"o":"m 452 1219 l 532 1131 l 337 989 l 283 1048 l 452 1219 m 459 808 q 401 831 422 808 q 379 886 379 855 q 402 941 379 917 q 460 965 425 965 q 517 944 492 965 q 541 886 541 923 q 517 829 541 850 q 459 808 493 808 m 233 808 q 174 831 196 808 q 153 886 153 855 q 175 941 153 917 q 233 965 197 965 q 290 944 264 965 q 315 886 315 924 q 291 829 315 850 q 233 808 267 808 z "},"Ά":{"ha":844,"x_min":-79,"x_max":838,"o":"m 94 1000 l 204 926 l -13 685 l -79 738 l 94 1000 z "},"·":{"ha":210,"x_min":0,"x_max":210,"o":"m 210 249 l 0 249 l 0 454 l 210 454 l 210 249 z "},"Έ":{"ha":791,"x_min":-250,"x_max":755,"o":"m -77 1000 l 33 926 l -184 685 l -250 738 l -77 1000 z "},"Ή":{"ha":901,"x_min":-250,"x_max":808,"o":"m -77 1000 l 33 926 l -184 685 l -250 738 l -77 1000 z "},"Ί":{"ha":402,"x_min":-251,"x_max":309,"o":"m -78 1000 l 32 926 l -185 685 l -251 738 l -78 1000 z "},"Ό":{"ha":888,"x_min":-155,"x_max":840,"o":"m 18 1000 l 127 926 l -90 685 l -155 738 l 18 1000 z "},"Ύ":{"ha":724,"x_min":-348,"x_max":762,"o":"m -175 1000 l -65 926 l -282 685 l -348 738 l -175 1000 z "},"Ώ":{"ha":951,"x_min":-170,"x_max":913,"o":"m 38 0 l 38 175 l 264 175 q 50 531 50 267 q 165 825 50 716 q 475 934 280 934 q 786 825 671 934 q 901 531 901 715 q 687 175 901 267 l 913 175 l 913 0 l 528 0 l 528 175 q 673 492 673 254 q 625 692 673 618 q 475 766 576 766 q 326 692 375 766 q 277 492 277 618 q 422 175 277 254 l 422 0 l 38 0 m 3 1000 l 113 926 l -104 685 l -170 738 l 3 1000 z "},"ΐ":{"ha":368,"x_min":-10,"x_max":378,"o":"m 290 1219 l 369 1131 l 174 989 l 120 1048 l 290 1219 m 296 808 q 238 831 260 808 q 216 886 216 855 q 239 941 216 917 q 297 965 262 965 q 354 944 330 965 q 378 886 378 923 q 354 829 378 850 q 296 808 330 808 m 70 808 q 12 831 33 808 q -10 886 -10 855 q 12 941 -10 917 q 70 965 35 965 q 127 944 102 965 q 152 886 152 924 q 128 829 152 850 q 70 808 104 808 z "},"Α":{"ha":844,"x_min":0,"x_max":838,"o":"m 548 926 l 838 0 l 604 0 l 548 191 l 248 191 l 190 0 l 0 0 l 296 926 l 548 926 m 300 361 l 497 361 l 399 686 l 300 361 z "},"Β":{"ha":905,"x_min":93,"x_max":859,"o":"m 93 926 l 524 926 q 699 897 640 926 q 795 816 757 869 q 833 687 833 763 q 666 481 833 533 q 810 395 762 460 q 859 255 859 331 q 780 76 859 151 q 524 0 701 0 l 93 0 l 93 926 m 309 762 l 309 559 l 473 559 q 587 595 564 559 q 610 663 610 631 q 591 724 610 699 q 549 756 572 749 q 458 762 526 762 l 309 762 m 309 395 l 309 172 l 476 172 q 597 201 562 172 q 632 285 632 231 q 598 362 632 330 q 486 395 564 395 l 309 395 z "},"Γ":{"ha":649,"x_min":92,"x_max":649,"o":"m 92 0 l 92 926 l 649 926 l 649 743 l 305 743 l 305 0 l 92 0 z "},"Δ":{"ha":823,"x_min":-20,"x_max":843,"o":"m -20 0 l 285 926 l 526 926 l 843 0 l -20 0 m 210 183 l 559 183 l 394 740 l 378 740 l 210 183 z "},"Ε":{"ha":791,"x_min":92,"x_max":754,"o":"m 754 749 l 313 749 l 313 559 l 660 559 l 660 385 l 313 385 l 313 183 l 754 183 l 754 0 l 92 0 l 92 926 l 754 926 l 754 749 z "},"Ζ":{"ha":803,"x_min":28,"x_max":775,"o":"m 760 766 l 292 177 l 775 177 l 775 0 l 28 0 l 28 157 l 494 751 l 59 751 l 59 926 l 760 926 l 760 766 z "},"Η":{"ha":901,"x_min":93,"x_max":808,"o":"m 808 926 l 808 0 l 595 0 l 595 382 l 306 382 l 306 0 l 93 0 l 93 926 l 306 926 l 306 565 l 595 565 l 595 926 l 808 926 z "},"Θ":{"ha":964,"x_min":49,"x_max":916,"o":"m 482 940 q 798 807 680 940 q 916 464 916 673 q 799 121 916 257 q 479 -14 681 -14 q 169 114 289 -14 q 49 465 49 241 q 99 696 49 585 q 248 873 149 806 q 482 940 347 940 m 482 763 q 324 675 380 763 q 269 464 269 588 q 331 238 269 314 q 483 163 393 163 q 636 243 576 163 q 696 464 696 323 q 636 682 696 601 q 482 763 576 763 m 606 551 l 606 395 l 360 395 l 360 551 l 606 551 z "},"Ι":{"ha":402,"x_min":93,"x_max":309,"o":"m 309 926 l 309 0 l 93 0 l 93 926 l 309 926 z "},"Κ":{"ha":876,"x_min":93,"x_max":859,"o":"m 306 926 l 306 490 l 596 926 l 804 926 l 581 595 l 859 0 l 620 0 l 436 401 l 306 212 l 306 0 l 93 0 l 93 926 l 306 926 z "},"Λ":{"ha":781,"x_min":-20,"x_max":795,"o":"m 170 0 l -20 0 l 240 926 l 530 926 l 795 0 l 560 0 l 366 733 l 170 0 z "},"Μ":{"ha":1190,"x_min":92,"x_max":1101,"o":"m 502 0 l 274 755 l 274 0 l 92 0 l 92 926 l 430 926 l 592 372 l 763 926 l 1101 926 l 1101 0 l 883 0 l 883 755 l 650 0 l 502 0 z "},"Ν":{"ha":898,"x_min":93,"x_max":806,"o":"m 806 926 l 806 0 l 621 0 l 258 625 q 259 594 258 602 q 262 554 262 570 l 262 0 l 93 0 l 93 926 l 327 926 l 642 380 q 638 441 638 420 l 638 926 l 806 926 z "},"Ξ":{"ha":745,"x_min":46,"x_max":699,"o":"m 51 751 l 51 926 l 694 926 l 694 751 l 51 751 m 139 391 l 139 559 l 606 559 l 606 391 l 139 391 m 46 0 l 46 183 l 699 183 l 699 0 l 46 0 z "},"Ο":{"ha":888,"x_min":49,"x_max":840,"o":"m 441 -14 q 151 126 254 -14 q 49 466 49 267 q 153 804 49 669 q 448 940 256 940 q 741 795 642 940 q 840 464 840 650 q 738 124 840 262 q 441 -14 636 -14 m 447 763 q 276 463 276 763 q 447 163 276 163 q 612 463 612 163 q 447 763 612 763 z "},"Π":{"ha":872,"x_min":92,"x_max":779,"o":"m 92 0 l 92 926 l 779 926 l 779 0 l 566 0 l 566 751 l 305 751 l 305 0 l 92 0 z "},"Ρ":{"ha":838,"x_min":92,"x_max":810,"o":"m 313 344 l 313 0 l 92 0 l 92 926 l 457 926 q 644 900 579 926 q 760 806 709 873 q 810 642 810 739 q 783 508 810 573 q 707 406 756 443 q 611 356 657 368 q 465 344 564 344 l 313 344 m 305 512 l 446 512 q 559 549 527 512 q 592 635 592 587 q 556 724 592 691 q 446 758 519 758 l 305 758 l 305 512 z "},"Σ":{"ha":726,"x_min":41,"x_max":706,"o":"m 41 0 l 41 174 l 308 473 l 60 751 l 60 926 l 680 926 l 680 751 l 309 751 l 534 509 l 256 183 l 706 183 l 706 0 l 41 0 z "},"Τ":{"ha":680,"x_min":0,"x_max":680,"o":"m 680 926 l 680 743 l 450 743 l 450 0 l 231 0 l 231 743 l 0 743 l 0 926 l 680 926 z "},"Υ":{"ha":724,"x_min":-37,"x_max":762,"o":"m 762 926 l 471 390 l 471 0 l 254 0 l 254 390 l -37 926 l 214 926 l 391 574 l 567 926 l 762 926 z "},"Φ":{"ha":1042,"x_min":51,"x_max":990,"o":"m 431 86 q 147 202 243 103 q 51 463 51 301 q 147 724 51 625 q 431 840 243 823 l 431 954 l 610 954 l 610 840 q 895 724 800 823 q 990 463 990 625 q 895 202 990 301 q 610 86 799 104 l 610 -28 l 431 -28 l 431 86 m 431 686 q 250 463 250 641 q 431 241 250 286 l 431 686 m 610 241 q 791 463 791 286 q 610 686 791 641 l 610 241 z "},"Χ":{"ha":833,"x_min":2,"x_max":830,"o":"m 797 926 l 544 496 l 830 0 l 579 0 l 393 336 l 208 0 l 2 0 l 288 492 l 35 926 l 287 926 l 437 644 l 594 926 l 797 926 z "},"Ψ":{"ha":1175,"x_min":80,"x_max":1095,"o":"m 481 0 l 481 165 q 279 199 359 168 q 155 284 199 229 q 96 416 111 338 q 80 652 80 494 l 80 926 l 293 926 l 293 652 q 303 457 293 506 q 353 380 313 408 q 481 343 393 351 l 481 926 l 694 926 l 694 343 q 823 380 784 351 q 872 457 861 409 q 882 652 882 506 l 882 926 l 1095 926 l 1095 652 q 1081 418 1095 492 q 1020 286 1067 345 q 893 198 972 227 q 694 165 813 169 l 694 0 l 481 0 z "},"Ω":{"ha":951,"x_min":38,"x_max":913,"o":"m 38 0 l 38 175 l 264 175 q 50 531 50 267 q 165 825 50 716 q 475 934 280 934 q 786 825 671 934 q 901 531 901 715 q 687 175 901 267 l 913 175 l 913 0 l 528 0 l 528 175 q 673 492 673 254 q 625 692 673 618 q 475 766 576 766 q 326 692 375 766 q 277 492 277 618 q 422 175 277 254 l 422 0 l 38 0 z "},"Ϊ":{"ha":402,"x_min":12,"x_max":400,"o":"m 307 926 l 307 0 l 91 0 l 91 926 l 307 926 m 318 1025 q 260 1049 281 1025 q 238 1103 238 1073 q 261 1159 238 1135 q 319 1183 283 1183 q 376 1162 351 1183 q 400 1104 400 1141 q 376 1047 400 1068 q 318 1025 352 1025 m 92 1025 q 33 1049 55 1025 q 12 1103 12 1073 q 34 1159 12 1135 q 92 1183 56 1183 q 149 1162 123 1183 q 174 1104 174 1141 q 150 1047 174 1068 q 92 1025 125 1025 z "},"Ϋ":{"ha":724,"x_min":-37,"x_max":762,"o":"m 762 926 l 471 390 l 471 0 l 254 0 l 254 390 l -37 926 l 214 926 l 391 574 l 567 926 l 762 926 m 497 1025 q 439 1048 460 1025 q 417 1103 417 1072 q 440 1158 417 1134 q 498 1182 463 1182 q 555 1161 530 1182 q 579 1103 579 1140 q 555 1046 579 1067 q 497 1025 531 1025 m 271 1025 q 212 1048 234 1025 q 191 1103 191 1072 q 213 1158 191 1134 q 271 1182 235 1182 q 328 1161 302 1182 q 353 1103 353 1141 q 329 1046 353 1067 q 271 1025 304 1025 z "},"ά":{"ha":861,"x_min":44,"x_max":848,"o":"m 848 0 l 624 0 l 568 159 q 335 -14 483 -14 q 124 91 205 -14 q 44 348 44 197 q 130 602 44 505 q 355 699 216 699 q 576 557 499 699 l 616 685 l 830 685 l 697 361 l 848 0 m 526 347 q 443 533 474 503 q 376 564 411 564 q 291 505 326 564 q 257 343 257 446 q 291 185 257 250 q 377 121 325 121 q 467 186 435 121 q 526 347 500 252 m 543 1028 l 595 914 l 296 787 l 262 863 l 543 1028 z "},"έ":{"ha":686,"x_min":49,"x_max":669,"o":"m 431 409 l 431 292 q 331 287 361 291 q 282 262 302 283 q 262 208 262 241 q 364 121 262 121 q 486 219 461 121 l 669 191 q 573 45 648 104 q 363 -14 497 -14 q 121 48 193 -14 q 49 203 49 110 q 199 365 49 326 q 94 433 116 399 q 73 509 73 467 q 143 646 73 593 q 343 699 213 699 q 656 508 612 699 l 476 478 q 368 564 458 564 q 275 488 275 564 q 307 428 275 448 q 431 409 338 408 m 503 1028 l 555 914 l 256 787 l 222 863 l 503 1028 z "},"ή":{"ha":779,"x_min":83,"x_max":700,"o":"m 700 -231 l 498 -231 l 498 430 q 410 545 498 545 q 320 506 354 545 q 286 399 286 467 l 286 0 l 83 0 l 83 685 l 270 685 l 270 579 q 476 699 336 699 q 613 664 559 699 q 683 579 667 629 q 700 425 700 530 l 700 -231 m 541 1028 l 592 914 l 294 787 l 260 863 l 541 1028 z "},"ί":{"ha":368,"x_min":23,"x_max":355,"o":"m 304 1028 l 355 914 l 57 787 l 23 863 l 304 1028 z "},"ΰ":{"ha":765,"x_min":78,"x_max":687,"o":"m 280 685 l 280 307 q 297 156 280 191 q 382 121 314 121 q 468 156 450 121 q 485 307 485 190 l 485 685 l 687 685 l 687 307 q 657 116 687 178 q 563 20 627 54 q 389 -14 499 -14 q 157 50 235 -14 q 78 307 78 114 l 78 685 l 280 685 m 488 1219 l 567 1131 l 372 989 l 318 1048 l 488 1219 m 494 808 q 436 831 458 808 q 414 886 414 855 q 437 941 414 917 q 495 965 460 965 q 552 944 528 965 q 576 886 576 923 q 552 829 576 850 q 494 808 528 808 m 268 808 q 210 831 231 808 q 188 886 188 855 q 210 941 188 917 q 268 965 233 965 q 325 944 300 965 q 350 886 350 924 q 326 829 350 850 q 268 808 302 808 z "},"α":{"ha":861,"x_min":44,"x_max":848,"o":"m 848 0 l 624 0 l 568 159 q 335 -14 483 -14 q 124 91 205 -14 q 44 348 44 197 q 130 602 44 505 q 355 699 216 699 q 576 557 499 699 l 616 685 l 830 685 l 697 361 l 848 0 m 526 347 q 443 533 474 503 q 376 564 411 564 q 291 505 326 564 q 257 343 257 446 q 291 185 257 250 q 377 121 325 121 q 467 186 435 121 q 526 347 500 252 z "},"β":{"ha":807,"x_min":89,"x_max":764,"o":"m 89 -231 l 89 596 q 116 793 89 724 q 211 901 144 861 q 397 940 278 940 q 636 873 562 940 q 711 715 711 806 q 533 522 711 562 q 764 271 764 474 q 682 69 764 152 q 470 -14 600 -14 q 291 79 355 -14 l 291 -231 l 89 -231 m 291 184 q 406 121 334 121 q 510 168 469 121 q 551 302 551 214 q 532 386 551 349 q 482 438 513 423 q 391 453 452 453 l 391 567 q 486 602 463 568 q 509 687 509 635 q 396 810 509 810 q 318 780 345 810 q 291 623 291 749 l 291 184 z "},"γ":{"ha":632,"x_min":-14,"x_max":654,"o":"m 212 -231 l 212 7 l -14 685 l 202 685 l 337 244 l 490 685 l 654 685 l 413 7 l 413 -231 l 212 -231 z "},"δ":{"ha":784,"x_min":49,"x_max":736,"o":"m 647 926 l 647 779 l 385 779 l 472 723 q 736 323 736 552 q 645 76 736 168 q 393 -17 553 -17 q 142 74 235 -17 q 49 324 49 164 q 124 532 49 450 q 342 627 200 614 l 130 793 l 130 926 l 647 926 m 394 516 q 298 474 334 516 q 262 317 262 433 q 294 164 262 210 q 393 119 326 119 q 493 171 463 119 q 523 321 523 222 q 492 469 523 422 q 394 516 462 516 z "},"ε":{"ha":686,"x_min":49,"x_max":669,"o":"m 431 409 l 431 292 q 331 287 361 291 q 282 262 302 283 q 262 208 262 241 q 364 121 262 121 q 486 219 461 121 l 669 191 q 573 45 648 104 q 363 -14 497 -14 q 121 48 193 -14 q 49 203 49 110 q 199 365 49 326 q 94 433 116 399 q 73 509 73 467 q 143 646 73 593 q 343 699 213 699 q 656 508 612 699 l 476 478 q 368 564 458 564 q 275 488 275 564 q 307 428 275 448 q 431 409 338 408 z "},"ζ":{"ha":573,"x_min":49,"x_max":566,"o":"m 91 779 l 91 926 l 549 926 l 549 797 q 346 590 430 727 q 262 308 262 452 q 296 191 262 223 q 410 155 330 159 q 502 137 473 152 q 548 86 530 121 q 566 -12 566 50 q 507 -237 566 -108 l 339 -215 q 384 -66 384 -127 q 363 -17 384 -30 q 291 -1 343 -3 q 49 267 49 9 q 354 779 49 551 l 91 779 z "},"η":{"ha":779,"x_min":83,"x_max":700,"o":"m 700 -231 l 498 -231 l 498 430 q 410 545 498 545 q 320 506 354 545 q 286 399 286 467 l 286 0 l 83 0 l 83 685 l 270 685 l 270 579 q 476 699 336 699 q 613 664 559 699 q 683 579 667 629 q 700 425 700 530 l 700 -231 z "},"θ":{"ha":784,"x_min":51,"x_max":733,"o":"m 392 940 q 646 811 559 940 q 733 463 733 683 q 646 113 733 241 q 392 -14 559 -14 q 138 113 225 -14 q 51 463 51 239 q 138 813 51 686 q 392 940 225 940 m 258 539 l 526 539 q 393 805 516 805 q 258 539 268 805 m 258 418 q 392 121 259 121 q 526 418 522 121 l 258 418 z "},"ι":{"ha":368,"x_min":83,"x_max":286,"o":"m 286 685 l 286 0 l 83 0 l 83 685 l 286 685 z "},"κ":{"ha":739,"x_min":83,"x_max":750,"o":"m 511 455 l 750 0 l 536 0 l 378 307 l 286 210 l 286 0 l 83 0 l 83 685 l 286 685 l 286 463 q 283 405 286 448 q 340 473 313 444 l 536 685 l 724 685 l 511 455 z "},"λ":{"ha":630,"x_min":-14,"x_max":647,"o":"m -14 0 l 215 628 l 105 926 l 313 926 l 647 0 l 438 0 l 288 437 l 138 0 l -14 0 z "},"μ":{"ha":787,"x_min":83,"x_max":704,"o":"m 83 -231 l 83 685 l 286 685 l 286 327 q 293 209 286 248 q 328 146 301 171 q 392 121 355 121 q 474 162 446 121 q 503 327 503 203 l 503 685 l 704 685 l 704 0 l 541 0 l 537 103 q 401 -14 499 -14 q 322 15 357 -14 q 286 79 287 45 l 286 -231 l 83 -231 z "},"ν":{"ha":627,"x_min":-5,"x_max":622,"o":"m 622 685 l 387 0 l 230 0 l -5 685 l 205 685 l 337 251 l 472 685 l 622 685 z "},"ξ":{"ha":631,"x_min":44,"x_max":627,"o":"m 410 -213 q 446 -71 446 -122 q 423 -23 446 -37 q 336 -3 400 -9 q 102 82 159 14 q 44 245 44 151 q 95 396 44 340 q 252 489 145 452 q 121 558 150 524 q 93 633 93 593 q 247 779 93 732 l 76 779 l 76 926 l 601 926 l 601 779 l 505 779 q 397 770 434 779 q 333 732 359 762 q 307 665 307 703 q 471 551 307 551 l 547 551 l 547 406 l 471 406 q 349 397 391 406 q 282 356 308 387 q 257 277 257 324 q 275 210 257 235 q 322 176 294 185 q 430 157 351 168 q 544 135 507 148 q 604 88 581 122 q 627 -13 627 54 q 580 -237 627 -98 l 410 -213 z "},"ο":{"ha":743,"x_min":44,"x_max":700,"o":"m 368 699 q 612 597 524 699 q 700 340 700 494 q 609 87 700 189 q 366 -14 517 -14 q 132 86 220 -14 q 44 344 44 186 q 84 529 44 453 q 193 652 123 606 q 368 699 262 699 m 373 567 q 286 523 315 567 q 257 346 257 478 q 285 172 257 224 q 372 119 313 119 q 455 164 423 119 q 487 336 487 209 q 459 519 487 471 q 373 567 431 567 z "},"π":{"ha":812,"x_min":25,"x_max":787,"o":"m 106 0 l 106 538 l 25 538 l 25 685 l 787 685 l 787 538 l 707 538 l 707 0 l 505 0 l 505 538 l 307 538 l 307 0 l 106 0 z "},"ρ":{"ha":789,"x_min":73,"x_max":745,"o":"m 73 -231 l 73 275 q 96 508 73 429 q 200 643 119 587 q 401 699 282 699 q 651 600 557 699 q 745 329 745 500 q 662 80 745 174 q 450 -14 579 -14 q 275 66 338 -14 l 275 -231 l 73 -231 m 403 564 q 308 517 340 564 q 276 342 276 470 q 404 121 276 121 q 532 346 532 121 q 499 516 532 468 q 403 564 467 564 z "},"ς":{"ha":703,"x_min":44,"x_max":678,"o":"m 452 -207 q 481 -76 481 -140 q 463 -23 481 -36 q 396 -5 444 -10 q 211 43 286 8 q 90 158 136 79 q 44 342 44 237 q 134 601 44 503 q 376 699 223 699 q 591 628 517 699 q 678 458 665 557 l 494 427 q 380 564 481 564 q 291 521 326 564 q 257 389 257 477 q 284 252 257 300 q 355 186 311 204 q 503 151 398 168 q 629 100 591 137 q 667 -30 667 62 q 627 -237 667 -106 l 452 -207 z "},"σ":{"ha":792,"x_min":44,"x_max":775,"o":"m 775 685 l 775 538 l 630 538 q 714 424 698 477 q 730 317 730 371 q 638 78 730 173 q 393 -17 547 -17 q 138 76 232 -17 q 44 340 44 169 q 130 596 44 492 q 397 699 216 699 q 501 685 450 699 l 775 685 m 387 564 q 292 517 328 564 q 257 342 257 471 q 387 119 257 119 q 517 345 517 119 q 483 517 517 471 q 387 564 450 564 z "},"τ":{"ha":568,"x_min":-4,"x_max":572,"o":"m 184 0 l 184 538 l -4 538 l -4 685 l 572 685 l 572 538 l 385 538 l 385 0 l 184 0 z "},"υ":{"ha":765,"x_min":78,"x_max":687,"o":"m 280 685 l 280 307 q 297 156 280 191 q 382 121 314 121 q 468 156 450 121 q 485 307 485 190 l 485 685 l 687 685 l 687 307 q 657 116 687 178 q 563 20 627 54 q 389 -14 499 -14 q 157 50 235 -14 q 78 307 78 114 l 78 685 l 280 685 z "},"φ":{"ha":995,"x_min":48,"x_max":947,"o":"m 403 -231 l 403 -16 q 145 89 241 -8 q 48 340 48 186 q 113 552 48 463 q 273 667 177 642 l 321 519 q 245 342 245 456 q 403 122 245 160 l 403 694 q 502 699 454 699 q 846 590 744 699 q 947 338 947 481 q 857 99 947 201 q 585 -16 766 -3 l 585 -231 l 403 -231 m 585 121 q 744 347 744 158 q 585 568 744 528 l 585 121 z "},"χ":{"ha":692,"x_min":-27,"x_max":711,"o":"m 233 265 l 7 685 l 221 685 l 376 385 l 514 685 l 691 685 l 461 236 l 711 -231 l 497 -231 l 322 121 l 155 -231 l -27 -231 l 233 265 z "},"ψ":{"ha":1057,"x_min":79,"x_max":979,"o":"m 434 -231 l 434 -16 q 222 25 296 -14 q 114 127 149 64 q 79 326 79 191 l 79 685 l 281 685 l 281 321 q 311 165 281 200 q 434 130 341 130 l 434 685 l 623 685 l 623 130 q 746 164 715 130 q 777 321 777 199 l 777 685 l 979 685 l 979 326 q 942 125 979 195 q 828 22 906 56 q 623 -16 751 -12 l 623 -231 l 434 -231 z "},"ω":{"ha":1039,"x_min":44,"x_max":996,"o":"m 612 513 l 612 325 q 628 159 612 197 q 682 121 645 121 q 753 162 724 121 q 783 303 783 204 q 671 637 783 479 l 818 707 q 996 321 996 545 q 915 67 996 149 q 715 -14 834 -14 q 609 8 654 -14 q 519 111 564 31 q 430 8 475 31 q 326 -14 385 -14 q 122 70 200 -14 q 44 314 44 155 q 221 707 44 545 l 368 637 q 257 303 257 479 q 286 163 257 205 q 358 121 315 121 q 411 160 395 121 q 428 325 428 199 l 428 513 l 612 513 z "},"ϊ":{"ha":368,"x_min":-10,"x_max":378,"o":"m 286 685 l 286 0 l 83 0 l 83 685 l 286 685 m 296 808 q 238 831 260 808 q 216 886 216 855 q 239 941 216 917 q 297 965 262 965 q 354 944 330 965 q 378 886 378 923 q 354 829 378 850 q 296 808 330 808 m 70 808 q 12 831 33 808 q -10 886 -10 855 q 12 941 -10 917 q 70 965 35 965 q 127 944 102 965 q 152 886 152 924 q 128 829 152 850 q 70 808 104 808 z "},"ϋ":{"ha":765,"x_min":78,"x_max":687,"o":"m 280 685 l 280 307 q 297 156 280 191 q 382 121 314 121 q 468 156 450 121 q 485 307 485 190 l 485 685 l 687 685 l 687 307 q 657 116 687 178 q 563 20 627 54 q 389 -14 499 -14 q 157 50 235 -14 q 78 307 78 114 l 78 685 l 280 685 m 494 808 q 436 831 458 808 q 414 886 414 855 q 437 941 414 917 q 495 965 460 965 q 552 944 528 965 q 576 886 576 923 q 552 829 576 850 q 494 808 528 808 m 268 808 q 210 831 231 808 q 188 886 188 855 q 210 941 188 917 q 268 965 233 965 q 325 944 300 965 q 350 886 350 924 q 326 829 350 850 q 268 808 302 808 z "},"ό":{"ha":743,"x_min":44,"x_max":700,"o":"m 368 699 q 612 597 524 699 q 700 340 700 494 q 609 87 700 189 q 366 -14 517 -14 q 132 86 220 -14 q 44 344 44 186 q 84 529 44 453 q 193 652 123 606 q 368 699 262 699 m 373 567 q 286 523 315 567 q 257 346 257 478 q 285 172 257 224 q 372 119 313 119 q 455 164 423 119 q 487 336 487 209 q 459 519 487 471 q 373 567 431 567 m 492 1028 l 544 914 l 245 787 l 212 863 l 492 1028 z "},"ύ":{"ha":765,"x_min":78,"x_max":687,"o":"m 280 685 l 280 307 q 297 156 280 191 q 382 121 314 121 q 468 156 450 121 q 485 307 485 190 l 485 685 l 687 685 l 687 307 q 657 116 687 178 q 563 20 627 54 q 389 -14 499 -14 q 157 50 235 -14 q 78 307 78 114 l 78 685 l 280 685 m 503 1028 l 555 914 l 256 787 l 222 863 l 503 1028 z "},"ώ":{"ha":1039,"x_min":44,"x_max":996,"o":"m 612 513 l 612 325 q 628 159 612 197 q 682 121 645 121 q 753 162 724 121 q 783 303 783 204 q 671 637 783 479 l 818 707 q 996 321 996 545 q 915 67 996 149 q 715 -14 834 -14 q 609 8 654 -14 q 519 111 564 31 q 430 8 475 31 q 326 -14 385 -14 q 122 70 200 -14 q 44 314 44 155 q 221 707 44 545 l 368 637 q 257 303 257 479 q 286 163 257 205 q 358 121 315 121 q 411 160 395 121 q 428 325 428 199 l 428 513 l 612 513 m 668 1028 l 720 914 l 421 787 l 387 863 l 668 1028 z "},"Ё":{"ha":770,"x_min":92,"x_max":754,"o":"m 754 749 l 313 749 l 313 559 l 660 559 l 660 385 l 313 385 l 313 183 l 754 183 l 754 0 l 92 0 l 92 926 l 754 926 l 754 749 m 538 1025 q 479 1048 501 1025 q 458 1103 458 1072 q 480 1158 458 1134 q 538 1182 503 1182 q 595 1161 571 1182 q 620 1103 620 1140 q 596 1046 620 1067 q 538 1025 572 1025 m 311 1025 q 253 1048 275 1025 q 231 1103 231 1072 q 254 1158 231 1134 q 311 1182 276 1182 q 368 1161 343 1182 q 393 1103 393 1141 q 369 1046 393 1067 q 311 1025 345 1025 z "},"Ђ":{"ha":886,"x_min":-11,"x_max":828,"o":"m 136 0 l 136 757 l -11 757 l -11 926 l 664 926 l 664 757 l 349 757 l 349 524 q 572 632 424 632 q 727 596 669 632 q 806 488 785 561 q 828 199 828 416 q 795 -105 828 -29 q 695 -210 763 -181 q 508 -243 628 -239 l 498 -92 q 572 -73 548 -87 q 608 -14 595 -58 q 620 186 620 31 q 598 422 620 372 q 498 473 577 473 q 392 441 435 473 q 349 315 349 410 l 349 0 l 136 0 z "},"Ѓ":{"ha":649,"x_min":93,"x_max":622,"o":"m 93 0 l 93 926 l 622 926 l 622 743 l 306 743 l 306 0 l 93 0 m 526 1248 l 577 1134 l 279 1007 l 245 1083 l 526 1248 z "},"Є":{"ha":883,"x_min":49,"x_max":863,"o":"m 591 551 l 591 399 l 266 399 q 323 227 266 292 q 471 163 380 163 q 666 312 619 163 l 863 275 q 731 73 830 160 q 466 -14 631 -14 q 232 53 327 -14 q 93 229 136 121 q 49 463 49 338 q 158 810 49 680 q 462 940 267 940 q 840 688 739 940 l 648 633 q 465 763 600 763 q 318 697 366 763 q 269 551 270 631 l 591 551 z "},"Ѕ":{"ha":806,"x_min":0,"x_max":758,"o":"m 732 722 l 548 661 q 390 770 511 770 q 261 687 261 770 q 285 631 261 654 q 394 591 309 608 q 602 533 536 562 q 712 439 667 504 q 758 294 758 374 q 661 77 758 169 q 374 -14 564 -14 q 132 51 232 -14 q 0 243 32 115 l 201 288 q 389 159 235 159 q 500 188 464 159 q 537 256 537 216 q 504 319 537 297 q 376 361 471 342 q 123 461 199 398 q 48 647 48 525 q 138 855 48 770 q 382 940 228 940 q 732 722 654 940 z "},"І":{"ha":402,"x_min":93,"x_max":309,"o":"m 309 926 l 309 0 l 93 0 l 93 926 l 309 926 z "},"Ї":{"ha":405,"x_min":13,"x_max":401,"o":"m 309 926 l 309 0 l 92 0 l 92 926 l 309 926 m 319 1025 q 261 1049 283 1025 q 239 1103 239 1073 q 262 1159 239 1135 q 320 1183 285 1183 q 377 1162 353 1183 q 401 1104 401 1141 q 377 1047 401 1068 q 319 1025 353 1025 m 93 1025 q 35 1049 56 1025 q 13 1103 13 1073 q 35 1159 13 1135 q 93 1183 58 1183 q 150 1162 125 1183 q 175 1104 175 1141 q 151 1047 175 1068 q 93 1025 127 1025 z "},"Ј":{"ha":529,"x_min":9,"x_max":446,"o":"m 446 926 l 446 265 q 378 55 446 124 q 156 -14 311 -14 q 9 0 88 -14 l 9 180 q 120 169 74 169 q 184 183 161 169 q 218 219 208 198 q 229 292 229 240 l 229 926 l 446 926 z "},"Љ":{"ha":1183,"x_min":-20,"x_max":1160,"o":"m 614 586 l 809 586 q 1013 555 947 586 q 1120 457 1080 525 q 1160 296 1160 389 q 1080 85 1160 170 q 831 0 1000 0 l 524 0 l 363 751 l 354 751 l 170 0 l -20 0 l 222 926 l 530 926 l 614 586 m 715 175 l 810 175 q 941 296 941 175 q 813 418 941 418 l 655 418 l 715 175 z "},"Њ":{"ha":1336,"x_min":93,"x_max":1313,"o":"m 800 572 l 978 572 q 1232 498 1150 572 q 1313 290 1313 423 q 1230 78 1313 155 q 1000 0 1146 0 l 587 0 l 587 397 l 306 397 l 306 0 l 93 0 l 93 926 l 306 926 l 306 565 l 587 565 l 587 926 l 800 926 l 800 572 m 800 175 l 962 175 q 1094 292 1094 175 q 962 404 1094 404 l 800 404 l 800 175 z "},"Ћ":{"ha":900,"x_min":-11,"x_max":823,"o":"m 349 757 l 349 526 q 563 632 420 632 q 716 594 661 632 q 797 497 771 557 q 823 316 823 437 l 823 0 l 610 0 l 610 340 q 577 446 610 420 q 493 471 545 471 q 391 443 433 471 q 349 349 350 415 l 349 0 l 136 0 l 136 757 l -11 757 l -11 926 l 666 926 l 666 757 l 349 757 z "},"Ќ":{"ha":876,"x_min":93,"x_max":859,"o":"m 607 1249 l 659 1135 l 360 1008 l 326 1084 l 607 1249 z "},"Ў":{"ha":749,"x_min":-26,"x_max":768,"o":"m 311 279 l -26 926 l 206 926 l 409 515 l 575 926 l 768 926 l 486 241 q 368 56 433 111 q 184 0 304 0 l 92 0 l 92 177 l 166 177 q 252 194 219 177 q 311 279 286 212 m 185 1202 l 292 1202 q 400 1113 302 1113 q 511 1202 500 1113 l 617 1202 q 548 1059 606 1110 q 398 1007 490 1007 q 253 1055 312 1007 q 185 1202 193 1103 z "},"Џ":{"ha":879,"x_min":93,"x_max":787,"o":"m 306 175 l 574 175 l 574 926 l 787 926 l 787 0 l 521 0 l 515 -195 l 361 -195 l 355 0 l 93 0 l 93 926 l 306 926 l 306 175 z "},"А":{"ha":844,"x_min":0,"x_max":838,"o":"m 548 926 l 838 0 l 604 0 l 548 191 l 248 191 l 190 0 l 0 0 l 296 926 l 548 926 m 300 361 l 497 361 l 399 686 l 300 361 z "},"Б":{"ha":859,"x_min":93,"x_max":814,"o":"m 93 0 l 93 926 l 713 926 l 713 760 l 306 760 l 306 557 l 462 557 q 654 534 583 557 q 770 445 725 511 q 814 283 814 379 q 733 75 814 149 q 505 0 651 0 l 93 0 m 306 175 l 473 175 q 564 206 532 175 q 595 287 595 237 q 455 395 595 395 l 306 395 l 306 175 z "},"В":{"ha":905,"x_min":93,"x_max":859,"o":"m 93 926 l 524 926 q 699 897 640 926 q 795 816 757 869 q 833 687 833 763 q 666 481 833 533 q 810 395 762 460 q 859 255 859 331 q 780 76 859 151 q 524 0 701 0 l 93 0 l 93 926 m 309 762 l 309 559 l 473 559 q 587 595 564 559 q 610 663 610 631 q 591 724 610 699 q 549 756 572 749 q 458 762 526 762 l 309 762 m 309 395 l 309 172 l 476 172 q 597 201 562 172 q 632 285 632 231 q 598 362 632 330 q 486 395 564 395 l 309 395 z "},"Г":{"ha":621,"x_min":93,"x_max":622,"o":"m 93 0 l 93 926 l 622 926 l 622 743 l 306 743 l 306 0 l 93 0 z "},"Д":{"ha":856,"x_min":-20,"x_max":876,"o":"m 70 175 l 260 926 l 594 926 l 786 175 l 876 175 l 876 -195 l 735 -195 l 713 0 l 142 0 l 120 -195 l -20 -195 l -20 175 l 70 175 m 258 175 l 555 175 l 425 751 l 388 751 l 258 175 z "},"Е":{"ha":791,"x_min":92,"x_max":754,"o":"m 754 749 l 313 749 l 313 559 l 660 559 l 660 385 l 313 385 l 313 183 l 754 183 l 754 0 l 92 0 l 92 926 l 754 926 l 754 749 z "},"Ж":{"ha":1199,"x_min":-20,"x_max":1250,"o":"m 909 526 l 1250 0 l 1022 0 l 751 408 l 703 395 l 703 0 l 503 0 l 503 395 l 453 408 l 183 0 l -20 0 l 299 467 l 6 926 l 229 926 l 467 544 l 503 535 l 503 926 l 703 926 l 703 535 l 739 544 l 977 926 l 1177 926 l 909 526 z "},"З":{"ha":814,"x_min":17,"x_max":770,"o":"m 17 281 l 210 308 q 386 163 235 163 q 544 286 544 163 q 412 404 544 404 l 337 404 l 337 547 l 404 547 q 492 577 460 547 q 524 658 524 608 q 484 735 524 708 q 382 763 445 763 q 270 735 309 763 q 218 637 231 708 l 41 667 q 390 940 80 940 q 649 871 555 940 q 743 692 743 803 q 585 494 743 548 q 770 279 770 441 q 670 68 770 151 q 402 -14 570 -14 q 118 68 213 -14 q 17 281 23 151 z "},"И":{"ha":926,"x_min":92,"x_max":833,"o":"m 305 92 l 305 0 l 92 0 l 92 926 l 305 926 l 305 531 q 299 326 305 429 q 403 517 352 444 l 621 829 l 621 926 l 833 926 l 833 0 l 621 0 l 621 420 q 627 593 621 526 q 522 403 583 489 l 305 92 z "},"Й":{"ha":929,"x_min":92,"x_max":833,"o":"m 305 92 l 305 0 l 92 0 l 92 926 l 305 926 l 305 531 q 299 326 305 429 q 403 517 352 444 l 621 829 l 621 926 l 833 926 l 833 0 l 621 0 l 621 420 q 627 593 621 526 q 522 403 583 489 l 305 92 m 165 1202 l 271 1202 q 380 1113 282 1113 q 490 1202 480 1113 l 597 1202 q 527 1059 585 1110 q 378 1007 469 1007 q 232 1055 292 1007 q 165 1202 173 1103 z "},"К":{"ha":876,"x_min":93,"x_max":859,"o":"m 306 926 l 306 490 l 596 926 l 804 926 l 581 595 l 859 0 l 620 0 l 436 401 l 306 212 l 306 0 l 93 0 l 93 926 l 306 926 z "},"Л":{"ha":781,"x_min":-20,"x_max":795,"o":"m 170 0 l -20 0 l 240 926 l 530 926 l 795 0 l 560 0 l 366 733 l 170 0 z "},"М":{"ha":1190,"x_min":92,"x_max":1101,"o":"m 502 0 l 274 755 l 274 0 l 92 0 l 92 926 l 430 926 l 592 372 l 763 926 l 1101 926 l 1101 0 l 883 0 l 883 755 l 650 0 l 502 0 z "},"Н":{"ha":901,"x_min":93,"x_max":808,"o":"m 808 926 l 808 0 l 595 0 l 595 382 l 306 382 l 306 0 l 93 0 l 93 926 l 306 926 l 306 565 l 595 565 l 595 926 l 808 926 z "},"О":{"ha":888,"x_min":49,"x_max":840,"o":"m 441 -14 q 151 126 254 -14 q 49 466 49 267 q 153 804 49 669 q 448 940 256 940 q 741 795 642 940 q 840 464 840 650 q 738 124 840 262 q 441 -14 636 -14 m 447 763 q 276 463 276 763 q 447 163 276 163 q 612 463 612 163 q 447 763 612 763 z "},"П":{"ha":873,"x_min":93,"x_max":781,"o":"m 93 0 l 93 926 l 781 926 l 781 0 l 568 0 l 568 757 l 306 757 l 306 0 l 93 0 z "},"Р":{"ha":838,"x_min":92,"x_max":810,"o":"m 313 344 l 313 0 l 92 0 l 92 926 l 457 926 q 644 900 579 926 q 760 806 709 873 q 810 642 810 739 q 783 508 810 573 q 707 406 756 443 q 611 356 657 368 q 465 344 564 344 l 313 344 m 305 512 l 446 512 q 559 549 527 512 q 592 635 592 587 q 556 724 592 691 q 446 758 519 758 l 305 758 l 305 512 z "},"С":{"ha":871,"x_min":49,"x_max":840,"o":"m 840 581 l 612 567 q 460 763 608 763 q 290 461 290 763 q 336 225 290 287 q 465 163 382 163 q 629 338 600 163 l 840 325 q 716 72 819 159 q 463 -14 612 -14 q 164 113 279 -14 q 49 463 49 239 q 160 806 49 673 q 464 940 271 940 q 840 581 798 940 z "},"Т":{"ha":680,"x_min":0,"x_max":680,"o":"m 680 926 l 680 743 l 450 743 l 450 0 l 231 0 l 231 743 l 0 743 l 0 926 l 680 926 z "},"У":{"ha":738,"x_min":-26,"x_max":768,"o":"m 311 279 l -26 926 l 206 926 l 409 515 l 575 926 l 768 926 l 486 241 q 368 56 433 111 q 184 0 304 0 l 92 0 l 92 177 l 166 177 q 252 194 219 177 q 311 279 286 212 z "},"Ф":{"ha":1042,"x_min":51,"x_max":990,"o":"m 431 86 q 147 202 243 103 q 51 463 51 301 q 147 724 51 625 q 431 840 243 823 l 431 954 l 610 954 l 610 840 q 895 724 800 823 q 990 463 990 625 q 895 202 990 301 q 610 86 799 104 l 610 -28 l 431 -28 l 431 86 m 431 686 q 250 463 250 641 q 431 241 250 286 l 431 686 m 610 241 q 791 463 791 286 q 610 686 791 641 l 610 241 z "},"Х":{"ha":833,"x_min":2,"x_max":830,"o":"m 797 926 l 544 496 l 830 0 l 579 0 l 393 336 l 208 0 l 2 0 l 288 492 l 35 926 l 287 926 l 437 644 l 594 926 l 797 926 z "},"Ц":{"ha":902,"x_min":100,"x_max":907,"o":"m 100 0 l 100 926 l 313 926 l 313 183 l 581 183 l 581 926 l 794 926 l 794 183 l 907 183 l 907 -195 l 763 -195 l 745 0 l 100 0 z "},"Ч":{"ha":874,"x_min":72,"x_max":781,"o":"m 568 0 l 568 360 q 347 279 481 279 q 196 316 263 279 q 100 417 129 354 q 72 583 72 479 l 72 926 l 285 926 l 285 576 q 312 481 285 507 q 403 456 339 456 q 568 505 492 456 l 568 926 l 781 926 l 781 0 l 568 0 z "},"Ш":{"ha":1335,"x_min":100,"x_max":1235,"o":"m 100 0 l 100 926 l 313 926 l 313 183 l 561 183 l 561 926 l 774 926 l 774 183 l 1022 183 l 1022 926 l 1235 926 l 1235 0 l 100 0 z "},"Щ":{"ha":1343,"x_min":100,"x_max":1351,"o":"m 100 0 l 100 926 l 313 926 l 313 183 l 561 183 l 561 926 l 774 926 l 774 183 l 1022 183 l 1022 926 l 1235 926 l 1235 183 l 1351 183 l 1351 -195 l 1211 -195 l 1188 0 l 100 0 z "},"Ъ":{"ha":931,"x_min":-33,"x_max":907,"o":"m 184 743 l -33 743 l -33 926 l 397 926 l 397 586 l 555 586 q 759 555 692 586 q 866 457 826 525 q 907 297 907 389 q 826 85 907 170 q 577 0 746 0 l 184 0 l 184 743 m 397 175 l 556 175 q 687 296 687 175 q 559 418 687 418 l 397 418 l 397 175 z "},"Ы":{"ha":1230,"x_min":100,"x_max":1130,"o":"m 100 0 l 100 926 l 313 926 l 313 586 l 471 586 q 659 562 587 586 q 777 465 731 538 q 823 298 823 393 q 742 84 823 169 q 493 0 661 0 l 100 0 m 313 175 l 472 175 q 603 296 603 175 q 475 418 603 418 l 313 418 l 313 175 m 917 0 l 917 926 l 1130 926 l 1130 0 l 917 0 z "},"Ь":{"ha":840,"x_min":93,"x_max":816,"o":"m 93 0 l 93 926 l 306 926 l 306 586 l 465 586 q 652 562 581 586 q 770 465 724 538 q 816 298 816 393 q 735 84 816 169 q 486 0 654 0 l 93 0 m 306 175 l 465 175 q 596 296 596 175 q 469 418 596 418 l 306 418 l 306 175 z "},"Э":{"ha":883,"x_min":20,"x_max":834,"o":"m 292 551 l 292 399 l 617 399 q 560 227 617 292 q 412 163 503 163 q 217 312 264 163 l 20 275 q 152 73 53 160 q 417 -14 252 -14 q 651 53 556 -14 q 790 229 747 121 q 834 463 834 338 q 725 810 834 680 q 421 940 616 940 q 43 688 144 940 l 235 633 q 418 763 283 763 q 565 697 517 763 q 614 551 613 631 l 292 551 z "},"Ю":{"ha":1329,"x_min":93,"x_max":1281,"o":"m 455 393 l 306 393 l 306 0 l 93 0 l 93 926 l 306 926 l 306 562 l 457 562 q 596 839 486 737 q 863 940 706 940 q 1165 810 1049 940 q 1281 463 1281 680 q 1171 126 1281 267 q 868 -14 1060 -14 q 573 108 680 -14 q 455 393 465 230 m 864 763 q 722 678 771 763 q 673 463 673 593 q 725 241 673 319 q 861 163 777 163 q 1002 250 950 163 q 1054 471 1054 337 q 1003 684 1054 606 q 864 763 951 763 z "},"Я":{"ha":913,"x_min":37,"x_max":821,"o":"m 602 367 l 419 367 l 267 0 l 37 0 l 235 409 q 75 648 75 481 q 146 839 75 752 q 414 926 217 926 l 821 926 l 821 0 l 602 0 l 602 367 m 602 761 l 474 761 q 370 753 398 761 q 321 714 342 745 q 299 646 299 684 q 323 573 299 606 q 377 533 348 541 q 469 525 406 525 l 602 525 l 602 761 z "},"а":{"ha":752,"x_min":42,"x_max":682,"o":"m 682 0 l 486 0 q 476 107 476 41 q 373 10 425 34 q 257 -14 322 -14 q 101 38 161 -14 q 42 178 42 90 q 77 297 42 243 q 188 382 111 351 q 467 428 264 413 l 467 467 q 368 567 467 567 q 249 467 261 567 l 62 485 q 173 650 81 602 q 382 699 265 699 q 513 683 452 699 q 610 634 575 667 q 656 565 644 602 q 669 439 669 529 l 669 128 q 682 0 669 39 m 467 328 q 255 200 255 307 q 277 138 255 164 q 341 112 300 112 q 431 156 395 112 q 467 266 467 201 l 467 328 z "},"б":{"ha":775,"x_min":49,"x_max":728,"o":"m 460 987 l 661 987 q 631 903 656 937 q 562 850 606 869 q 420 811 518 831 q 294 754 331 792 q 245 640 257 717 q 335 685 311 676 q 413 693 360 693 q 641 601 553 693 q 728 350 728 509 q 636 85 728 184 q 387 -14 544 -14 q 202 32 278 -14 q 88 159 127 77 q 49 385 49 241 q 71 607 49 509 q 144 775 94 705 q 244 872 194 845 q 374 920 294 900 q 442 945 427 933 q 460 987 457 956 m 385 558 q 287 510 321 558 q 253 338 253 461 q 287 169 253 217 q 385 121 320 121 q 482 169 449 121 q 515 338 515 216 q 482 509 515 460 q 385 558 449 558 z "},"в":{"ha":762,"x_min":83,"x_max":719,"o":"m 83 0 l 83 685 l 475 685 q 590 670 545 685 q 666 612 635 655 q 696 513 696 569 q 549 359 696 394 q 719 185 719 322 q 660 50 719 99 q 492 0 600 0 l 83 0 m 286 406 l 429 406 q 506 480 506 406 q 429 555 506 555 l 286 555 l 286 406 m 286 136 l 427 136 q 495 156 475 136 q 516 222 516 176 q 499 283 516 260 q 427 307 481 307 l 286 307 l 286 136 z "},"г":{"ha":540,"x_min":83,"x_max":534,"o":"m 83 0 l 83 685 l 534 685 l 534 538 l 286 538 l 286 0 l 83 0 z "},"д":{"ha":714,"x_min":-11,"x_max":726,"o":"m 73 142 l 230 685 l 513 685 l 642 142 l 726 142 l 726 -157 l 600 -157 l 579 0 l 134 0 l 114 -157 l -11 -157 l -11 142 l 73 142 m 224 142 l 437 142 l 359 547 l 332 547 l 224 142 z "},"е":{"ha":743,"x_min":44,"x_max":699,"o":"m 699 309 l 258 309 q 257 277 257 290 q 296 166 257 203 q 389 129 335 129 q 511 237 490 129 l 694 223 q 382 -14 617 -14 q 209 27 280 -14 q 91 146 137 68 q 44 335 44 225 q 137 599 44 498 q 377 699 231 699 q 604 606 509 699 q 699 309 699 513 m 257 426 l 500 426 q 385 567 491 567 q 257 426 271 567 z "},"ж":{"ha":997,"x_min":-17,"x_max":1029,"o":"m 784 414 l 1029 0 l 821 0 l 648 297 l 601 283 l 601 0 l 399 0 l 399 283 l 352 297 l 175 0 l -17 0 l 221 360 l -1 685 l 200 685 l 373 431 l 399 426 l 399 685 l 601 685 l 601 426 l 627 431 l 800 685 l 999 685 l 784 414 z "},"з":{"ha":679,"x_min":18,"x_max":635,"o":"m 253 292 l 253 409 q 384 433 359 409 q 409 488 409 456 q 386 543 409 522 q 319 564 362 564 q 212 478 229 564 l 31 508 q 336 699 76 699 q 543 645 474 699 q 612 509 612 591 q 485 365 612 410 q 635 203 635 330 q 558 45 635 105 q 335 -14 481 -14 q 106 50 176 -14 q 18 191 35 115 l 202 219 q 317 117 225 117 q 422 205 422 117 q 404 259 422 239 q 356 286 385 280 q 253 292 327 292 z "},"и":{"ha":789,"x_min":83,"x_max":707,"o":"m 286 71 l 286 0 l 83 0 l 83 685 l 286 685 l 286 424 q 280 270 286 355 q 370 412 332 358 l 505 597 l 505 685 l 707 685 l 707 0 l 505 0 l 505 244 q 511 416 505 328 q 426 264 474 330 l 286 71 z "},"й":{"ha":789,"x_min":83,"x_max":707,"o":"m 286 71 l 286 0 l 83 0 l 83 685 l 286 685 l 286 424 q 280 270 286 355 q 370 412 332 358 l 505 597 l 505 685 l 707 685 l 707 0 l 505 0 l 505 244 q 511 416 505 328 q 426 264 474 330 l 286 71 m 179 993 l 286 993 q 394 904 296 904 q 505 993 494 904 l 611 993 q 542 850 600 901 q 392 798 484 798 q 247 846 306 798 q 179 993 187 894 z "},"к":{"ha":734,"x_min":83,"x_max":760,"o":"m 524 450 l 760 0 l 548 0 l 389 306 l 286 197 l 286 0 l 83 0 l 83 685 l 286 685 l 286 514 q 283 393 286 473 q 340 464 307 428 l 547 685 l 734 685 l 524 450 z "},"л":{"ha":633,"x_min":-16,"x_max":644,"o":"m -16 0 l 212 685 l 437 685 l 644 0 l 435 0 l 299 502 l 136 0 l -16 0 z "},"м":{"ha":1037,"x_min":83,"x_max":954,"o":"m 83 0 l 83 685 l 376 685 l 525 138 l 680 685 l 954 685 l 954 0 l 769 0 l 769 547 l 760 547 l 604 0 l 404 0 l 250 547 l 240 547 l 240 0 l 83 0 z "},"н":{"ha":781,"x_min":83,"x_max":698,"o":"m 83 0 l 83 685 l 286 685 l 286 438 l 496 438 l 496 685 l 698 685 l 698 0 l 496 0 l 496 291 l 286 291 l 286 0 l 83 0 z "},"о":{"ha":743,"x_min":44,"x_max":700,"o":"m 368 699 q 612 597 524 699 q 700 340 700 494 q 609 87 700 189 q 366 -14 517 -14 q 132 86 220 -14 q 44 344 44 186 q 84 529 44 453 q 193 652 123 606 q 368 699 262 699 m 373 567 q 286 523 315 567 q 257 346 257 478 q 285 172 257 224 q 372 119 313 119 q 455 164 423 119 q 487 336 487 209 q 459 519 487 471 q 373 567 431 567 z "},"п":{"ha":755,"x_min":83,"x_max":671,"o":"m 83 0 l 83 685 l 671 685 l 671 0 l 469 0 l 469 547 l 286 547 l 286 0 l 83 0 z "},"р":{"ha":749,"x_min":83,"x_max":703,"o":"m 83 -231 l 83 685 l 269 685 l 269 585 q 450 699 321 699 q 632 610 561 699 q 703 351 703 521 q 631 78 703 170 q 445 -14 559 -14 q 279 76 329 -14 l 279 -231 l 83 -231 m 279 300 q 288 199 279 227 q 326 150 297 172 q 387 127 354 127 q 461 170 429 127 q 494 357 494 212 q 387 559 494 559 q 313 524 346 559 q 279 401 279 488 l 279 300 z "},"с":{"ha":711,"x_min":44,"x_max":686,"o":"m 686 257 q 590 61 674 136 q 372 -14 505 -14 q 135 82 227 -14 q 44 338 44 178 q 137 599 44 499 q 387 699 231 699 q 594 624 512 699 q 686 435 677 549 l 497 425 q 390 548 488 548 q 270 351 270 548 q 303 185 270 220 q 385 150 337 150 q 497 269 479 150 l 686 257 z "},"т":{"ha":547,"x_min":-14,"x_max":561,"o":"m 176 0 l 176 538 l -14 538 l -14 685 l 561 685 l 561 538 l 377 538 l 377 0 l 176 0 z "},"у":{"ha":618,"x_min":-5,"x_max":614,"o":"m 614 685 l 399 28 q 338 -131 363 -82 q 265 -210 313 -180 q 132 -239 217 -239 q 35 -231 89 -239 l 35 -76 q 134 -85 88 -85 q 214 -63 193 -85 q 244 0 234 -41 l -5 685 l 209 685 l 340 277 l 467 685 l 614 685 z "},"ф":{"ha":985,"x_min":49,"x_max":936,"o":"m 403 -231 l 403 -7 q 139 99 229 7 q 49 339 49 192 q 148 586 49 494 q 403 691 248 678 l 403 920 l 583 920 l 583 691 q 837 586 737 678 q 936 339 936 494 q 846 99 936 192 q 583 -7 756 7 l 583 -231 l 403 -231 m 408 578 q 252 345 252 538 q 408 113 252 152 l 408 578 m 576 113 q 732 345 732 152 q 576 578 732 538 l 576 113 z "},"х":{"ha":686,"x_min":0,"x_max":686,"o":"m 652 685 l 455 368 l 686 0 l 455 0 l 313 236 l 173 0 l 0 0 l 226 368 l 31 685 l 262 685 l 371 500 l 479 685 l 652 685 z "},"ц":{"ha":777,"x_min":83,"x_max":785,"o":"m 83 0 l 83 685 l 286 685 l 286 147 l 483 147 l 483 685 l 684 685 l 684 147 l 785 147 l 785 -157 l 660 -157 l 640 0 l 83 0 z "},"ч":{"ha":736,"x_min":64,"x_max":652,"o":"m 450 0 l 450 254 q 273 199 372 199 q 114 256 165 199 q 64 404 64 312 l 64 685 l 266 685 l 266 425 q 286 352 266 370 q 347 334 307 334 q 450 366 405 334 l 450 685 l 652 685 l 652 0 l 450 0 z "},"ш":{"ha":1145,"x_min":88,"x_max":1057,"o":"m 88 0 l 88 685 l 290 685 l 290 147 l 471 147 l 471 685 l 673 685 l 673 147 l 855 147 l 855 685 l 1057 685 l 1057 0 l 88 0 z "},"щ":{"ha":1156,"x_min":89,"x_max":1164,"o":"m 89 0 l 89 685 l 291 685 l 291 147 l 472 147 l 472 685 l 674 685 l 674 147 l 856 147 l 856 685 l 1057 685 l 1057 147 l 1164 147 l 1164 -157 l 1038 -157 l 1018 0 l 89 0 z "},"ъ":{"ha":777,"x_min":-33,"x_max":749,"o":"m 147 0 l 147 538 l -33 538 l -33 685 l 349 685 l 349 442 l 507 442 q 691 379 632 442 q 749 221 749 317 q 684 54 749 108 q 507 0 618 0 l 147 0 m 349 136 l 470 136 q 541 155 519 136 q 563 224 563 174 q 470 313 563 313 l 349 313 l 349 136 z "},"ы":{"ha":1063,"x_min":88,"x_max":975,"o":"m 88 0 l 88 685 l 290 685 l 290 442 l 448 442 q 631 379 572 442 q 690 221 690 317 q 625 54 690 108 q 448 0 559 0 l 88 0 m 290 136 l 411 136 q 483 156 461 136 q 504 224 504 175 q 411 313 504 313 l 290 313 l 290 136 m 773 0 l 773 685 l 975 685 l 975 0 l 773 0 z "},"ь":{"ha":713,"x_min":83,"x_max":686,"o":"m 83 0 l 83 685 l 286 685 l 286 442 l 443 442 q 627 379 568 442 q 686 221 686 317 q 620 54 686 108 q 443 0 555 0 l 83 0 m 286 136 l 406 136 q 478 156 456 136 q 499 224 499 175 q 406 313 499 313 l 286 313 l 286 136 z "},"э":{"ha":724,"x_min":17,"x_max":680,"o":"m 199 284 l 199 413 l 464 413 q 430 524 464 484 q 332 564 395 564 q 214 476 235 564 l 26 507 q 331 699 102 699 q 586 602 491 699 q 680 340 680 504 q 590 86 680 186 q 322 -14 500 -14 q 17 186 91 -14 l 203 216 q 330 121 230 121 q 429 160 393 121 q 465 264 465 200 q 464 284 465 272 l 199 284 z "},"ю":{"ha":1134,"x_min":83,"x_max":1090,"o":"m 286 284 l 286 0 l 83 0 l 83 685 l 286 685 l 286 424 l 399 424 q 515 625 422 550 q 740 699 608 699 q 995 600 900 699 q 1090 344 1090 501 q 992 84 1090 182 q 741 -14 894 -14 q 505 69 595 -14 q 398 284 414 152 l 286 284 m 741 564 q 636 513 671 564 q 601 341 601 463 q 636 171 601 220 q 741 121 671 121 q 844 172 811 121 q 877 338 877 222 q 843 513 877 463 q 741 564 809 564 z "},"я":{"ha":744,"x_min":18,"x_max":661,"o":"m 458 0 l 458 263 l 325 263 l 208 0 l 18 0 l 174 304 q 54 473 54 351 q 116 629 54 574 q 283 685 178 685 l 661 685 l 661 0 l 458 0 m 463 395 l 463 555 l 329 555 q 246 470 246 555 q 325 395 246 395 l 463 395 z "},"ё":{"ha":743,"x_min":44,"x_max":699,"o":"m 699 309 l 258 309 q 257 277 257 290 q 296 166 257 203 q 389 129 335 129 q 511 237 490 129 l 694 223 q 382 -14 617 -14 q 209 27 280 -14 q 91 146 137 68 q 44 335 44 225 q 137 599 44 498 q 377 699 231 699 q 604 606 509 699 q 699 309 699 513 m 257 426 l 500 426 q 385 567 491 567 q 257 426 271 567 m 497 808 q 439 831 460 808 q 417 886 417 855 q 440 941 417 917 q 498 965 463 965 q 555 944 530 965 q 579 886 579 923 q 555 829 579 850 q 497 808 531 808 m 271 808 q 212 831 234 808 q 191 886 191 855 q 213 941 191 917 q 271 965 235 965 q 328 944 302 965 q 353 886 353 924 q 329 829 353 850 q 271 808 304 808 z "},"ђ":{"ha":762,"x_min":-27,"x_max":698,"o":"m 87 0 l 87 752 l -27 752 l -27 867 l 87 867 l 87 940 l 282 940 l 282 867 l 552 867 l 552 752 l 282 752 l 282 562 q 479 672 350 672 q 621 627 569 672 q 685 504 672 583 q 698 206 698 426 q 684 -59 698 20 q 613 -187 670 -138 q 446 -235 555 -235 q 410 -235 431 -235 l 397 -95 q 483 -46 460 -95 q 505 197 505 3 q 487 458 505 405 q 406 512 469 512 q 318 470 353 512 q 283 353 283 428 l 283 0 l 87 0 z "},"ѓ":{"ha":540,"x_min":83,"x_max":534,"o":"m 83 0 l 83 685 l 534 685 l 534 538 l 286 538 l 286 0 l 83 0 m 437 1028 l 488 914 l 190 787 l 156 863 l 437 1028 z "},"є":{"ha":725,"x_min":44,"x_max":707,"o":"m 526 284 l 526 413 l 260 413 q 295 524 260 484 q 392 564 329 564 q 510 476 489 564 l 698 507 q 393 699 623 699 q 139 602 233 699 q 44 340 44 504 q 134 86 44 186 q 402 -14 224 -14 q 707 186 633 -14 l 522 216 q 394 121 494 121 q 296 160 332 121 q 260 264 260 200 q 260 284 260 272 l 526 284 z "},"ѕ":{"ha":657,"x_min":7,"x_max":625,"o":"m 596 519 l 449 480 q 315 573 423 573 q 214 511 214 573 q 232 472 214 487 q 330 448 251 458 q 503 412 447 432 q 592 343 559 391 q 625 224 625 295 q 545 52 625 119 q 320 -14 465 -14 q 7 189 58 -14 l 178 214 q 330 121 199 121 q 414 139 380 121 q 449 188 449 157 q 372 244 449 235 q 99 324 165 270 q 34 474 34 378 q 110 635 34 572 q 323 699 186 699 q 496 656 431 699 q 596 519 562 614 z "},"і":{"ha":364,"x_min":83,"x_max":286,"o":"m 286 685 l 286 0 l 83 0 l 83 685 l 286 685 m 286 945 l 286 743 l 83 743 l 83 945 l 286 945 z "},"ї":{"ha":368,"x_min":4,"x_max":393,"o":"m 288 685 l 288 0 l 85 0 l 85 685 l 288 685 m 311 808 q 252 832 274 808 q 231 886 231 856 q 253 942 231 918 q 311 966 276 966 q 368 945 344 966 q 393 887 393 924 q 369 830 393 851 q 311 808 345 808 m 84 808 q 26 832 47 808 q 4 886 4 856 q 26 942 4 918 q 84 966 49 966 q 141 945 116 966 q 166 887 166 924 q 142 830 166 851 q 84 808 118 808 z "},"ј":{"ha":373,"x_min":-42,"x_max":290,"o":"m 290 685 l 290 37 q 288 -62 290 -17 q 264 -153 287 -107 q 191 -223 241 -199 q 68 -248 141 -248 q -42 -236 27 -248 l -42 -77 q 5 -81 -10 -81 q 64 -57 45 -81 q 83 37 83 -33 l 83 685 l 290 685 m 290 945 l 290 741 l 83 741 l 83 945 l 290 945 z "},"љ":{"ha":966,"x_min":-17,"x_max":943,"o":"m 496 442 l 701 442 q 884 380 825 442 q 943 221 943 317 q 877 54 943 107 q 701 0 811 0 l 397 0 l 298 502 l 135 0 l -17 0 l 212 685 l 436 685 l 496 442 m 572 136 l 669 136 q 754 224 754 136 q 669 313 754 313 l 528 313 l 572 136 z "},"њ":{"ha":1120,"x_min":83,"x_max":1093,"o":"m 686 435 l 850 435 q 974 420 931 435 q 1055 350 1017 405 q 1093 218 1093 295 q 1027 55 1093 109 q 850 0 962 0 l 485 0 l 485 291 l 286 291 l 286 0 l 83 0 l 83 685 l 286 685 l 286 438 l 485 438 l 485 685 l 686 685 l 686 435 m 686 136 l 819 136 q 904 223 904 136 q 819 307 904 307 l 686 307 l 686 136 z "},"ћ":{"ha":772,"x_min":-27,"x_max":705,"o":"m 87 867 l 87 940 l 288 940 l 288 867 l 549 867 l 549 752 l 288 752 l 288 562 q 486 672 360 672 q 593 650 547 672 q 664 593 639 629 q 696 527 688 558 q 705 408 705 495 l 705 0 l 503 0 l 503 384 q 483 484 503 455 q 416 512 462 512 q 325 470 362 512 q 288 353 288 428 l 288 0 l 87 0 l 87 752 l -27 752 l -27 867 l 87 867 z "},"ќ":{"ha":734,"x_min":83,"x_max":760,"o":"m 524 450 l 760 0 l 548 0 l 389 306 l 286 197 l 286 0 l 83 0 l 83 685 l 286 685 l 286 514 q 283 393 286 473 q 340 464 307 428 l 547 685 l 734 685 l 524 450 m 561 961 l 469 851 l 291 832 l 389 945 l 561 961 z "},"ў":{"ha":618,"x_min":-5,"x_max":614,"o":"m 614 685 l 399 28 q 338 -131 363 -82 q 265 -210 313 -180 q 132 -239 217 -239 q 35 -231 89 -239 l 35 -76 q 134 -85 88 -85 q 214 -63 193 -85 q 244 0 234 -41 l -5 685 l 209 685 l 340 277 l 467 685 l 614 685 m 125 993 l 232 993 q 340 904 243 904 q 451 993 441 904 l 557 993 q 488 850 546 901 q 338 798 430 798 q 193 846 252 798 q 125 993 134 894 z "},"џ":{"ha":768,"x_min":83,"x_max":685,"o":"m 83 0 l 83 685 l 286 685 l 286 144 l 483 144 l 483 685 l 685 685 l 685 0 l 465 0 l 447 -157 l 322 -157 l 304 0 l 83 0 z "},"Ґ":{"ha":649,"x_min":92,"x_max":649,"o":"m 649 1099 l 649 743 l 305 743 l 305 0 l 92 0 l 92 926 l 487 926 l 487 1099 l 649 1099 z "},"ґ":{"ha":540,"x_min":83,"x_max":534,"o":"m 389 685 l 389 841 l 534 841 l 534 538 l 286 538 l 286 0 l 83 0 l 83 685 l 389 685 z "},"Ẁ":{"ha":1213,"x_min":9,"x_max":1204,"o":"m 1204 926 l 970 0 l 758 0 l 606 612 l 459 0 l 248 0 l 9 926 l 231 926 l 358 361 q 366 331 359 357 q 373 302 368 321 l 524 926 l 724 926 l 880 302 q 894 361 885 320 l 1025 926 l 1204 926 m 513 1242 l 794 1078 l 760 1002 l 462 1128 l 513 1242 z "},"ẁ":{"ha":1002,"x_min":7,"x_max":989,"o":"m 989 685 l 783 0 l 605 0 l 496 441 l 389 0 l 218 0 l 7 685 l 218 685 l 330 267 l 434 685 l 617 685 l 718 264 l 833 685 l 989 685 m 407 1028 l 688 863 l 654 787 l 355 914 l 407 1028 z "},"Ẃ":{"ha":1213,"x_min":9,"x_max":1204,"o":"m 1204 926 l 970 0 l 758 0 l 606 612 l 459 0 l 248 0 l 9 926 l 231 926 l 358 361 q 366 331 359 357 q 373 302 368 321 l 524 926 l 724 926 l 880 302 q 894 361 885 320 l 1025 926 l 1204 926 m 737 1251 l 789 1137 l 490 1010 l 456 1086 l 737 1251 z "},"ẃ":{"ha":1002,"x_min":7,"x_max":989,"o":"m 989 685 l 783 0 l 605 0 l 496 441 l 389 0 l 218 0 l 7 685 l 218 685 l 330 267 l 434 685 l 617 685 l 718 264 l 833 685 l 989 685 m 636 1028 l 688 914 l 389 787 l 355 863 l 636 1028 z "},"Ẅ":{"ha":1213,"x_min":9,"x_max":1204,"o":"m 1204 926 l 970 0 l 758 0 l 606 612 l 459 0 l 248 0 l 9 926 l 231 926 l 358 361 q 366 331 359 357 q 373 302 368 321 l 524 926 l 724 926 l 880 302 q 894 361 885 320 l 1025 926 l 1204 926 m 736 1027 q 677 1051 699 1027 q 656 1105 656 1075 q 679 1161 656 1137 q 736 1185 701 1185 q 793 1164 769 1185 q 818 1106 818 1143 q 794 1049 818 1070 q 736 1027 770 1027 m 509 1027 q 451 1051 473 1027 q 429 1105 429 1075 q 452 1161 429 1137 q 509 1185 474 1185 q 566 1164 541 1185 q 591 1106 591 1143 q 567 1049 591 1070 q 509 1027 543 1027 z "},"ẅ":{"ha":1002,"x_min":7,"x_max":989,"o":"m 989 685 l 783 0 l 605 0 l 496 441 l 389 0 l 218 0 l 7 685 l 218 685 l 330 267 l 434 685 l 617 685 l 718 264 l 833 685 l 989 685 m 638 808 q 580 831 602 808 q 558 886 558 855 q 581 941 558 917 q 639 965 604 965 q 696 944 671 965 q 720 886 720 923 q 696 829 720 850 q 638 808 672 808 m 412 808 q 353 831 375 808 q 332 886 332 855 q 354 941 332 917 q 412 965 376 965 q 469 944 444 965 q 494 886 494 924 q 470 829 494 850 q 412 808 446 808 z "},"Ỳ":{"ha":724,"x_min":-37,"x_max":762,"o":"m 762 926 l 471 390 l 471 0 l 254 0 l 254 390 l -37 926 l 214 926 l 391 574 l 567 926 l 762 926 m 269 1245 l 550 1080 l 516 1004 l 218 1131 l 269 1245 z "},"ỳ":{"ha":618,"x_min":-5,"x_max":614,"o":"m 614 685 l 399 28 q 338 -131 363 -82 q 265 -210 313 -180 q 132 -239 217 -239 q 35 -231 89 -239 l 35 -76 q 134 -85 88 -85 q 214 -63 193 -85 q 244 0 234 -41 l -5 685 l 209 685 l 340 277 l 467 685 l 614 685 m 227 1028 l 508 863 l 474 787 l 176 914 l 227 1028 z "},"―":{"ha":926,"x_min":-28,"x_max":954,"o":"m -28 426 l 954 426 l 954 278 l -28 278 l -28 426 z "},"‗":{"ha":694,"x_min":0,"x_max":694,"o":"m 0 -67 l 694 -67 l 694 -175 l 0 -175 l 0 -67 m 0 -230 l 694 -230 l 694 -338 l 0 -338 l 0 -230 z "},"‛":{"ha":357,"x_min":80,"x_max":277,"o":"m 277 548 l 202 548 l 80 757 l 80 926 l 277 926 l 277 732 l 183 732 l 277 548 z "},"′":{"ha":269,"x_min":27,"x_max":297,"o":"m 143 541 l 27 541 l 133 926 l 297 926 l 143 541 z "},"″":{"ha":515,"x_min":27,"x_max":561,"o":"m 143 541 l 27 541 l 133 926 l 297 926 l 143 541 m 407 541 l 292 541 l 397 926 l 561 926 l 407 541 z "},"‼":{"ha":694,"x_min":61,"x_max":633,"o":"m 268 926 l 268 680 l 214 286 l 119 286 l 65 677 l 65 926 l 268 926 m 629 926 l 629 680 l 576 286 l 479 286 l 426 677 l 426 926 l 629 926 m 272 204 l 272 0 l 61 0 l 61 204 l 272 204 m 633 204 l 633 0 l 422 0 l 422 204 l 633 204 z "},"‾":{"ha":778,"x_min":-28,"x_max":806,"o":"m -28 1267 l 806 1267 l 806 1217 l -28 1217 l -28 1267 z "},"⁄":{"ha":148,"x_min":-236,"x_max":385,"o":"m -236 0 l 277 926 l 385 926 l -129 0 l -236 0 z "},"ⁿ":{"ha":500,"x_min":58,"x_max":442,"o":"m 442 370 l 302 370 l 302 602 q 293 671 302 653 q 257 690 284 690 q 198 602 198 690 l 198 370 l 58 370 l 58 784 l 190 784 l 191 736 l 245 784 q 295 792 254 792 q 403 761 363 792 q 442 635 442 730 l 442 370 z "},"₤":{"ha":815,"x_min":9,"x_max":788,"o":"m 75 319 l 75 425 l 204 425 q 191 505 201 449 l 75 505 l 75 610 l 175 610 q 174 660 174 639 q 256 870 174 800 q 466 940 338 940 q 734 764 670 940 l 560 695 q 468 784 538 784 q 408 760 435 784 q 381 677 381 735 q 387 610 381 654 l 546 610 l 546 505 l 403 505 q 410 425 409 458 l 546 425 l 546 319 l 401 319 q 304 173 382 239 l 443 173 q 600 302 563 173 l 788 246 q 451 0 723 0 l 9 0 l 9 173 l 70 173 q 172 212 134 173 q 213 319 210 251 l 75 319 z "},"₧":{"ha":1502,"x_min":100,"x_max":1475,"o":"m 313 344 l 313 0 l 100 0 l 100 926 l 411 926 q 593 900 530 926 q 707 806 657 873 q 757 642 757 739 q 731 508 757 573 q 656 406 705 444 q 562 356 607 368 q 418 344 517 344 l 313 344 m 305 512 l 400 512 q 513 549 481 512 q 546 635 546 587 q 510 724 546 691 q 399 758 473 758 l 305 758 l 305 512 m 949 311 l 949 145 q 958 104 949 113 q 1002 96 967 96 q 1047 98 1014 96 l 1047 1 q 960 -9 985 -9 q 846 20 883 -9 q 810 127 810 49 l 810 311 l 743 311 l 743 414 l 817 414 l 827 532 l 949 541 l 949 414 l 1041 414 l 1041 311 l 949 311 m 1459 313 l 1354 286 l 1352 290 q 1276 338 1335 338 q 1220 307 1220 338 q 1233 284 1220 290 q 1285 273 1246 278 q 1435 230 1396 260 q 1475 137 1475 201 q 1422 32 1475 73 q 1281 -8 1370 -8 q 1076 119 1106 -8 l 1196 136 q 1284 81 1208 81 q 1352 116 1352 81 q 1311 144 1352 140 q 1137 193 1179 158 q 1094 284 1094 228 q 1143 383 1094 344 q 1282 422 1193 422 q 1459 313 1417 422 z "},"℅":{"ha":1272,"x_min":57,"x_max":1215,"o":"m 512 650 q 444 515 504 566 q 290 465 384 465 q 120 530 184 465 q 57 701 57 595 q 123 874 57 808 q 300 941 189 941 q 447 891 389 941 q 512 762 506 840 l 374 755 q 302 836 368 836 q 220 709 220 836 q 243 602 220 625 q 298 579 265 579 q 374 657 364 579 l 512 650 m 329 0 l 842 926 l 949 926 l 436 0 l 329 0 m 980 460 q 1153 392 1091 460 q 1215 221 1215 323 q 1150 52 1215 120 q 979 -16 1086 -16 q 812 52 875 -16 q 750 224 750 119 q 812 394 750 327 q 980 460 874 460 m 983 368 q 924 339 944 368 q 905 224 905 311 q 923 112 905 146 q 983 77 941 77 q 1060 218 1060 77 q 1043 334 1060 300 q 983 368 1025 368 z "},"ℓ":{"ha":814,"x_min":198,"x_max":687,"o":"m 442 368 q 404 121 404 171 q 425 78 404 78 q 480 143 450 78 q 512 172 494 172 q 538 141 538 172 q 491 32 538 86 q 382 -22 445 -22 q 300 22 330 -22 q 269 182 269 66 q 271 243 269 205 q 225 206 236 206 q 207 217 216 206 q 198 245 198 228 q 216 283 198 262 q 282 359 262 335 q 395 768 323 599 q 574 938 467 938 q 657 901 627 938 q 687 806 687 863 q 442 368 687 612 m 463 494 q 563 646 524 562 q 602 795 602 730 q 577 845 602 845 q 463 494 526 845 z "},"№":{"ha":1389,"x_min":92,"x_max":1336,"o":"m 805 926 l 805 0 l 620 0 l 257 625 q 258 594 258 602 q 261 554 261 570 l 261 0 l 92 0 l 92 926 l 326 926 l 642 380 q 637 441 637 420 l 637 926 l 805 926 m 1112 704 q 1280 636 1223 704 q 1336 477 1336 568 q 1275 316 1336 380 q 1112 252 1213 252 q 954 316 1013 252 q 894 479 894 379 q 953 641 894 577 q 1112 704 1012 704 m 1116 606 q 1066 578 1081 606 q 1051 480 1051 551 q 1115 351 1051 351 q 1179 475 1179 351 q 1165 574 1179 542 q 1116 606 1152 606 m 907 147 l 1326 147 l 1326 0 l 907 0 l 907 147 z "},"℮":{"ha":833,"x_min":52,"x_max":770,"o":"m 209 360 l 209 109 q 411 26 290 26 q 679 193 583 26 l 728 164 q 571 13 648 49 q 411 -23 494 -23 q 153 84 254 -23 q 52 360 52 192 q 154 637 52 531 q 411 743 255 743 q 659 647 556 743 q 770 360 762 551 l 209 360 m 613 410 l 613 612 q 410 694 529 694 q 209 611 291 694 l 209 410 l 613 410 z "},"⅛":{"ha":1222,"x_min":12,"x_max":1201,"o":"m 12 699 l 12 822 q 214 935 168 864 l 321 935 l 321 479 l 467 479 l 467 370 l 15 370 l 15 479 l 176 479 l 176 779 q 12 699 79 725 m 285 0 l 798 926 l 905 926 l 392 0 l 285 0 m 1099 300 q 1201 165 1201 258 q 1137 41 1201 90 q 952 -8 1073 -8 q 781 37 840 -8 q 722 152 722 82 q 821 275 722 238 q 742 398 742 317 q 800 515 742 467 q 963 564 859 564 q 1122 522 1063 564 q 1181 415 1181 479 q 1099 300 1181 338 m 996 340 q 1050 405 1050 356 q 959 472 1050 472 q 884 418 884 472 q 903 379 884 395 q 996 340 922 363 m 925 228 q 856 157 856 209 q 960 89 856 89 q 1058 143 1058 89 q 1039 182 1058 165 q 925 228 1021 199 z "},"⅜":{"ha":1222,"x_min":18,"x_max":1201,"o":"m 176 709 l 243 709 q 330 770 330 709 q 310 812 330 793 q 254 831 290 831 q 167 760 184 831 l 35 780 q 111 891 51 848 q 258 935 171 935 q 412 894 350 935 q 475 783 475 853 q 385 662 475 696 q 492 531 492 631 q 430 410 492 457 q 258 362 368 362 q 91 412 153 362 q 18 537 30 462 l 153 555 q 255 469 170 469 q 318 488 294 469 q 342 538 342 507 q 320 589 342 573 q 235 605 297 605 l 176 605 l 176 709 m 301 0 l 814 926 l 922 926 l 408 0 l 301 0 m 1099 300 q 1201 165 1201 258 q 1137 41 1201 90 q 952 -8 1073 -8 q 781 37 840 -8 q 722 152 722 82 q 821 275 722 238 q 742 398 742 317 q 800 515 742 467 q 963 564 859 564 q 1122 522 1063 564 q 1181 415 1181 479 q 1099 300 1181 338 m 996 340 q 1050 405 1050 356 q 959 472 1050 472 q 884 418 884 472 q 903 379 884 395 q 996 340 922 363 m 925 228 q 856 157 856 209 q 960 89 856 89 q 1058 143 1058 89 q 1039 182 1058 165 q 925 228 1021 199 z "},"⅝":{"ha":1222,"x_min":24,"x_max":1185,"o":"m 448 805 l 189 805 l 180 699 q 302 740 226 740 q 442 689 386 740 q 498 560 498 637 q 436 418 498 474 q 263 362 375 362 q 24 526 70 362 l 163 545 q 259 472 180 472 q 325 496 300 472 q 349 551 349 519 q 323 608 349 584 q 260 633 298 633 q 177 589 206 633 l 57 608 l 81 926 l 464 926 l 448 805 m 296 0 l 808 926 l 916 926 l 403 0 l 296 0 m 1082 300 q 1185 165 1185 258 q 1121 41 1185 90 q 936 -8 1057 -8 q 765 37 824 -8 q 705 152 705 82 q 805 275 705 238 q 726 398 726 317 q 784 515 726 467 q 947 564 842 564 q 1106 522 1047 564 q 1164 415 1164 479 q 1082 300 1164 338 m 979 340 q 1034 405 1034 356 q 943 472 1034 472 q 867 418 867 472 q 886 379 867 395 q 979 340 905 363 m 909 228 q 840 157 840 209 q 943 89 840 89 q 1042 143 1042 89 q 1023 182 1042 165 q 909 228 1004 199 z "},"⅞":{"ha":1222,"x_min":37,"x_max":1182,"o":"m 472 926 l 472 822 q 350 634 396 743 q 304 415 304 526 q 306 370 304 399 l 138 370 q 160 526 139 455 q 229 676 180 597 q 331 804 277 754 l 37 804 l 49 926 l 472 926 m 236 0 l 749 926 l 857 926 l 343 0 l 236 0 m 1080 300 q 1182 165 1182 258 q 1118 41 1182 90 q 933 -8 1054 -8 q 762 37 821 -8 q 703 152 703 82 q 802 275 703 238 q 723 398 723 317 q 781 515 723 467 q 944 564 840 564 q 1103 522 1044 564 q 1162 415 1162 479 q 1080 300 1162 338 m 977 340 q 1031 405 1031 356 q 940 472 1031 472 q 865 418 865 472 q 884 379 865 395 q 977 340 903 363 m 906 228 q 837 157 837 209 q 941 89 837 89 q 1039 143 1039 89 q 1020 182 1039 165 q 906 228 1002 199 z "},"←":{"ha":1389,"x_min":54,"x_max":1335,"o":"m 334 594 l 385 594 q 253 385 330 479 l 1335 385 l 1335 316 l 253 316 q 387 106 322 247 l 334 106 q 54 338 183 278 l 54 368 q 334 594 174 416 z "},"↑":{"ha":694,"x_min":104,"x_max":591,"o":"m 104 628 q 330 908 281 789 l 361 908 q 591 627 420 779 l 591 575 q 382 709 451 640 l 382 -291 l 313 -291 l 313 709 q 104 576 219 631 l 104 628 z "},"→":{"ha":1389,"x_min":54,"x_max":1335,"o":"m 1055 594 q 1335 368 1215 416 l 1335 338 q 1054 106 1205 278 l 1002 106 q 1135 316 1066 247 l 54 316 l 54 385 l 1135 385 q 1003 594 1058 479 l 1055 594 z "},"↓":{"ha":694,"x_min":104,"x_max":591,"o":"m 104 -11 l 104 41 q 313 -92 219 -14 l 313 908 l 382 908 l 382 -92 q 591 42 451 -22 l 591 -10 q 361 -291 420 -161 l 330 -291 q 104 -11 281 -172 z "},"↔":{"ha":1389,"x_min":54,"x_max":1335,"o":"m 1335 366 l 1335 336 q 1059 107 1212 282 l 1005 107 q 1137 318 1052 224 l 252 318 q 383 107 336 224 l 329 107 q 54 336 177 282 l 54 366 q 329 595 177 420 l 383 595 q 252 385 336 479 l 1137 385 q 1005 595 1052 479 l 1059 595 q 1335 366 1212 420 z "},"↕":{"ha":694,"x_min":103,"x_max":591,"o":"m 332 992 l 362 992 q 591 716 416 869 l 591 662 q 380 794 475 709 l 380 -92 q 591 40 475 -6 l 591 -14 q 362 -290 416 -166 l 332 -290 q 103 -14 278 -166 l 103 40 q 314 -92 219 -6 l 314 794 q 103 662 219 709 l 103 716 q 332 992 278 869 z "},"↨":{"ha":694,"x_min":103,"x_max":591,"o":"m 332 992 l 362 992 q 591 716 416 869 l 591 662 q 380 794 475 709 l 380 -92 q 591 40 475 -6 l 591 -14 q 362 -290 416 -166 l 332 -290 q 103 -14 278 -166 l 103 40 q 314 -92 219 -6 l 314 794 q 103 662 219 709 l 103 716 q 332 992 278 869 m 104 -354 l 591 -354 l 591 -420 l 104 -420 l 104 -354 z "},"∟":{"ha":1360,"x_min":245,"x_max":1114,"o":"m 245 867 l 313 867 l 313 68 l 1114 68 l 1114 0 l 245 0 l 245 867 z "},"∩":{"ha":998,"x_min":130,"x_max":869,"o":"m 205 0 l 130 0 l 130 321 q 139 574 130 500 q 191 716 148 647 q 318 832 233 785 q 499 880 403 880 q 681 832 597 880 q 807 719 766 785 q 859 578 849 652 q 869 321 869 505 l 869 0 l 795 0 l 795 326 q 787 551 795 483 q 746 675 779 620 q 645 769 713 730 q 499 808 576 808 q 353 768 422 808 q 253 675 284 729 q 213 552 221 622 q 205 326 205 483 l 205 0 z "},"≡":{"ha":926,"x_min":138,"x_max":865,"o":"m 138 778 l 865 778 l 865 718 l 138 718 l 138 778 m 138 463 l 865 463 l 865 404 l 138 404 l 138 463 m 138 149 l 865 149 l 865 89 l 138 89 l 138 149 z "},"⌂":{"ha":833,"x_min":104,"x_max":730,"o":"m 104 0 l 104 430 l 416 782 l 730 430 l 730 0 l 104 0 m 159 55 l 675 55 l 675 407 l 416 696 l 159 407 l 159 55 z "},"⌐":{"ha":814,"x_min":106,"x_max":708,"o":"m 297 0 l 106 0 l 106 376 l 708 376 l 708 204 l 297 204 l 297 0 z "},"⌠":{"ha":839,"x_min":370,"x_max":662,"o":"m 469 -349 l 370 -349 l 370 879 q 431 1103 370 1027 q 568 1178 492 1178 q 638 1156 614 1178 q 662 1104 662 1134 q 645 1059 662 1077 q 602 1042 627 1042 q 564 1052 582 1042 q 535 1083 551 1059 q 504 1108 519 1108 q 483 1100 492 1108 q 473 1082 476 1095 q 469 987 469 1059 l 469 -349 z "},"⌡":{"ha":839,"x_min":177,"x_max":469,"o":"m 370 1178 l 469 1178 l 469 -50 q 408 -274 469 -199 q 271 -349 347 -349 q 201 -327 225 -349 q 177 -275 177 -305 q 194 -231 177 -248 q 236 -213 212 -213 q 276 -224 257 -213 q 304 -255 288 -231 q 335 -279 319 -279 q 356 -272 347 -279 q 366 -252 363 -267 q 370 -159 370 -231 l 370 1178 z "},"─":{"ha":984,"x_min":-16,"x_max":999,"o":"m 999 362 l -16 362 l -16 481 l 999 481 l 999 362 z "},"│":{"ha":984,"x_min":433,"x_max":551,"o":"m 433 -421 l 433 1264 l 551 1264 l 551 -421 l 433 -421 z "},"┌":{"ha":984,"x_min":433,"x_max":1000,"o":"m 1000 481 l 1000 362 l 551 362 l 551 -421 l 433 -421 l 433 481 l 1000 481 z "},"┐":{"ha":984,"x_min":-16,"x_max":551,"o":"m 432 362 l -16 362 l -16 481 l 551 481 l 551 -421 l 432 -421 l 432 362 z "},"└":{"ha":984,"x_min":433,"x_max":1000,"o":"m 433 362 l 433 1264 l 551 1264 l 551 481 l 1000 481 l 1000 362 l 433 362 z "},"┘":{"ha":984,"x_min":-16,"x_max":551,"o":"m 551 362 l -16 362 l -16 481 l 432 481 l 432 1264 l 551 1264 l 551 362 z "},"├":{"ha":984,"x_min":433,"x_max":1000,"o":"m 433 -421 l 433 1264 l 551 1264 l 551 481 l 1000 481 l 1000 362 l 551 362 l 551 -421 l 433 -421 z "},"┤":{"ha":984,"x_min":-16,"x_max":551,"o":"m 432 -421 l 432 362 l -16 362 l -16 481 l 432 481 l 432 1264 l 551 1264 l 551 -421 l 432 -421 z "},"┬":{"ha":984,"x_min":-16,"x_max":999,"o":"m 432 362 l -16 362 l -16 481 l 999 481 l 999 362 l 551 362 l 551 -421 l 432 -421 l 432 362 z "},"┴":{"ha":984,"x_min":-16,"x_max":999,"o":"m 999 362 l -16 362 l -16 481 l 432 481 l 432 1264 l 551 1264 l 551 481 l 999 481 l 999 362 z "},"┼":{"ha":984,"x_min":-16,"x_max":999,"o":"m 432 362 l -16 362 l -16 481 l 432 481 l 432 1264 l 551 1264 l 551 481 l 999 481 l 999 362 l 551 362 l 551 -421 l 432 -421 l 432 362 z "},"═":{"ha":984,"x_min":-16,"x_max":999,"o":"m 999 491 l -16 491 l -16 610 l 999 610 l 999 491 m 999 233 l -16 233 l -16 352 l 999 352 l 999 233 z "},"║":{"ha":984,"x_min":304,"x_max":681,"o":"m 562 -421 l 562 1264 l 681 1264 l 681 -421 l 562 -421 m 304 -421 l 304 1264 l 422 1264 l 422 -421 l 304 -421 z "},"╒":{"ha":984,"x_min":433,"x_max":1000,"o":"m 433 -421 l 433 610 l 1000 610 l 1000 491 l 551 491 l 551 352 l 1000 352 l 1000 233 l 551 233 l 551 -421 l 433 -421 z "},"╓":{"ha":984,"x_min":304,"x_max":1000,"o":"m 304 -421 l 304 481 l 1000 481 l 1000 362 l 681 362 l 681 -421 l 562 -421 l 562 362 l 422 362 l 422 -421 l 304 -421 z "},"╔":{"ha":984,"x_min":304,"x_max":1000,"o":"m 422 -421 l 304 -421 l 304 610 l 1000 610 l 1000 491 l 422 491 l 422 -421 m 681 233 l 681 -421 l 562 -421 l 562 352 l 1000 352 l 1000 233 l 681 233 z "},"╕":{"ha":984,"x_min":-16,"x_max":551,"o":"m 432 233 l -16 233 l -16 352 l 432 352 l 432 491 l -16 491 l -16 610 l 551 610 l 551 -421 l 432 -421 l 432 233 z "},"╖":{"ha":984,"x_min":-16,"x_max":680,"o":"m 304 -421 l 304 362 l -16 362 l -16 481 l 680 481 l 680 -421 l 562 -421 l 562 362 l 422 362 l 422 -421 l 304 -421 z "},"╗":{"ha":984,"x_min":-16,"x_max":680,"o":"m 562 -421 l 562 491 l -16 491 l -16 610 l 680 610 l 680 -421 l 562 -421 m 303 233 l -16 233 l -16 352 l 422 352 l 422 -421 l 303 -421 l 303 233 z "},"╘":{"ha":984,"x_min":433,"x_max":1000,"o":"m 433 233 l 433 1264 l 551 1264 l 551 610 l 1000 610 l 1000 491 l 551 491 l 551 352 l 1000 352 l 1000 233 l 433 233 z "},"╙":{"ha":984,"x_min":304,"x_max":1000,"o":"m 1000 362 l 304 362 l 304 1264 l 422 1264 l 422 481 l 562 481 l 562 1264 l 681 1264 l 681 481 l 1000 481 l 1000 362 z "},"╚":{"ha":984,"x_min":304,"x_max":1000,"o":"m 422 1264 l 422 352 l 999 352 l 999 233 l 304 233 l 304 1264 l 422 1264 m 681 610 l 1000 610 l 1000 491 l 562 491 l 562 1264 l 681 1264 l 681 610 z "},"╛":{"ha":984,"x_min":-16,"x_max":551,"o":"m 551 233 l -16 233 l -16 352 l 432 352 l 432 491 l -16 491 l -16 610 l 432 610 l 432 1264 l 551 1264 l 551 233 z "},"╜":{"ha":984,"x_min":-16,"x_max":680,"o":"m 680 362 l -16 362 l -16 481 l 303 481 l 303 1264 l 422 1264 l 422 481 l 562 481 l 562 1264 l 680 1264 l 680 362 z "},"╝":{"ha":984,"x_min":-16,"x_max":680,"o":"m 562 1264 l 680 1264 l 680 233 l -16 233 l -16 352 l 562 352 l 562 1264 m 303 610 l 303 1264 l 422 1264 l 422 491 l -16 491 l -16 610 l 303 610 z "},"╞":{"ha":984,"x_min":433,"x_max":1000,"o":"m 433 -421 l 433 1264 l 551 1264 l 551 610 l 1000 610 l 1000 491 l 551 491 l 551 352 l 1000 352 l 1000 233 l 551 233 l 551 -421 l 433 -421 z "},"╟":{"ha":984,"x_min":304,"x_max":1000,"o":"m 562 -421 l 562 1264 l 681 1264 l 681 481 l 1000 481 l 1000 362 l 681 362 l 681 -421 l 562 -421 m 304 -421 l 304 1264 l 422 1264 l 422 -421 l 304 -421 z "},"╠":{"ha":984,"x_min":304,"x_max":1000,"o":"m 304 -421 l 304 1264 l 422 1264 l 422 -421 l 304 -421 m 562 491 l 562 1264 l 681 1264 l 681 610 l 1000 610 l 1000 491 l 562 491 m 562 -421 l 562 352 l 1000 352 l 1000 233 l 681 233 l 681 -421 l 562 -421 z "},"╡":{"ha":984,"x_min":-16,"x_max":551,"o":"m 432 233 l -16 233 l -16 352 l 432 352 l 432 491 l -16 491 l -16 610 l 432 610 l 432 1264 l 551 1264 l 551 -421 l 432 -421 l 432 233 z "},"╢":{"ha":984,"x_min":-16,"x_max":680,"o":"m 303 -421 l 304 362 l -16 362 l -16 481 l 303 481 l 303 1264 l 422 1264 l 422 -421 l 303 -421 m 562 -421 l 562 1264 l 680 1264 l 680 -421 l 562 -421 z "},"╣":{"ha":984,"x_min":-16,"x_max":680,"o":"m 562 -421 l 562 1264 l 680 1264 l 680 -421 l 562 -421 m 422 1264 l 422 491 l -16 491 l -16 610 l 303 610 l 303 1264 l 422 1264 m 303 233 l -16 233 l -16 352 l 422 352 l 422 -421 l 303 -421 l 303 233 z "},"╤":{"ha":984,"x_min":-16,"x_max":999,"o":"m 999 491 l -16 491 l -16 610 l 999 610 l 999 491 m 432 233 l -16 233 l -16 352 l 999 352 l 999 233 l 551 233 l 551 -421 l 432 -421 l 432 233 z "},"╥":{"ha":984,"x_min":-16,"x_max":999,"o":"m 303 -421 l 303 362 l -16 362 l -16 481 l 999 481 l 999 362 l 680 362 l 680 -421 l 562 -421 l 562 362 l 422 362 l 422 -421 l 303 -421 z "},"╦":{"ha":984,"x_min":-16,"x_max":999,"o":"m 999 491 l -16 491 l -16 610 l 999 610 l 999 491 m 303 233 l -16 233 l -16 352 l 422 352 l 422 -421 l 303 -421 l 303 233 m 562 -421 l 562 352 l 999 352 l 999 233 l 680 233 l 680 -421 l 562 -421 z "},"╧":{"ha":984,"x_min":-16,"x_max":999,"o":"m 999 491 l -16 491 l -16 610 l 432 610 l 432 1264 l 551 1264 l 551 610 l 999 610 l 999 491 m 999 233 l -16 233 l -16 352 l 999 352 l 999 233 z "},"╨":{"ha":984,"x_min":-16,"x_max":999,"o":"m 999 362 l -16 362 l -16 481 l 303 481 l 303 1264 l 422 1264 l 422 481 l 562 481 l 562 1264 l 680 1264 l 680 481 l 999 481 l 999 362 z "},"╩":{"ha":984,"x_min":-16,"x_max":999,"o":"m 422 491 l -16 491 l -16 610 l 303 610 l 303 1264 l 422 1264 l 422 491 m 999 491 l 562 491 l 562 1264 l 680 1264 l 680 610 l 999 610 l 999 491 m 999 233 l -16 233 l -16 352 l 999 352 l 999 233 z "},"╪":{"ha":984,"x_min":-16,"x_max":999,"o":"m 432 233 l -16 233 l -16 352 l 432 352 l 432 491 l -16 491 l -16 610 l 432 610 l 432 1264 l 551 1264 l 551 610 l 999 610 l 999 491 l 551 491 l 551 352 l 999 352 l 999 233 l 551 233 l 551 -421 l 432 -421 l 432 233 z "},"╫":{"ha":984,"x_min":-16,"x_max":999,"o":"m 303 -421 l 303 362 l -16 362 l -16 481 l 303 481 l 303 1264 l 422 1264 l 422 481 l 562 481 l 562 1264 l 680 1264 l 680 481 l 999 481 l 999 362 l 680 362 l 680 -421 l 562 -421 l 562 362 l 422 362 l 422 -421 l 303 -421 z "},"╬":{"ha":984,"x_min":-16,"x_max":999,"o":"m 680 610 l 999 610 l 999 491 l 562 491 l 562 1264 l 680 1264 l 680 610 m 303 610 l 303 1264 l 422 1264 l 422 491 l -16 491 l -16 610 l 303 610 m 303 233 l -16 233 l -16 352 l 422 352 l 422 -421 l 303 -421 l 303 233 m 680 233 l 680 -421 l 562 -421 l 562 352 l 999 352 l 999 233 l 680 233 z "},"▀":{"ha":984,"x_min":-16,"x_max":999,"o":"m 999 421 l -16 421 l -16 1264 l 999 1264 l 999 421 z "},"▄":{"ha":984,"x_min":-16,"x_max":999,"o":"m 999 -421 l -16 -421 l -16 421 l 999 421 l 999 -421 z "},"█":{"ha":984,"x_min":-16,"x_max":999,"o":"m -16 -421 l -16 1264 l 999 1264 l 999 -421 l -16 -421 z "},"▌":{"ha":984,"x_min":-16,"x_max":492,"o":"m -16 -421 l -16 1264 l 492 1264 l 492 -421 l -16 -421 z "},"▐":{"ha":984,"x_min":492,"x_max":1000,"o":"m 492 -421 l 492 1264 l 1000 1264 l 1000 -421 l 492 -421 z "},"░":{"ha":984,"x_min":0,"x_max":900,"o":"m 0 1264 l 82 1264 l 82 1179 l 0 1179 l 0 1264 m 327 1264 l 409 1264 l 409 1179 l 327 1179 l 327 1264 m 654 1264 l 736 1264 l 736 1179 l 654 1179 l 654 1264 m 163 1095 l 245 1095 l 245 1010 l 163 1010 l 163 1095 m 490 1095 l 572 1095 l 572 1010 l 490 1010 l 490 1095 m 818 1095 l 900 1095 l 900 1010 l 818 1010 l 818 1095 m 654 926 l 736 926 l 736 842 l 654 842 l 654 926 m 327 926 l 409 926 l 409 842 l 327 842 l 327 926 m 0 926 l 82 926 l 82 842 l 0 842 l 0 926 m 818 758 l 900 758 l 900 673 l 818 673 l 818 758 m 490 758 l 572 758 l 572 673 l 490 673 l 490 758 m 163 758 l 245 758 l 245 673 l 163 673 l 163 758 m 0 588 l 82 588 l 82 503 l 0 503 l 0 588 m 327 588 l 409 588 l 409 503 l 327 503 l 327 588 m 654 588 l 736 588 l 736 503 l 654 503 l 654 588 m 818 419 l 900 419 l 900 334 l 818 334 l 818 419 m 490 419 l 572 419 l 572 334 l 490 334 l 490 419 m 163 419 l 245 419 l 245 334 l 163 334 l 163 419 m 0 250 l 82 250 l 82 165 l 0 165 l 0 250 m 327 250 l 409 250 l 409 165 l 327 165 l 327 250 m 654 250 l 736 250 l 736 165 l 654 165 l 654 250 m 163 81 l 245 81 l 245 -3 l 163 -3 l 163 81 m 490 81 l 572 81 l 572 -3 l 490 -3 l 490 81 m 818 81 l 900 81 l 900 -3 l 818 -3 l 818 81 m 654 -88 l 736 -88 l 736 -173 l 654 -173 l 654 -88 m 327 -88 l 409 -88 l 409 -173 l 327 -173 l 327 -88 m 0 -88 l 82 -88 l 82 -173 l 0 -173 l 0 -88 m 163 -257 l 245 -257 l 245 -342 l 163 -342 l 163 -257 m 490 -257 l 572 -257 l 572 -342 l 490 -342 l 490 -257 m 818 -257 l 900 -257 l 900 -342 l 818 -342 l 818 -257 z "},"▒":{"ha":984,"x_min":0,"x_max":981,"o":"m 82 1264 l 163 1264 l 163 1179 l 82 1179 l 82 1264 m 245 1264 l 327 1264 l 327 1179 l 245 1179 l 245 1264 m 409 1264 l 491 1264 l 491 1179 l 409 1179 l 409 1264 m 572 1264 l 654 1264 l 654 1179 l 572 1179 l 572 1264 m 736 1264 l 818 1264 l 818 1179 l 736 1179 l 736 1264 m 900 1264 l 981 1264 l 981 1179 l 900 1179 l 900 1264 m 0 1095 l 82 1095 l 82 1010 l 0 1010 l 0 1095 m 163 1095 l 245 1095 l 245 1010 l 163 1010 l 163 1095 m 327 1095 l 409 1095 l 409 1010 l 327 1010 l 327 1095 m 491 1095 l 572 1095 l 572 1010 l 491 1010 l 491 1095 m 654 1095 l 736 1095 l 736 1010 l 654 1010 l 654 1095 m 818 1095 l 900 1095 l 900 1010 l 818 1010 l 818 1095 m 82 926 l 163 926 l 163 842 l 82 842 l 82 926 m 245 926 l 327 926 l 327 842 l 245 842 l 245 926 m 409 926 l 491 926 l 491 842 l 409 842 l 409 926 m 572 926 l 654 926 l 654 842 l 572 842 l 572 926 m 736 926 l 818 926 l 818 842 l 736 842 l 736 926 m 900 926 l 981 926 l 981 842 l 900 842 l 900 926 m 163 757 l 245 757 l 245 673 l 163 673 l 163 757 m 327 757 l 409 757 l 409 673 l 327 673 l 327 757 m 491 757 l 572 757 l 572 673 l 491 673 l 491 757 m 654 757 l 736 757 l 736 673 l 654 673 l 654 757 m 818 757 l 900 757 l 900 673 l 818 673 l 818 757 m 0 757 l 82 757 l 82 673 l 0 673 l 0 757 m 82 588 l 163 588 l 163 503 l 82 503 l 82 588 m 245 588 l 327 588 l 327 503 l 245 503 l 245 588 m 409 588 l 491 588 l 491 503 l 409 503 l 409 588 m 572 588 l 654 588 l 654 503 l 572 503 l 572 588 m 736 588 l 818 588 l 818 503 l 736 503 l 736 588 m 900 588 l 981 588 l 981 503 l 900 503 l 900 588 m 0 419 l 82 419 l 82 334 l 0 334 l 0 419 m 327 419 l 409 419 l 409 334 l 327 334 l 327 419 m 491 419 l 572 419 l 572 334 l 491 334 l 491 419 m 654 419 l 736 419 l 736 334 l 654 334 l 654 419 m 818 419 l 900 419 l 900 334 l 818 334 l 818 419 m 163 419 l 245 419 l 245 334 l 163 334 l 163 419 m 900 250 l 981 250 l 981 165 l 900 165 l 900 250 m 736 250 l 818 250 l 818 165 l 736 165 l 736 250 m 572 250 l 654 250 l 654 165 l 572 165 l 572 250 m 409 250 l 491 250 l 491 165 l 409 165 l 409 250 m 245 250 l 327 250 l 327 165 l 245 165 l 245 250 m 82 250 l 163 250 l 163 165 l 82 165 l 82 250 m 0 81 l 82 81 l 82 -3 l 0 -3 l 0 81 m 163 81 l 245 81 l 245 -3 l 163 -3 l 163 81 m 327 81 l 409 81 l 409 -3 l 327 -3 l 327 81 m 491 81 l 572 81 l 572 -3 l 491 -3 l 491 81 m 654 81 l 736 81 l 736 -3 l 654 -3 l 654 81 m 818 81 l 900 81 l 900 -3 l 818 -3 l 818 81 m 900 -88 l 981 -88 l 981 -173 l 900 -173 l 900 -88 m 736 -88 l 818 -88 l 818 -173 l 736 -173 l 736 -88 m 572 -88 l 654 -88 l 654 -173 l 572 -173 l 572 -88 m 409 -88 l 491 -88 l 491 -173 l 409 -173 l 409 -88 m 245 -88 l 327 -88 l 327 -173 l 245 -173 l 245 -88 m 82 -88 l 163 -88 l 163 -173 l 82 -173 l 82 -88 m 0 -257 l 82 -257 l 82 -342 l 0 -342 l 0 -257 m 163 -257 l 245 -257 l 245 -342 l 163 -342 l 163 -257 m 327 -257 l 409 -257 l 409 -342 l 327 -342 l 327 -257 m 491 -257 l 572 -257 l 572 -342 l 491 -342 l 491 -257 m 654 -258 l 736 -257 l 736 -342 l 654 -342 l 654 -258 m 818 -257 l 900 -257 l 900 -342 l 818 -342 l 818 -257 z "},"▓":{"ha":984,"x_min":0,"x_max":981,"o":"m 981 1010 l 981 757 l 900 757 l 900 673 l 981 673 l 981 419 l 900 419 l 900 334 l 981 334 l 981 81 l 900 81 l 900 -3 l 981 -3 l 981 -257 l 900 -257 l 900 -342 l 981 -342 l 981 -426 l 0 -426 l 0 -173 l 82 -173 l 82 -88 l 0 -88 l 0 165 l 82 165 l 82 250 l 0 250 l 0 503 l 82 503 l 82 588 l 0 588 l 0 842 l 82 842 l 82 926 l 0 926 l 0 1179 l 82 1179 l 82 1264 l 163 1264 l 163 1179 l 245 1179 l 245 1264 l 327 1264 l 327 1179 l 409 1179 l 409 1264 l 491 1264 l 491 1179 l 572 1179 l 572 1264 l 654 1264 l 654 1179 l 736 1179 l 736 1264 l 818 1264 l 818 1179 l 900 1179 l 900 1264 l 981 1264 l 981 1095 l 900 1095 l 900 1010 l 981 1010 m 82 1095 l 82 1010 l 163 1010 l 163 1095 l 82 1095 m 245 1095 l 245 1010 l 327 1010 l 327 1095 l 245 1095 m 409 1095 l 409 1010 l 491 1010 l 491 1095 l 409 1095 m 572 1095 l 572 1010 l 654 1010 l 654 1095 l 572 1095 m 736 1095 l 736 1010 l 818 1010 l 818 1095 l 736 1095 m 900 926 l 818 926 l 818 842 l 900 842 l 900 926 m 736 926 l 654 926 l 654 842 l 736 842 l 736 926 m 572 926 l 491 926 l 491 842 l 572 842 l 572 926 m 409 926 l 327 926 l 327 842 l 409 842 l 409 926 m 245 926 l 163 926 l 163 842 l 245 842 l 245 926 m 82 757 l 82 673 l 163 673 l 163 757 l 82 757 m 245 757 l 245 673 l 327 673 l 327 757 l 245 757 m 409 757 l 409 673 l 491 673 l 491 757 l 409 757 m 572 757 l 572 673 l 654 673 l 654 757 l 572 757 m 736 757 l 736 673 l 818 673 l 818 757 l 736 757 m 245 588 l 163 588 l 163 503 l 245 503 l 245 588 m 327 588 l 327 503 l 409 503 l 409 588 l 327 588 m 491 588 l 491 503 l 572 503 l 572 588 l 491 588 m 654 588 l 654 503 l 736 503 l 736 588 l 654 588 m 818 588 l 818 503 l 900 503 l 900 588 l 818 588 m 82 419 l 82 334 l 163 334 l 163 419 l 82 419 m 409 419 l 409 334 l 491 334 l 491 419 l 409 419 m 327 334 l 327 419 l 245 419 l 245 334 l 327 334 m 572 419 l 572 334 l 654 334 l 654 419 l 572 419 m 736 419 l 736 334 l 818 334 l 818 419 l 736 419 m 900 165 l 900 250 l 818 250 l 818 165 l 900 165 m 736 165 l 736 250 l 654 250 l 654 165 l 736 165 m 572 165 l 572 250 l 491 250 l 491 165 l 572 165 m 409 165 l 409 250 l 327 250 l 327 165 l 409 165 m 245 165 l 245 250 l 163 250 l 163 165 l 245 165 m 82 81 l 82 -3 l 163 -3 l 163 81 l 82 81 m 245 81 l 245 -3 l 327 -3 l 327 81 l 245 81 m 409 81 l 409 -3 l 491 -3 l 491 81 l 409 81 m 572 81 l 572 -3 l 654 -3 l 654 81 l 572 81 m 736 81 l 736 -3 l 818 -3 l 818 81 l 736 81 m 900 -173 l 900 -88 l 818 -88 l 818 -173 l 900 -173 m 736 -173 l 736 -88 l 654 -88 l 654 -173 l 736 -173 m 572 -173 l 572 -88 l 491 -88 l 491 -173 l 572 -173 m 409 -173 l 409 -88 l 327 -88 l 327 -173 l 409 -173 m 245 -173 l 245 -88 l 163 -88 l 163 -173 l 245 -173 m 82 -257 l 82 -342 l 163 -342 l 163 -257 l 82 -257 m 245 -257 l 245 -342 l 327 -342 l 327 -257 l 245 -257 m 409 -257 l 409 -342 l 491 -342 l 491 -257 l 409 -257 m 572 -257 l 572 -342 l 654 -342 l 654 -257 l 572 -257 m 736 -257 l 736 -342 l 818 -342 l 818 -257 l 736 -257 z "},"■":{"ha":839,"x_min":99,"x_max":739,"o":"m 99 640 l 739 640 l 739 0 l 99 0 l 99 640 z "},"□":{"ha":839,"x_min":99,"x_max":739,"o":"m 99 640 l 739 640 l 739 0 l 99 0 l 99 640 m 151 589 l 151 52 l 688 52 l 688 589 l 151 589 z "},"▪":{"ha":493,"x_min":62,"x_max":431,"o":"m 431 643 l 431 275 l 62 275 l 62 643 l 431 643 z "},"▫":{"ha":493,"x_min":62,"x_max":431,"o":"m 431 643 l 431 275 l 62 275 l 62 643 l 431 643 m 379 591 l 114 591 l 114 326 l 379 326 l 379 591 z "},"▬":{"ha":1389,"x_min":0,"x_max":1388,"o":"m 0 477 l 1388 477 l 1388 215 l 0 215 l 0 477 z "},"▲":{"ha":1375,"x_min":206,"x_max":1169,"o":"m 206 0 l 688 962 l 1169 0 l 206 0 z "},"►":{"ha":1375,"x_min":195,"x_max":1179,"o":"m 195 961 l 1179 470 l 195 -21 l 195 961 z "},"▼":{"ha":1375,"x_min":206,"x_max":1169,"o":"m 1169 941 l 688 -21 l 206 941 l 1169 941 z "},"◄":{"ha":1375,"x_min":195,"x_max":1179,"o":"m 1179 961 l 1179 -21 l 195 470 l 1179 961 z "},"○":{"ha":839,"x_min":121,"x_max":718,"o":"m 420 690 q 566 652 494 690 q 678 541 638 613 q 718 392 718 469 q 631 180 718 268 q 420 93 543 93 q 208 180 296 93 q 121 392 121 268 q 161 542 121 470 q 273 652 201 613 q 420 690 345 690 m 420 639 q 298 607 357 639 q 205 515 239 575 q 172 392 172 456 q 245 217 172 290 q 420 144 317 144 q 594 217 522 144 q 667 392 667 290 q 633 515 667 456 q 541 607 600 575 q 420 639 482 639 z "},"●":{"ha":839,"x_min":121,"x_max":718,"o":"m 718 392 q 630 181 718 269 q 420 93 543 93 q 208 180 296 93 q 121 392 121 268 q 209 603 121 515 q 420 690 296 690 q 630 603 543 690 q 718 392 718 515 z "}}}
